<svg width="825" height="765" viewBox="0 0 825 765" fill="none" xmlns="http://www.w3.org/2000/svg">
<path fill-rule="evenodd" clip-rule="evenodd" d="M403.03 1.82859C398.105 4.06459 394.338 8.37259 392.037 14.3976C387.244 26.9486 396.553 41.6196 410.019 42.7356C422.906 43.8046 432.733 35.8176 434.246 23.0456C434.872 17.7606 432.302 10.4636 428.272 6.07959C422.845 0.175585 411.043 -1.81141 403.03 1.82859ZM376.071 5.97258C365.621 8.67558 350.441 12.5586 342.338 14.6016C334.235 16.6446 327.777 18.4886 327.988 18.6986C328.198 18.9096 336.784 18.3766 347.066 17.5146C357.349 16.6536 367.632 15.9856 369.917 16.0306L374.071 16.1116L370.571 17.6316C368.646 18.4676 357.502 23.3846 345.807 28.5576C334.112 33.7306 314.762 42.2716 302.807 47.5356C282.628 56.4226 275.248 60.2496 281.571 58.5476C287.267 57.0146 310.583 51.5316 333.071 46.4376C346.271 43.4466 358.196 40.7316 359.571 40.4036C365.629 38.9576 359.112 41.9556 347.571 45.9226C335.27 50.1506 329.949 52.7666 336.071 51.5756C344.761 49.8856 359.923 47.8956 375.071 46.4576C404.892 43.6266 403.195 43.8706 401.023 42.7196C399.949 42.1506 397.569 40.2816 395.733 38.5666C385.732 29.2226 385.564 14.0566 395.348 3.69858C397.058 1.88758 397.455 0.967585 396.508 1.00358C395.718 1.03358 386.521 3.26958 376.071 5.97258ZM431.481 6.07358C437.813 14.4406 438.866 23.3956 434.523 31.9486C432.683 35.5736 427.522 40.9166 424.119 42.7196C421.943 43.8726 420.425 43.6546 450.071 46.4406C459.421 47.3196 472.649 48.9276 479.467 50.0136C486.285 51.1006 492.04 51.8136 492.255 51.5986C492.47 51.3826 486.317 49.0116 478.582 46.3276C470.846 43.6446 465.128 41.3176 465.874 41.1576C467.56 40.7966 498.669 47.5936 530.975 55.3816C539.172 57.3576 546.028 58.8246 546.211 58.6426C546.515 58.3376 505.625 40.0376 467.299 23.3256C455.225 18.0616 452.159 16.3706 454.225 16.1156C455.709 15.9316 465.893 16.5206 476.856 17.4226C487.819 18.3256 496.944 18.9086 497.134 18.7196C497.323 18.5296 492.661 17.1486 486.775 15.6496C480.888 14.1516 466.621 10.5096 455.071 7.55759C443.521 4.60459 432.584 1.86958 430.767 1.47758L427.464 0.765586L431.481 6.07358ZM421.533 8.92158C427.164 12.9306 429.165 21.7876 425.965 28.5316C421.022 38.9486 404.091 38.8006 399.076 28.2976C395.077 19.9236 399.63 8.95658 408.071 6.63158C411.579 5.66458 418.648 6.86758 421.533 8.92158ZM381.571 24.4486C381.571 26.9236 381.197 28.9486 380.74 28.9486C380.284 28.9486 375.016 29.8316 369.035 30.9096C363.054 31.9886 358.005 32.7156 357.815 32.5256C357.44 32.1506 379.588 20.0976 380.821 20.0046C381.234 19.9736 381.571 21.9736 381.571 24.4486ZM456.129 26.0646C462.478 29.4276 467.538 32.3076 467.372 32.4646C467.206 32.6216 462.121 31.8986 456.071 30.8576C450.021 29.8176 444.734 28.9626 444.321 28.9576C443.908 28.9526 443.571 26.9236 443.571 24.4486C443.571 21.9736 443.799 19.9486 444.078 19.9486C444.357 19.9486 449.78 22.7006 456.129 26.0646ZM244.902 74.3586C219.604 88.3746 202.368 100.344 182.071 117.99C171.662 127.039 151.597 147.27 145.56 154.802C141.703 159.614 129.86 167.846 119.071 173.216C103.037 181.195 81.5002 187.449 61.6082 189.903C56.9532 190.477 52.6082 191.509 51.9512 192.198C51.2942 192.886 41.8552 208.974 30.9752 227.949C7.01323 269.74 5.23823 272.95 5.79023 273.502C6.02923 273.74 15.4152 269.627 26.6482 264.362C37.8812 259.096 59.6712 248.921 75.0712 241.75C117.137 222.163 113.681 224.239 118.35 215.742C123.428 206.501 135.072 188.82 142.911 178.449C172.597 139.175 214.848 103.52 256.762 82.3726L265.453 77.9876L263.42 71.9686C262.302 68.6576 261.091 65.9496 260.729 65.9516C260.367 65.9526 253.245 69.7366 244.902 74.3586ZM381.071 67.0766C282.562 76.4696 191.784 134.369 140.606 220.449C116.194 261.51 101.7 306.413 97.4892 354.027C96.0102 370.742 96.8532 410.421 98.9902 424.709C109.662 496.061 139.621 556.063 189.517 606.016C238.321 654.875 298.816 684.879 370.071 695.565C384.12 697.672 423.89 698.5 440.493 697.031C532.801 688.867 616.392 640.889 670.616 564.949C702.872 519.774 722.701 465.862 727.653 409.871C729.132 393.156 728.289 353.477 726.152 339.189C715.513 268.058 685.34 207.452 636.149 158.407C583.201 105.616 515.618 73.7746 442.071 66.9686C429.215 65.7786 394.032 65.8416 381.071 67.0766ZM563.056 68.1986C562.808 68.8866 561.946 71.3506 561.14 73.6746L559.676 77.9016L568.374 82.5786C626.228 113.692 673.009 158.226 703.533 211.246L710.579 223.484L733.825 234.397C774.526 253.504 818.657 273.949 819.198 273.949C819.486 273.949 818.418 271.586 816.826 268.699C813.23 262.178 775.274 196.047 773.466 193.152C772.482 191.577 770.739 190.882 766.609 190.42C738.349 187.256 711.857 178.432 692.249 165.65C686.024 161.593 681.12 157.086 672.344 147.358C645.069 117.123 612.419 91.5896 577.112 72.8856C565.39 66.6756 563.799 66.1446 563.056 68.1986ZM447.571 73.9736C501.46 80.0786 554.716 101.292 597.916 133.859C667.423 186.257 710.646 261.804 720.714 348.489C722.339 362.477 722.346 402.422 720.726 415.449C716.413 450.13 708.265 479.832 694.941 509.446C664.551 576.992 608.277 633.53 541.309 663.799C422.57 717.467 284.175 692.28 193.071 600.42C122.294 529.056 90.3772 428.707 107.13 330.222C125.955 219.566 202.726 128.152 309.023 89.8206C333.144 81.1226 363.775 74.9016 394.071 72.5496C402.456 71.8986 437.483 72.8316 447.571 73.9736ZM395.071 76.5686C349.224 79.5376 304.635 92.3506 266.071 113.636C213.705 142.54 172.358 184.064 143.778 236.449C92.1692 331.046 94.8882 447.893 150.85 540.449C163.619 561.568 175.723 577.045 194.535 596.31C256.268 659.527 339.581 692.072 428.571 687.733C493.147 684.585 553.479 661.656 604.634 620.824C618.018 610.141 640.763 587.396 651.446 574.012C682.026 535.702 702.5 492.332 712.375 444.949C716.214 426.53 717.525 416.079 718.384 397.058C721.426 329.642 703.728 266.225 666.357 210.633C647.427 182.473 618.413 152.889 589.571 132.338C549.464 103.76 500.094 84.6196 450.719 78.5076C438.399 76.9816 406.078 75.8556 395.071 76.5686ZM443.071 82.3846C498.065 88.2936 546.731 106.859 590.08 138.467C678.84 203.187 725.498 310.48 712.053 418.949C705.082 475.182 682.968 527.322 647.159 571.949C633.743 588.67 608.545 612.568 589.571 626.567C554.791 652.228 507.776 671.993 464.071 679.328C434.925 684.22 400.604 684.884 373.071 681.09C325.225 674.496 283.4 658.402 242.312 630.775C208.934 608.331 176.388 573.855 154.77 538.038C118.279 477.582 104.514 406.991 115.171 334.964C121.039 295.308 137.061 253.681 160.401 217.449C176.152 192.999 205.174 161.629 228.571 143.765C275.223 108.146 327.384 87.6446 385.632 82.0336C399.42 80.7056 429.133 80.8876 443.071 82.3846ZM385.571 110.012C308.398 118.478 240.489 156.763 194.355 217.813C164.007 257.973 145.497 306.146 140.509 357.949C137.937 384.652 140.91 422.394 147.633 448.399C163.545 509.947 198.333 562.349 248.348 600.106C274.631 619.948 306.36 635.691 338.571 644.872C383.142 657.576 435.278 658.156 480.714 646.454C566.715 624.304 637.482 560.573 668.376 477.448C679.283 448.103 684.309 422.04 685.251 389.949C685.918 367.21 684.914 353.662 680.951 331.949C671.089 277.918 645.274 228.86 605.84 189.21C564.881 148.026 515.188 122.535 456.071 112.381C443.59 110.237 437.124 109.743 417.571 109.442C404.646 109.242 390.246 109.499 385.571 110.012ZM445.571 117.562C497.505 124.185 546.155 145.531 585.071 178.769C594.273 186.629 612.313 205.135 619.852 214.449C643.005 243.053 661.316 279.275 670.405 314.449C681.882 358.862 681.884 405.13 670.411 449.449C661.475 483.968 643.161 520.459 620.725 548.449C611.446 560.026 592.564 579.071 581.071 588.446C552.393 611.84 515.406 630.641 480.071 639.789C434.313 651.634 386.264 651.21 340.435 638.555C308.734 629.802 275.694 613.1 248.571 592.118C236.941 583.121 215.058 561.554 205.276 549.449C182.162 520.843 163.818 484.552 154.731 449.449C143.382 405.609 143.177 360.622 154.126 317.049C163.386 280.2 181.495 243.877 205.278 214.449C215.142 202.244 233.935 183.512 246.071 173.79C274.097 151.339 310.591 133.027 345.071 124.113C378.155 115.561 412.383 113.329 445.571 117.562ZM120.571 187.329C120.571 187.539 117.759 192.24 114.321 197.777C110.884 203.313 107.363 209.105 106.498 210.646C105.207 212.948 98.6342 216.38 69.7272 229.844C50.3682 238.862 34.3482 246.059 34.1272 245.839C33.7662 245.477 51.2642 215.718 57.0682 206.824C59.3252 203.366 59.8162 203.143 67.7522 201.985C79.9542 200.205 100.834 194.695 110.571 190.685C119.271 187.102 120.571 186.666 120.571 187.329ZM717.071 191.908C728.327 196.127 745.121 200.366 757.071 202.003C761.471 202.606 765.347 203.403 765.685 203.774C767.439 205.702 790.621 245.232 790.228 245.625C789.806 246.047 781.137 242.12 735.248 220.715C719.742 213.483 719.371 213.236 716.716 208.392C715.225 205.673 711.972 200.299 709.486 196.449C702.715 185.961 702.972 186.499 705.157 187.384C706.21 187.81 711.571 189.846 717.071 191.908ZM84.5712 287.5C84.5712 288.353 86.1322 289.703 88.0392 290.5C93.0932 292.612 93.2962 292.307 89.0712 288.949C84.7032 285.478 84.5712 285.435 84.5712 287.5ZM735.484 288.95C733.607 290.555 732.393 291.886 732.787 291.908C734.104 291.983 740.571 288.589 740.571 287.823C740.571 285.855 738.589 286.294 735.484 288.95ZM84.4512 310.034C87.9462 311.585 89.1282 311.731 90.2982 310.76C91.5682 309.707 91.5172 309.446 89.9182 308.816C88.9022 308.417 86.2712 308.09 84.0712 308.09H80.0712L84.4512 310.034ZM734.874 308.741C734.108 309.227 733.999 310.023 734.571 310.948C735.33 312.178 736.109 312.071 739.768 310.234L744.071 308.073L740.071 308.026C737.871 308.001 735.532 308.322 734.874 308.741ZM747.759 327.632C742.547 329.475 742.925 330.403 748.504 329.46C751.015 329.036 752.571 328.233 752.571 327.361C752.571 326.584 752.459 325.985 752.321 326.028C752.183 326.071 750.13 326.793 747.759 327.632ZM71.5712 327.949C71.5712 328.499 72.1342 328.954 72.8212 328.96C73.5092 328.966 75.8712 329.196 78.0712 329.472L82.0712 329.973L78.5712 328.537C74.3772 326.817 71.5712 326.581 71.5712 327.949ZM68.5712 345.449C68.5712 346.56 69.6742 346.928 72.8212 346.868L77.0712 346.787L74.0712 345.413C70.1262 343.607 68.5712 343.617 68.5712 345.449ZM84.1562 347.348C83.8052 349.217 82.5802 351.939 81.4332 353.398C79.6322 355.687 78.7192 356.008 74.7492 355.749C70.8152 355.492 70.0522 355.088 69.4612 352.949C68.8712 350.813 68.7562 350.996 68.6712 354.199L68.5712 357.949H73.8842C78.3872 357.949 79.5912 357.53 81.7812 355.199C83.2772 353.606 84.6562 350.66 85.0562 348.199C85.8742 343.168 85.0812 342.418 84.1562 347.348ZM750.071 345.413L747.071 346.787L751.321 346.868C754.468 346.928 755.571 346.56 755.571 345.449C755.571 343.617 754.016 343.607 750.071 345.413ZM739.689 348.622C739.612 350.703 740.462 352.855 742.16 354.872C744.513 357.669 745.287 357.949 750.66 357.949C756.561 357.949 756.571 357.944 756.571 354.949C756.571 353.299 756.121 351.949 755.571 351.949C755.021 351.949 754.571 352.849 754.571 353.949C754.571 355.66 753.904 355.949 749.965 355.949C746.159 355.949 744.986 355.48 743.215 353.253C742.036 351.77 740.787 349.408 740.439 348.003C739.847 345.608 739.8 345.647 739.689 348.622ZM77.7212 364.199C77.6132 368.327 77.9242 369.878 78.8212 369.699C79.5242 369.558 80.2092 370.652 80.3872 372.199C81.0122 377.628 83.5262 374.06 83.5572 367.699C83.5722 364.803 81.3662 363.904 79.8802 366.199C79.3742 366.981 78.8472 365.766 78.4712 362.949L77.8712 358.449L77.7212 364.199ZM746.571 362.528C746.571 366.022 746.496 366.091 743.425 365.417C740.486 364.771 740.321 364.881 740.912 367.088C741.259 368.386 741.55 370.687 741.557 372.199C741.566 373.971 742.105 374.949 743.071 374.949C744.082 374.949 744.571 373.937 744.571 371.842C744.571 369.491 744.936 368.875 746.071 369.311C747.292 369.779 747.571 368.868 747.571 364.418C747.571 361.41 747.346 358.949 747.071 358.949C746.796 358.949 746.571 360.56 746.571 362.528ZM793.483 360.281C792.611 360.923 791.358 362.461 790.699 363.699C788.745 367.367 791.738 366.52 793.852 362.807C795.872 359.259 795.774 358.592 793.483 360.281ZM29.5932 360.699C29.6372 362.192 33.4522 366.402 34.1382 365.715C34.9882 364.865 31.9282 359.949 30.5482 359.949C30.0112 359.949 29.5812 360.286 29.5932 360.699ZM25.5672 364.445C28.2512 367.301 29.2572 367.1 27.6172 364.035C27.0032 362.888 25.7632 361.949 24.8622 361.949C23.5312 361.949 23.6642 362.419 25.5672 364.445ZM73.1782 363.531C72.2292 366.003 72.4662 370.766 73.5712 371.449C74.1872 371.83 74.5712 370.126 74.5712 367.008C74.5712 361.748 74.2092 360.844 73.1782 363.531ZM797.065 363.955C794.392 366.909 795.823 367.374 798.575 364.445C799.864 363.072 800.461 361.949 799.9 361.949C799.34 361.949 798.064 362.852 797.065 363.955ZM749.571 366.89C749.571 369.058 750.021 371.109 750.571 371.449C751.182 371.827 751.571 370.293 751.571 367.508C751.571 365.001 751.121 362.949 750.571 362.949C750.021 362.949 749.571 364.722 749.571 366.89ZM18.5712 366.842C18.5712 368.016 21.4952 369.114 22.6782 368.383C23.1872 368.068 23.3452 367.392 23.0282 366.88C22.2932 365.69 18.5712 365.659 18.5712 366.842ZM802.03 367.016C801.667 367.602 801.576 368.288 801.828 368.539C802.525 369.237 805.571 367.856 805.571 366.842C805.571 365.59 802.828 365.725 802.03 367.016ZM15.6602 378.204C9.38523 383.289 3.10823 389.024 1.71223 390.949C-0.82377 394.445 -0.821769 394.445 3.62223 390.314C6.06923 388.04 12.4182 383.196 17.7302 379.549L27.3902 372.92L34.0062 381.935C37.6452 386.892 40.7972 390.949 41.0092 390.949C41.2222 390.949 43.4832 388.024 46.0342 384.449C48.5852 380.874 50.8652 377.949 51.1012 377.949C52.4122 377.949 56.0822 387.235 56.6332 391.949C57.0802 395.769 57.3222 393.078 57.4242 383.139L57.5712 368.828L53.8502 369.139C50.0772 369.453 49.1352 370.431 41.4572 381.995C40.0282 384.147 39.8762 384.032 34.2602 376.571C31.1052 372.379 28.1972 368.951 27.7972 368.954C27.3982 368.957 21.9362 373.119 15.6602 378.204ZM32.5712 370.065C32.5712 371.109 39.3512 380.949 40.0702 380.949C40.6652 380.949 46.5712 370.942 46.5712 369.934C46.5712 369.381 43.5002 368.949 39.5712 368.949C35.0862 368.949 32.5712 369.35 32.5712 370.065ZM65.5712 371.949C65.5712 374.948 65.5722 374.949 71.3212 374.831C75.6472 374.742 76.3282 374.554 74.0712 374.074C71.9712 373.628 70.9752 372.763 70.7512 371.193C70.5202 369.571 69.7582 368.949 68.0012 368.949C65.9682 368.949 65.5712 369.439 65.5712 371.949ZM753.571 371.386C753.571 373.385 752.988 373.895 750.321 374.226C748.527 374.448 749.87 374.701 753.321 374.789L759.571 374.949V371.949C759.571 369.282 759.238 368.949 756.571 368.949C754.058 368.949 753.571 369.345 753.571 371.386ZM767.238 369.616C766.871 369.982 766.625 376.17 766.69 383.366C766.809 396.374 766.816 396.415 768.019 390.449C769.237 384.407 772.004 377.929 773.347 377.973C773.745 377.986 776.057 380.911 778.485 384.473C780.912 388.035 783.162 390.934 783.485 390.916C783.807 390.898 786.733 387.255 789.986 382.821C793.239 378.388 796.477 374.539 797.182 374.268C798.671 373.697 815.684 385.321 820.008 389.863C821.623 391.56 823.399 392.949 823.954 392.949C824.509 392.949 823.413 391.32 821.517 389.33C817.379 384.983 797.711 368.949 796.519 368.949C796.056 368.949 793.332 372.307 790.467 376.411C787.601 380.515 784.875 383.637 784.409 383.349C783.943 383.061 781.685 380.04 779.391 376.637C777.098 373.234 774.737 370.118 774.146 369.714C772.797 368.792 768.128 368.726 767.238 369.616ZM777.571 369.543C777.571 370.504 783.99 380.953 784.555 380.911C785.163 380.866 792.571 370.329 792.571 369.509C792.571 369.201 789.196 368.949 785.071 368.949C780.946 368.949 777.571 369.216 777.571 369.543ZM68.3862 379.984C62.4962 383.095 62.7952 383.951 69.7622 383.934C74.0452 383.923 75.5992 383.62 74.6002 382.988C72.8022 381.851 73.7192 380.817 77.8932 379.275L81.0712 378.101L76.5712 378.069C73.9842 378.051 70.5042 378.865 68.3862 379.984ZM747.821 379.682C751.896 381.354 752.561 382.544 749.821 383.26C748.859 383.511 750.91 383.769 754.38 383.833C758.417 383.907 760.463 383.584 760.062 382.935C758.779 380.859 751.525 377.952 747.861 378.046L744.071 378.143L747.821 379.682ZM65.5602 387.199C65.5542 387.887 65.2702 390.137 64.9292 392.199L64.3092 395.949H68.3242C71.4972 395.949 72.4472 395.53 72.8612 393.949C73.2992 392.275 74.2252 391.949 78.5442 391.949C83.5832 391.949 83.6962 391.885 83.3872 389.199C83.1042 386.738 82.6242 386.417 78.8212 386.142C76.3062 385.96 74.5712 386.266 74.5712 386.892C74.5712 387.473 75.9212 387.949 77.5712 387.949C79.5712 387.949 80.5712 388.449 80.5712 389.449C80.5712 390.628 79.1822 390.949 74.0712 390.949C67.8042 390.949 67.5712 390.859 67.5712 388.449C67.5712 387.074 67.1212 385.949 66.5712 385.949C66.0212 385.949 65.5662 386.512 65.5602 387.199ZM741.571 388.949C741.571 391.882 741.682 391.949 746.571 391.949C750.904 391.949 751.571 392.216 751.571 393.949C751.571 395.626 752.238 395.949 755.702 395.949H759.833L759.213 392.199C758.872 390.137 758.588 387.86 758.582 387.14C758.576 386.42 758.121 386.109 757.571 386.449C757.021 386.789 756.571 387.94 756.571 389.008C756.571 390.73 755.838 390.949 750.071 390.949C744.96 390.949 743.571 390.628 743.571 389.449C743.571 388.449 744.571 387.949 746.571 387.949C748.221 387.949 749.571 387.499 749.571 386.949C749.571 386.399 747.771 385.949 745.571 385.949C741.793 385.949 741.571 386.116 741.571 388.949ZM66.2752 398.579C64.9732 399.88 65.5112 406.989 66.9532 407.542C68.9862 408.322 78.8512 405.657 79.3282 404.199C79.6232 403.299 78.1732 402.949 74.1542 402.949C65.9422 402.949 67.3492 401.086 75.8212 400.743C79.8082 400.581 83.0712 399.999 83.0712 399.449C83.0712 398.309 67.3592 397.495 66.2752 398.579ZM741.571 399.449C741.571 400.649 743.071 400.949 749.071 400.949C753.404 400.949 756.571 401.371 756.571 401.949C756.571 402.505 753.904 402.949 750.571 402.949C747.271 402.949 744.571 403.344 744.571 403.828C744.571 404.993 749.058 406.672 754.321 407.476L758.571 408.125V403.037V397.949H750.071C743.182 397.949 741.571 398.233 741.571 399.449ZM75.5712 410.769L69.0712 414.449L74.7612 414.747C80.2342 415.034 80.4632 415.157 80.7612 417.97C81.1762 421.889 83.0922 420.524 83.8412 415.777C84.2832 412.972 84.0442 411.961 82.8282 411.494C81.9532 411.158 80.7722 411.348 80.2042 411.916C78.9402 413.18 77.5712 413.26 77.5712 412.07C77.5712 411.587 78.9212 410.632 80.5712 409.949C82.2212 409.266 83.5712 408.311 83.5712 407.828C83.5712 406.448 82.5162 406.836 75.5712 410.769ZM741.075 407.956C741.418 408.51 743.132 409.708 744.884 410.617C746.89 411.658 747.565 412.442 746.705 412.732C745.954 412.985 744.998 412.64 744.58 411.964C744.125 411.227 742.969 411.005 741.696 411.409C739.425 412.13 738.94 413.441 740.571 414.449C741.121 414.789 741.571 416.165 741.571 417.508C741.571 418.851 742.021 419.949 742.571 419.949C743.121 419.949 743.571 418.846 743.571 417.499C743.571 415.218 743.967 415.028 749.321 414.749L755.071 414.449L748.475 410.699C741.68 406.836 739.998 406.212 741.075 407.956ZM68.9722 420.109C67.9742 421.724 69.4132 422.325 71.7652 421.276L73.9772 420.289L71.7752 419.713C70.5642 419.396 69.3022 419.574 68.9722 420.109ZM753.071 419.976C751.206 420.683 751.192 420.784 752.864 421.465C754.8 422.254 755.995 421.638 755.425 420.146C755.23 419.635 754.171 419.559 753.071 419.976ZM83.3292 423.524C83.0132 423.841 83.1632 425.525 83.6622 427.268C85.0022 431.937 84.7972 432.949 82.5122 432.949C81.3802 432.949 80.7312 433.399 81.0712 433.949C81.4112 434.499 83.0212 434.949 84.6492 434.949C87.1892 434.949 87.5442 434.63 87.1482 432.699C86.8942 431.461 86.4152 428.762 86.0832 426.699C85.5172 423.175 84.6632 422.19 83.3292 423.524ZM738.571 424.309C738.571 425.058 738.285 427.758 737.935 430.309L737.299 434.949H740.435C742.16 434.949 743.571 434.499 743.571 433.949C743.571 433.399 742.623 432.949 741.464 432.949C740.049 432.949 739.537 432.48 739.905 431.52C740.207 430.734 740.755 428.484 741.124 426.52C741.667 423.626 741.488 422.949 740.182 422.949C739.296 422.949 738.571 423.561 738.571 424.309ZM75.7482 426.471C72.1602 428.029 72.1452 428.293 75.2492 435.72C77.0422 440.013 77.8722 439.485 76.5542 434.889C75.1432 429.97 75.3182 428.949 77.5712 428.949C78.9042 428.949 79.5712 428.282 79.5712 426.949C79.5712 425.849 79.4592 424.967 79.3212 424.988C79.1832 425.01 77.5762 425.677 75.7482 426.471ZM744.765 427.047C745.02 427.818 746.166 428.588 747.313 428.757C749.156 429.03 749.292 429.435 748.484 432.251C747.337 436.251 747.318 438.223 748.434 437.534C749.47 436.894 752.043 428.088 751.386 427.431C751.133 427.177 749.435 426.672 747.614 426.308C745.027 425.79 744.404 425.952 744.765 427.047ZM84.0122 439.417C82.1512 440.825 82.1832 440.887 84.7902 440.917C86.8022 440.941 87.3592 440.559 86.9332 439.449C86.2322 437.623 86.3822 437.625 84.0122 439.417ZM737.571 439.449C737.571 440.311 738.473 440.949 739.693 440.949C741.467 440.949 741.611 440.702 740.571 439.449C739.886 438.624 738.931 437.949 738.449 437.949C737.966 437.949 737.571 438.624 737.571 439.449ZM81.2622 446.671C77.1652 447.287 78.5742 449.449 83.0732 449.449C86.8562 449.449 86.9022 449.498 88.9782 455.657C90.1292 459.071 91.7002 462.446 92.4682 463.157C93.6342 464.235 93.7592 464.147 93.2242 462.631C92.8712 461.632 91.6102 457.469 90.4222 453.381C88.1092 445.422 88.3592 445.604 81.2622 446.671ZM736.3 446.598C735.693 447.603 731.571 461.347 731.571 462.366C731.571 464.715 733.732 460.977 735.574 455.439L737.733 448.951L741.652 449.578C744.862 450.091 745.571 449.91 745.571 448.577C745.571 447.682 744.952 446.949 744.196 446.949C743.44 446.949 741.469 446.679 739.817 446.348C738.165 446.018 736.582 446.13 736.3 446.598ZM77.1372 452.847C76.0222 453.284 75.6422 453.875 76.2402 454.244C76.8102 454.597 78.1302 454.239 79.1742 453.449C81.2152 451.904 80.2642 451.622 77.1372 452.847ZM745.012 453.481C747.216 455.148 748.571 455.367 748.571 454.056C748.571 453.094 746.139 451.929 744.239 451.981C743.597 451.998 743.945 452.673 745.012 453.481ZM81.7442 455.821C80.6462 456.517 80.6422 457.422 81.7192 461.056L83.0212 465.449L83.3712 461.462C83.5632 459.269 84.1922 456.906 84.7682 456.212C86.0002 454.727 83.8982 454.455 81.7442 455.821ZM740.014 456.887C741.347 458.358 741.633 459.86 741.207 463.137C740.648 467.427 740.655 467.421 742.49 461.949C744.181 456.907 744.199 456.392 742.703 455.769C739.305 454.354 738.155 454.832 740.014 456.887ZM90.5712 472.307L87.0712 473.387L90.9212 473.734C94.9962 474.102 96.5492 473.469 95.0042 472.071C94.4912 471.607 92.4962 471.713 90.5712 472.307ZM729.571 472.382C729.571 473.532 730.57 473.941 733.321 473.919C737.157 473.887 736.581 472.959 731.821 471.503C730.152 470.992 729.571 471.219 729.571 472.382ZM92.8712 486.105C89.8252 486.788 88.8242 487.445 89.2282 488.498C89.5342 489.296 90.0742 489.947 90.4282 489.945C91.3872 489.94 97.5712 486.06 97.5712 485.464C97.5712 485.181 97.4582 484.997 97.3212 485.056C97.1842 485.115 95.1812 485.587 92.8712 486.105ZM727.577 485.805C727.585 486.576 733.344 489.949 734.652 489.949C735.157 489.949 735.571 489.329 735.571 488.571C735.571 487.798 733.812 486.746 731.571 486.177C729.371 485.619 727.574 485.451 727.577 485.805ZM797.071 500.482C784.971 506.13 760.673 517.497 743.076 525.741L711.082 540.73L702.739 554.589C686.83 581.019 673.214 598.415 651.129 620.527C624.445 647.245 596.038 668.129 565.571 683.428C562.546 684.947 559.96 686.284 559.824 686.4C559.417 686.746 562.773 696.378 563.63 697.325C565.96 699.899 610.91 672.312 632.071 655.321C644.639 645.229 668.798 621.965 677.268 611.797C691.508 594.702 724.21 580.186 760.071 575.042L772.071 573.321L775.671 567.385C783.311 554.786 819.725 490.772 819.407 490.499C819.222 490.341 809.171 494.833 797.071 500.482ZM5.57123 491.446C5.57123 492.052 40.8712 554.165 47.7702 565.699C52.3902 573.421 52.9212 573.949 56.0722 573.949C62.3482 573.949 87.0212 579.027 97.0712 582.387C110.216 586.782 122.354 592.456 132.409 598.906C138.664 602.918 143.191 607.072 151.778 616.681C173.703 641.212 201.75 664.579 229.376 681.331C243.675 690.001 259.476 698.2 260.862 697.667C261.55 697.404 262.851 694.879 263.753 692.058L265.393 686.929L261.232 684.588C258.944 683.301 252.578 679.818 247.088 676.848C214.39 659.165 180.328 631.06 154.485 600.438C139.875 583.127 126.183 563.428 117.159 546.738C114.306 541.461 113.5 540.764 106.571 537.571C102.446 535.671 93.6712 531.566 87.0712 528.45C80.4712 525.333 73.2712 521.942 71.0712 520.913C68.8712 519.884 53.5812 512.721 37.0942 504.995C8.32924 491.517 5.57123 490.332 5.57123 491.446ZM100.821 498.623C97.6272 500.851 98.0342 502.032 101.571 500.799C103.221 500.224 104.571 499.122 104.571 498.351C104.571 496.579 103.657 496.645 100.821 498.623ZM720.002 498.061C719.185 499.382 721.302 500.912 723.976 500.934C725.818 500.948 725.821 500.883 724.071 498.949C722.019 496.681 720.993 496.457 720.002 498.061ZM57.6372 529.024C70.5262 535.116 86.1862 542.413 92.4372 545.24C98.6892 548.068 104.461 551.296 105.265 552.415C107.481 555.498 119.714 575.274 120.281 576.69C120.581 577.439 118.657 576.993 115.424 575.565C103.291 570.203 75.2432 562.867 62.6232 561.753C59.2772 561.458 58.7992 560.822 46.3732 540.134C34.2512 519.951 33.1242 517.949 33.8872 517.949C34.0612 517.949 44.7492 522.933 57.6372 529.024ZM779.382 538.199C772.72 549.337 766.647 559.176 765.886 560.065C765.085 561.002 762.107 561.963 758.806 562.351C744.201 564.068 721.05 570.361 707.279 576.359L703.488 578.011L705.064 575.23C705.931 573.7 709.662 567.594 713.355 561.66L720.071 550.872L730.571 545.962C736.346 543.261 752.096 535.889 765.571 529.579C779.046 523.269 790.391 518.071 790.782 518.028C791.174 517.985 786.043 527.061 779.382 538.199ZM285.571 709.073C290.246 711.326 299.021 715.323 305.071 717.954C335.677 731.267 372.707 747.752 373.269 748.314C374.187 749.232 371.037 749.1 352.571 747.449C335.863 745.955 328.897 745.621 329.654 746.35C329.884 746.57 344.471 750.412 362.071 754.886C379.671 759.361 394.941 763.287 396.005 763.611C397.588 764.093 397.386 763.498 394.892 760.325C388.667 752.406 386.864 746.1 388.593 738.299C390.024 731.843 393.42 726.9 398.934 723.247L403.47 720.243L391.563 719.57C385.014 719.2 370.974 717.782 360.363 716.418C349.753 715.053 339.046 713.704 336.571 713.419C333.305 713.042 335.987 714.316 346.35 718.062C354.203 720.902 360.42 723.433 360.165 723.689C359.675 724.179 330.562 717.757 299.571 710.322C289.396 707.882 280.171 705.68 279.071 705.431C277.971 705.181 280.896 706.82 285.571 709.073ZM530.571 709.046C507.4 714.839 467.039 723.902 464.571 723.867C463.746 723.855 469.335 721.617 476.992 718.893C491.818 713.619 494.507 712.267 488.071 713.321C475.906 715.315 443.873 718.989 433.579 719.57L421.672 720.243L425.991 723.104C431.439 726.712 435.164 732.075 436.547 738.299C438.279 746.098 436.476 752.404 430.25 760.325C427.757 763.497 427.555 764.093 429.137 763.611C430.201 763.286 444.346 759.631 460.571 755.489C476.796 751.346 491.421 747.543 493.071 747.039C496.069 746.121 496.069 746.121 493.417 746.035C491.957 745.988 482.367 746.652 472.106 747.512C461.845 748.372 452.955 748.91 452.351 748.709C451.397 748.391 463.336 742.933 508.071 723.237C513.571 720.815 519.421 718.224 521.071 717.478C522.721 716.733 528.772 714.045 534.518 711.506C540.263 708.967 545.176 706.677 545.434 706.419C546.422 705.432 541.662 706.273 530.571 709.046ZM406.33 722.333C398.565 725.185 393.734 730.172 391.54 737.599C387.669 750.704 398.623 764.949 412.571 764.949C426.576 764.949 437.338 750.904 433.59 737.517C430.371 726.018 416.829 718.475 406.33 722.333ZM421.395 730.63C426.944 734.697 429.23 743.859 426.166 749.749C425.393 751.234 423.557 753.574 422.085 754.949C419.771 757.111 418.486 757.449 412.571 757.449C406.656 757.449 405.371 757.111 403.057 754.949C398.763 750.937 397.291 747.215 397.82 741.709C398.365 736.035 400.701 732.443 405.603 729.739C409.919 727.358 417.515 727.787 421.395 730.63ZM368.711 733.47C382.554 735.988 381.571 735.492 381.571 739.968C381.571 742.158 381.086 743.949 380.493 743.949C379.609 743.949 359.057 733.462 357.654 732.296C356.805 731.59 360.576 731.99 368.711 733.47ZM457.071 737.929C451.021 741.2 445.509 743.893 444.821 743.913C444.023 743.936 443.571 742.502 443.571 739.949C443.571 737.749 443.684 735.926 443.821 735.899C469.327 730.752 470.12 730.874 457.071 737.929Z" fill="white"/>
</svg>
