<svg width="905" height="1029" viewBox="0 0 905 1029" fill="none" xmlns="http://www.w3.org/2000/svg">
<path fill-rule="evenodd" clip-rule="evenodd" d="M497.473 1.28873C492.886 4.81073 492.478 10.0787 496.483 14.0837C502.276 19.8767 510.56 15.9517 510.56 7.41373C510.56 1.84073 501.983 -2.17427 497.473 1.28873ZM505.06 8.50673C505.06 11.1707 504.725 11.5067 502.074 11.5067C499.988 11.5067 498.982 10.9617 498.739 9.69873C498.114 6.45473 499.381 4.85373 502.304 5.18973C504.629 5.45673 505.06 5.97573 505.06 8.50673ZM444.56 32.0877C439.445 34.4027 435.037 38.2517 432.971 42.2067C431.121 45.7477 431.087 45.6617 434.59 46.3627C437.706 46.9857 442.56 51.3467 442.56 53.5237C442.56 54.2887 440.215 54.9967 436.31 55.4097C420.972 57.0327 404.122 61.8617 394.619 67.3577C386.226 72.2117 376.56 80.8337 376.56 83.4667C376.56 83.7637 378.473 84.0147 380.81 84.0237C383.147 84.0337 388.21 84.6997 392.06 85.5047C422.715 91.9127 443.389 124.182 449.996 175.935C450.868 182.77 451.742 188.523 451.938 188.719C452.134 188.914 452.61 186.247 452.996 182.791C459.384 125.6 479.585 92.3297 512.06 85.5107C515.91 84.7027 520.973 84.0337 523.31 84.0237C525.647 84.0147 527.56 83.6087 527.56 83.1217C527.56 82.6347 524.623 79.4887 521.033 76.1307C509.807 65.6287 492.881 58.8017 470.81 55.8737C464.259 55.0047 461.56 54.2477 461.56 53.2807C461.56 51.2767 465.99 47.1877 468.974 46.4387C470.459 46.0667 471.56 45.0817 471.56 44.1257C471.56 41.1917 465.358 34.8217 460.131 32.3877C453.936 29.5027 450.42 29.4347 444.56 32.0877ZM457.81 41.0597C461.677 42.1337 462.653 43.6497 460.106 44.6277C459.306 44.9347 457.691 47.1707 456.517 49.5957C454.746 53.2527 453.903 54.0067 451.579 54.0067C449.448 54.0067 448.631 53.4267 448.169 51.5837C447.834 50.2507 446.379 47.7567 444.936 46.0417C442.047 42.6087 442.058 42.5297 445.597 41.1167C448.874 39.8087 453.232 39.7877 457.81 41.0597ZM479.56 71.2767C482.585 72.0417 487.038 73.5407 489.456 74.6077L493.853 76.5477L489.877 79.1787C472.989 90.3537 461.019 105.704 455.006 123.895L451.869 133.383L449.621 125.98C444.252 108.305 431.575 91.1477 415.914 80.3617C413.003 78.3567 410.822 76.3917 411.068 75.9947C411.783 74.8367 424.521 71.0417 431.06 70.0377C439.596 68.7267 472.837 69.5757 479.56 71.2767ZM445.055 79.4207C441.902 82.5737 441.033 86.3197 442.585 90.0657C444.25 94.0867 447.205 96.0067 451.727 96.0067C456.911 96.0067 460.522 92.7057 461.247 87.3037C461.746 83.5797 461.464 82.7567 458.762 80.0547C454.766 76.0587 448.698 75.7777 445.055 79.4207ZM318.58 93.7587C316.666 94.7197 314.039 97.0817 312.741 99.0067C310.759 101.949 310.449 103.446 310.795 108.398C311.171 113.753 311.573 114.629 315.222 118.032C320.736 123.176 325.927 124.03 332.338 120.85C341.332 116.388 344.008 105.258 337.847 97.9357C332.822 91.9637 325.369 90.3477 318.58 93.7587ZM330.026 97.4277C333.884 99.0397 336.56 103.393 336.56 108.057C336.56 112.424 330.977 118.007 326.61 118.007C316.721 118.007 311.095 106.55 317.862 100.193C319.867 98.3087 323.895 96.2277 325.842 96.0697C326.272 96.0357 328.155 96.6467 330.026 97.4277ZM368.56 128.972C352.974 132.316 344.396 137.554 340.09 146.357C336.111 154.488 336.703 156.065 344.309 157.611C347.746 158.309 352.812 160.108 355.567 161.607C360.636 164.366 369.007 172.177 372.667 177.565C375.553 181.813 381.083 192.888 382.499 197.257C383.168 199.32 384.018 201.006 384.388 201.004C384.757 201.003 385.157 196.463 385.275 190.916C385.729 169.616 393.084 153.653 406.065 145.798C409.056 143.988 411.516 141.943 411.532 141.254C411.547 140.564 409.423 137.796 406.81 135.101C403.254 131.433 400.695 129.801 396.628 128.605C389.619 126.543 379.247 126.678 368.56 128.972ZM507.884 128.379C501.73 130.403 496.928 133.676 494.61 137.425C493.483 139.25 492.566 141.14 492.573 141.625C492.58 142.11 495.115 144.082 498.207 146.007C511.106 154.038 517.33 167.674 518.518 190.507C518.93 198.41 519.429 201.824 519.983 200.507C527.295 183.093 531.143 176.492 538.102 169.42C544.166 163.259 553.434 158.358 560.895 157.368C563.554 157.015 565.947 156.162 566.212 155.472C567.254 152.755 564.281 145.66 560.284 141.323C552.62 133.009 539.402 128.21 522.06 127.446C515.193 127.143 510.752 127.435 507.884 128.379ZM308.015 132.462C304.674 135.802 304.75 140.225 308.195 142.934C312.673 146.457 317.374 145.284 319.517 140.11C321.533 135.243 317.567 130.082 311.765 130.021C311.052 130.013 309.365 131.112 308.015 132.462ZM315.06 137.521C315.06 138.819 314.281 139.618 312.81 139.827C311.153 140.062 310.56 139.645 310.56 138.243C310.56 137.197 310.876 136.025 311.261 135.639C312.588 134.313 315.06 135.537 315.06 137.521ZM392.411 136.105C396.048 137.373 396.438 138.594 393.505 139.525C387.463 141.442 382.901 154.306 381.691 172.84L381.06 182.507L375.219 170.708C368.349 156.833 361.269 148.606 355.22 147.471C351.122 146.702 350.766 146.015 353.31 143.778C360.892 137.113 382.909 132.792 392.411 136.105ZM533.704 136.45C537.358 137.224 542.308 138.844 544.704 140.049C551.991 143.714 554.739 147.007 550.51 147.007C544.02 147.007 536.335 155.468 528.717 170.999L523.081 182.492L521.865 169.642C520.192 151.959 516.724 142.406 511.036 139.814C502.61 135.975 519.58 133.456 533.704 136.45ZM417.617 158.257C416.068 161.695 414.475 166.014 414.079 167.857C413.397 171.022 413.486 171.169 415.709 170.527C417.002 170.154 418.819 169.638 419.748 169.38C421.921 168.777 430.707 180.961 437.28 193.693C439.888 198.745 442.188 202.712 442.392 202.508C442.96 201.94 434.848 177.848 431.08 168.914C427.07 159.405 422.858 152.007 421.455 152.007C420.894 152.007 419.167 154.82 417.617 158.257ZM480.783 153.257C479.311 155.057 474.151 165.512 471.282 172.507C467.646 181.372 461.275 201.056 461.855 201.635C462.131 201.911 464.259 198.403 466.585 193.84C470.995 185.185 479.277 172.316 481.769 170.248C482.772 169.416 484.185 169.326 486.374 169.954C488.112 170.452 489.761 170.491 490.04 170.04C490.979 168.52 484.141 152.007 482.572 152.007C482.15 152.007 481.345 152.57 480.783 153.257ZM578.903 156.063C570.861 161.215 571.299 174.235 579.659 178.558C588.572 183.167 599.56 176.789 599.56 167.007C599.56 156.615 587.782 150.375 578.903 156.063ZM588.84 158.923C592.665 160.378 594.56 162.887 594.56 166.497C594.56 171.22 593.725 172.87 590.488 174.544C586.292 176.714 583.741 176.342 580.483 173.084C575.916 168.517 577.16 161.322 582.917 158.999C585.747 157.856 586.024 157.853 588.84 158.923ZM346.31 163.075C344.248 164.164 342.559 165.382 342.558 165.781C342.555 167.113 353.763 216.501 354.165 216.924C355.081 217.889 355.381 215.676 356.526 199.507L357.73 182.507L361.358 178.747L364.986 174.986L358.05 167.997C354.235 164.152 350.877 161.027 350.587 161.051C350.297 161.076 348.373 161.986 346.31 163.075ZM546.234 167.74C542.563 171.304 539.56 174.577 539.56 175.013C539.56 175.45 541.065 177.315 542.905 179.157C546.199 182.457 546.259 182.678 546.938 194.007C548.082 213.09 548.774 218.71 549.707 216.48C551.048 213.274 561.574 165.688 561.057 165.171C560.796 164.91 558.856 163.924 556.745 162.979L552.907 161.26L546.234 167.74ZM500.144 178.257C496.3 200.796 495.197 203.751 489.56 206.632C487.085 207.898 484.16 209.223 483.06 209.577L481.06 210.222L483.06 211.044C486.193 212.332 496.002 212.141 497.811 210.757C500.322 208.834 502.695 194.333 503.294 177.257C503.587 168.87 503.623 162.007 503.372 162.007C503.121 162.007 501.669 169.32 500.144 178.257ZM399.986 164.34C399.088 166.68 401.312 194.27 403.063 202.507C403.914 206.511 405.276 210.042 406.246 210.757C408.125 212.142 417.929 212.332 421.06 211.044L423.06 210.222L421.06 209.53C415.677 207.667 411.476 205.571 410.119 204.073C408.313 202.077 405.293 189.514 403.012 174.507C402.092 168.457 401.175 163.33 400.973 163.114C400.772 162.898 400.327 163.449 399.986 164.34ZM693.778 184.67C684.996 188.999 682.411 201.463 688.652 209.396C695.642 218.284 711.133 216.748 715.904 206.695C722.64 192.5 707.821 177.749 693.778 184.67ZM707.593 188.524C713.015 191.328 715.143 199.044 712.111 204.908C707.044 214.707 692.583 212.993 689.614 202.24C686.808 192.077 697.98 183.553 707.593 188.524ZM336.371 198.515C335.758 212.989 334.044 216.936 325.755 222.958C322.385 225.406 319.767 227.548 319.937 227.717C320.107 227.887 325.041 226.334 330.901 224.267C343.326 219.882 342.604 221.564 340.017 203.012C337.742 186.703 336.915 185.682 336.371 198.515ZM565.618 189.507C565.563 190.057 564.668 197.032 563.629 205.007C562.59 212.982 562.037 219.778 562.4 220.109C563.436 221.056 583.668 228.233 584.095 227.805C584.305 227.595 581.544 225.296 577.96 222.697C570.034 216.949 568.721 214.194 567.42 200.576C566.519 191.146 565.859 187.094 565.618 189.507ZM391.963 201.757C392.259 202.72 393.16 206.365 393.965 209.859C394.771 213.352 395.631 216.412 395.877 216.657C396.925 217.705 401.56 215.664 401.56 214.154C401.56 213.254 399.651 209.703 397.318 206.263C393.184 200.166 390.878 198.226 391.963 201.757ZM507.948 204.139C506.236 206.541 504.084 209.975 503.166 211.77C501.502 215.02 501.506 215.036 504.191 216.057C507.706 217.393 508.364 216.609 510.15 208.953C512.196 200.181 511.638 198.959 507.948 204.139ZM374.94 206.627C374.522 208.761 374.153 212.757 374.12 215.507C374.06 220.477 374.078 220.505 377.053 220.181C378.698 220.002 380.165 219.736 380.311 219.59C380.798 219.102 377.321 204.52 376.504 203.627C376.062 203.143 375.358 204.493 374.94 206.627ZM525.1 211.102C524.145 215.525 523.52 219.274 523.711 219.434C523.903 219.595 525.307 220.025 526.832 220.391C528.823 220.869 529.766 220.635 530.177 219.562C530.87 217.757 528.699 204.211 527.609 203.537C527.185 203.275 526.056 206.679 525.1 211.102ZM254.023 204.963C252.648 205.518 250.74 208.931 248.16 215.45C246.056 220.766 244.583 225.363 244.887 225.667C245.19 225.97 247.518 224.725 250.059 222.9C253.907 220.137 254.837 219.827 255.62 221.045C256.137 221.849 259.598 227.848 263.31 234.375C267.023 240.902 270.17 245.627 270.305 244.875C270.668 242.851 258.146 204.691 257.022 204.395C256.493 204.255 255.143 204.511 254.023 204.963ZM645.779 205.679C644.194 208.781 633.56 242.71 633.56 244.665C633.561 245.678 636.864 240.767 640.9 233.75C644.937 226.734 648.505 220.728 648.83 220.404C649.154 220.08 651.508 221.251 654.06 223.007C656.612 224.763 658.924 225.976 659.198 225.703C659.888 225.012 651.498 205.007 650.518 205.007C650.081 205.007 649.046 204.747 648.218 204.429C647.337 204.091 646.327 204.609 645.779 205.679ZM307.878 215.397C306.723 225.11 305.501 228.028 300.184 233.757C296.518 237.707 297.779 237.859 304.968 234.333C310.206 231.764 310.446 231.472 311.076 226.891C311.749 222.001 310.843 209.484 309.656 207.267C309.291 206.586 308.491 210.244 307.878 215.397ZM593.193 210.67C592.337 216.916 592.419 229.245 593.325 230.626C594.17 231.912 603.953 237.007 605.577 237.007C606.174 237.007 605.282 235.544 603.597 233.757C598.798 228.668 596.473 222.899 595.838 214.505C595.172 205.689 594.09 204.122 593.193 210.67ZM436.56 220.097C405.999 221.41 374.568 227.242 345.207 237.048C338.688 239.226 332.951 241.007 332.457 241.007C331.964 241.007 331.56 238.532 331.56 235.507C331.56 231.394 331.198 230.007 330.124 230.007C327.971 230.007 305.978 239.474 294.042 245.539C260.524 262.57 232.95 282.638 205.477 309.997C195.806 319.627 183.947 332.457 179.124 338.507C159.436 363.206 138.924 397.928 128.115 424.856C125.61 431.097 123.56 436.61 123.56 437.106C123.56 437.601 126.402 438.007 129.876 438.007H136.191L141.002 426.757C158.777 385.19 184.26 348.066 216.691 316.491C261.834 272.541 314.36 243.904 376.166 229.545C426.152 217.933 482.584 218.251 532.06 230.425C556.578 236.458 582.019 245.693 602.705 256.07C659.669 284.647 709.714 331.144 741.745 385.256C748.51 396.683 762.787 425.449 765.693 433.507L767.136 437.507L773.848 437.803C777.54 437.965 780.56 437.857 780.56 437.562C780.56 435.493 770.804 412.908 764.554 400.507C730.747 333.431 675.974 278.785 609.254 245.567C598.697 240.311 586.235 234.505 581.56 232.664L573.06 229.316L572.753 234.412C572.584 237.214 572.122 239.834 571.727 240.233C571.332 240.632 565.62 239.146 559.034 236.932C532.486 228.004 497.66 221.439 471.56 220.444C464.135 220.16 456.71 219.817 455.06 219.68C453.41 219.544 445.085 219.731 436.56 220.097ZM281.609 226.757C280.091 232.204 278.069 246.85 278.743 247.523C279.48 248.26 288.56 243.879 288.56 242.786C288.56 242.334 287.435 241.452 286.06 240.825C283.245 239.543 283.365 240.047 283.552 230.257C283.628 226.269 283.457 223.007 283.172 223.007C282.887 223.007 282.184 224.695 281.609 226.757ZM620.659 230.734C620.567 238.353 620.375 239.082 618.06 240.599C616.685 241.5 615.56 242.532 615.56 242.893C615.56 243.918 624.406 248.494 625.082 247.819C625.9 247.001 623.819 232.253 622.125 226.861L620.758 222.507L620.659 230.734ZM232.593 242.572C235.895 252.436 238.99 261.13 239.471 261.892C241.29 264.774 245.154 262.343 247.42 256.89C248.597 254.058 249.56 251.323 249.56 250.812C249.56 250.282 247.673 250.167 245.16 250.544L240.76 251.204L234.557 238.856C231.146 232.064 227.958 226.086 227.472 225.572C226.987 225.058 229.291 232.708 232.593 242.572ZM669.549 238.03L663.062 251.126L658.311 250.473C655.698 250.113 653.589 250.199 653.623 250.663C653.658 251.127 654.903 253.982 656.389 257.007C658.509 261.323 659.652 262.572 661.695 262.811C663.509 263.023 664.461 262.568 664.834 261.311C665.129 260.319 667.901 252.121 670.994 243.094C674.087 234.067 676.487 226.288 676.327 225.807C676.166 225.326 673.116 230.826 669.549 238.03ZM110.96 243.407C108.22 246.147 107.56 247.588 107.56 250.83C107.56 262.391 123.052 265.919 128.003 255.486C131.516 248.082 126.154 240.02 117.71 240.011C115.231 240.008 113.476 240.891 110.96 243.407ZM123.487 246.642C126.209 250.102 126.104 252.554 123.105 255.552C120.107 258.551 117.655 258.656 114.195 255.934C110.974 253.401 110.722 249.284 113.599 246.196C116.458 243.127 120.88 243.327 123.487 246.642ZM428.06 249.111C389.228 252.013 351.363 262.536 315.001 280.529C282.467 296.628 258.101 314.228 232.06 340.439C191.63 381.131 164.56 429.262 151.117 484.353C129.699 572.128 147.485 665.26 199.561 738.009C246.846 804.064 317.579 849.087 396.56 863.402C415.907 866.908 429.147 868.007 452.06 868.007C475.01 868.007 488.259 866.905 507.56 863.391C558.703 854.078 605.232 832.887 646.156 800.267C659.01 790.021 681.362 768.076 691.4 755.847C718.027 723.409 738.485 684.699 750.071 644.831C762.292 602.776 765.445 555.959 758.98 512.507C744.706 416.558 685.841 332.536 600.051 285.658C548.485 257.481 488.01 244.63 428.06 249.111ZM221.655 263.221C223.357 266.451 231.632 278.007 232.243 278.007C232.523 278.007 234.084 277.058 235.712 275.898C238.593 273.847 238.625 273.736 236.867 271.788C233.734 268.318 227.872 264.036 224.094 262.457L220.451 260.935L221.655 263.221ZM478.56 262.061C596.873 272.829 695.372 350.673 734.426 464.274C750.735 511.713 753.934 570.308 742.981 620.967C730.904 676.828 703.895 726.515 663.56 767.075C647.941 782.781 640.153 789.484 624.56 800.645C559.693 847.072 478.171 865.24 399.06 850.898C298.187 832.612 213.521 763.198 175.699 667.775C144.521 589.114 148.433 500.77 186.448 425.024C232.305 333.652 322.445 271.86 424.06 262.138C437.115 260.889 465.251 260.849 478.56 262.061ZM675.506 264.873C673.061 266.449 669.792 269.092 668.243 270.747L665.426 273.756L668.128 275.882C669.614 277.051 671.136 278.007 671.511 278.007C672.226 278.007 682.56 263.581 682.56 262.583C682.56 261.252 679.664 262.192 675.506 264.873ZM170.56 267.259C170.56 267.398 169.66 272.234 168.56 278.007C167.46 283.78 166.56 289.16 166.56 289.963C166.56 290.816 168.343 289.674 170.848 287.215C173.206 284.901 175.591 283.007 176.148 283.007C176.705 283.007 182.313 287.274 188.61 292.49C194.908 297.706 200.436 301.981 200.895 301.99C201.355 301.999 200.193 299.87 198.313 297.257C196.434 294.644 191.384 287.396 187.092 281.149C181.293 272.71 178.431 269.433 175.956 268.399C172.906 267.125 170.56 266.629 170.56 267.259ZM727.604 268.759C725.073 270.039 721.28 274.656 713.437 286.007C707.546 294.532 702.889 301.669 703.087 301.867C703.285 302.066 708.671 297.903 715.055 292.617C721.439 287.332 727.185 283.007 727.823 283.007C728.462 283.007 730.96 284.92 733.375 287.257L737.766 291.507L737.199 288.507C736.887 286.857 735.894 281.344 734.992 276.257C734.046 270.922 732.867 267.008 732.206 267.009C731.576 267.009 729.505 267.797 727.604 268.759ZM780.917 268.999C777.76 270.273 775.56 273.972 775.56 278.007C775.56 282.595 777.698 285.567 782.025 286.995C792.299 290.386 799.457 275.573 790.256 269.963C786.833 267.876 784.337 267.618 780.917 268.999ZM205.251 270.712C204.837 271.374 203.985 275.434 203.359 279.733C202.347 286.674 202.428 288.093 204.077 292.412L205.934 297.275L208.242 294.391C209.512 292.805 210.52 290.607 210.483 289.507C210.34 285.244 205.973 269.557 205.251 270.712ZM695.666 278.786C693.103 289.7 693.086 290.768 695.412 294.296C697.549 297.537 698.554 296.819 700.549 290.629C701.55 287.524 701.549 285.233 700.541 279.129C699.849 274.937 698.943 271.127 698.527 270.663C698.111 270.198 696.824 273.854 695.666 278.786ZM788.337 273.564C794.115 277.611 787.83 286.38 781.925 282.511C778.792 280.458 778.716 275.711 781.783 273.564C783.005 272.708 784.48 272.007 785.06 272.007C785.64 272.007 787.115 272.708 788.337 273.564ZM140.56 282.718C140.56 286.74 145.021 296.884 149.368 302.749C156.907 312.918 172.2 327.007 175.699 327.007C177.511 327.007 183.48 319.195 186.943 312.29C188.382 309.421 189.56 306.849 189.56 306.574C189.56 306.299 185.887 307.623 181.399 309.516L173.237 312.958L168.898 311.038C163.315 308.569 154.902 300.584 147.83 291.044C140.931 281.738 140.56 281.313 140.56 282.718ZM429.56 282.641C392.546 286.057 358.723 295.707 326.668 311.998C278.778 336.336 238.745 374.51 212.058 421.286C165.927 502.143 163.671 600.648 206.053 683.507C247.208 763.967 323.754 818.494 414.06 831.678C431.156 834.174 473.304 834.174 490.06 831.678C569.97 819.774 638.334 776.441 682.8 709.507C692.603 694.75 707.076 665.58 712.543 649.558C732.541 590.953 733.183 529.395 714.395 472.007C693.932 409.506 649.568 354.11 593.323 320.826C561.521 302.007 526.026 289.456 490.557 284.489C479.497 282.94 439.462 281.727 429.56 282.641ZM758.206 288.006C752.22 297.298 742.191 307.551 736.244 310.461L731.021 313.016L722.79 309.545C718.061 307.55 714.56 306.554 714.56 307.203C714.56 310.634 726.061 327.007 728.471 327.007C731.132 327.007 744.69 314.886 751.506 306.414C758.383 297.865 759.863 295.318 761.511 289.194C762.149 286.823 762.919 284.235 763.222 283.444C764.559 279.962 761.734 282.531 758.206 288.006ZM491.969 297.435C566.541 309.643 630.368 350.69 671.843 413.11C693.311 445.421 706.52 480.082 712.729 520.397C715.596 539.016 715.826 574.325 713.198 592.507C704.579 652.134 679.393 702.952 637.932 744.367C598.002 784.254 548.057 809.539 491.06 818.723C477.176 820.96 428.966 821.263 415.56 819.197C357.267 810.216 306.713 784.96 266.055 744.507C224.36 703.022 198.848 651.244 190.421 591.007C188.394 576.517 188.656 535.33 190.863 521.507C198.838 471.563 216.554 430.803 246.867 392.656C278.399 352.976 325.13 321.319 374.56 306.156C387.642 302.143 406.194 298.121 419.181 296.482C434.029 294.609 478.243 295.188 491.969 297.435ZM797.724 329.259C817.431 350.5 843.444 381.456 842.434 382.466C842.229 382.672 839.135 381.042 835.56 378.845C829.118 374.886 817.151 369.007 815.533 369.007C814.397 369.007 803.733 402.739 799.425 419.962L798.06 425.416L789.846 427.009C785.328 427.886 781.354 428.88 781.015 429.219C780.507 429.726 781.912 433.441 783.157 434.885C783.336 435.093 787.067 433.818 791.448 432.052L799.414 428.841L802.064 422.174C812.564 395.757 819.974 378.958 820.945 379.37C821.558 379.631 829.204 383.049 837.935 386.967C846.667 390.884 854.05 393.85 854.343 393.557C855.174 392.726 842.693 374.535 834.069 364.007C825.911 354.048 793.152 320.982 787.403 316.904C785.564 315.6 790.209 321.16 797.724 329.259ZM876.483 317.93C874.198 320.215 873.56 321.753 873.56 324.976C873.56 333.909 883.625 337.602 889.81 330.938C894.127 326.287 893.089 319.366 887.653 316.555C883.13 314.216 879.785 314.628 876.483 317.93ZM113.845 319.212C104.861 326.821 80.6282 351.402 71.9642 361.695C61.7672 373.81 48.0772 393.328 49.4492 393.796C49.9152 393.956 57.8342 390.671 67.0472 386.498C76.2592 382.325 83.9252 379.045 84.0812 379.209C84.2382 379.373 88.8752 390.532 94.3882 404.007L104.41 428.507L111.735 431.686C115.764 433.435 119.55 434.897 120.149 434.936C120.749 434.975 121.784 433.81 122.451 432.348C123.408 430.246 123.4 429.526 122.412 428.916C121.128 428.122 110.146 426.007 107.308 426.007C106.315 426.007 105.476 424.788 105.071 422.757C102.237 408.542 89.5732 369.007 87.8532 369.007C86.0252 369.007 75.5012 374.382 67.7772 379.26C64.3062 381.452 61.2762 383.057 61.0452 382.825C60.0152 381.795 87.5632 349.216 106.763 328.757C113.344 321.745 118.482 316.007 118.179 316.007C117.877 316.007 115.926 317.449 113.845 319.212ZM886.337 320.564C891.694 324.316 886.387 332.59 880.497 329.669C877.431 328.149 876.724 323.588 879.14 320.919C881.238 318.6 883.383 318.495 886.337 320.564ZM158.619 331.788C161.529 334.934 164.275 337.929 164.722 338.444C165.647 339.511 170.774 335.15 170.293 333.706C170.125 333.202 166.239 331.278 161.658 329.43L153.329 326.07L158.619 331.788ZM742.06 329.406C737.66 331.208 734.06 333.093 734.06 333.595C734.06 335.106 737.341 339.253 738.231 338.867C739.157 338.465 751.096 325.972 750.462 326.068C750.241 326.102 746.46 327.604 742.06 329.406ZM757.862 335.937C753.829 344.767 753.769 345.049 755.722 346.094C756.827 346.685 757.959 346.941 758.238 346.663C758.993 345.907 762.679 328.864 762.32 327.786C762.149 327.275 760.143 330.943 757.862 335.937ZM141.687 329.507C141.604 333.379 145.271 346.506 146.409 346.407C149.123 346.171 149.558 345.941 149.53 344.757C149.476 342.511 141.731 327.452 141.687 329.507ZM130.026 345.249C126.679 350.77 124.108 358.007 125.494 358.007C125.931 358.007 127.812 356.664 129.674 355.023C131.537 353.382 133.442 352.032 133.908 352.023C134.374 352.014 138.806 354.513 143.757 357.575C148.707 360.637 152.941 362.959 153.165 362.735C153.741 362.16 141.549 348.017 137.647 344.734C133.482 341.229 132.419 341.301 130.026 345.249ZM760.8 350.585C756.258 355.309 752.061 360.07 751.475 361.166C750.488 363.011 750.581 363.069 752.734 361.954C754.013 361.292 758.248 358.783 762.144 356.379C766.04 353.974 769.621 352.007 770.102 352.007C770.582 352.007 772.682 353.673 774.768 355.71C778.526 359.38 778.56 359.39 778.56 356.87C778.56 353.08 772.731 342.008 770.732 342.001C769.812 341.998 765.343 345.861 760.8 350.585ZM106.405 366.757C110.778 372.827 121.12 380.883 132.983 387.46L139.906 391.298L141.676 389.112C143.763 386.534 147.109 377.928 148.121 372.532L148.836 368.722L142.185 374.364C138.526 377.468 134.563 380.007 133.377 380.007C130.822 380.007 122.784 375.618 112.991 368.875C109.103 366.197 105.584 364.007 105.173 364.007C104.761 364.007 105.315 365.245 106.405 366.757ZM787.687 370.97C771.132 382.005 770.413 382.085 761.262 373.929C758.076 371.089 755.251 368.983 754.984 369.249C754.167 370.066 760.227 386.982 762.064 389.011C763.755 390.88 763.916 390.856 769.925 387.83C777.056 384.24 783.212 380.174 789.618 374.824C794.132 371.054 799.083 365.196 798.363 364.476C798.157 364.271 793.353 367.193 787.687 370.97ZM31.0152 377.462C29.6652 378.812 28.5602 381.082 28.5602 382.507C28.5602 385.775 32.7032 390.007 35.9042 390.007C39.2852 390.007 42.4382 387.106 43.1692 383.323C43.6652 380.755 43.2872 379.643 41.2172 377.573C37.9782 374.334 34.1832 374.293 31.0152 377.462ZM38.9362 381.238C39.7752 382.57 39.6442 383.351 38.3712 384.625C35.3752 387.621 30.9052 383.706 33.6062 380.451C35.1612 378.578 37.4762 378.92 38.9362 381.238ZM123.444 391.757C126.195 394.92 129.313 398.609 130.374 399.957L132.302 402.407L133.931 399.256C134.827 397.524 135.56 395.639 135.56 395.068C135.56 394.176 120.651 386.007 119.023 386.007C118.704 386.007 120.693 388.594 123.444 391.757ZM778.06 389.204C767.19 394.639 767.341 394.48 769.266 398.516C770.181 400.436 771.212 402.007 771.557 402.007C771.902 402.007 773.264 400.545 774.584 398.757C775.905 396.969 778.755 393.585 780.919 391.237C783.082 388.888 784.674 386.795 784.456 386.585C784.238 386.376 781.36 387.555 778.06 389.204ZM121.097 405.507C125.333 411.443 125.677 412.355 125.06 416.007C124.688 418.207 124.641 420.007 124.955 420.007C125.487 420.007 130.56 410.612 130.56 409.626C130.56 408.995 117.917 399.007 117.118 399.007C116.755 399.007 118.546 401.932 121.097 405.507ZM779.691 404.057C776.319 406.875 773.574 409.704 773.591 410.344C773.608 410.983 774.731 413.307 776.086 415.507L778.55 419.507L778.555 415.55C778.559 412.539 779.541 410.195 782.666 405.74C784.925 402.52 786.558 399.672 786.297 399.411C786.035 399.149 783.062 401.24 779.691 404.057ZM113.591 406.108C113.533 409.098 115.75 414.007 117.158 414.007C119.099 414.007 118.925 413.117 116.086 408.507C114.731 406.307 113.608 405.227 113.591 406.108ZM787.684 408.521C785.22 412.697 785.033 414.007 786.902 414.007C788.185 414.007 791.178 406.291 790.253 405.367C790.008 405.122 788.852 406.542 787.684 408.521ZM73.8642 422.904C61.6042 430.607 65.9272 448.473 80.3522 449.714C94.2942 450.912 100.769 433.999 90.1632 424.09C86.5362 420.702 78.3202 420.104 73.8642 422.904ZM8.56024 423.49C8.56024 423.756 7.21023 428.939 5.56024 435.007C3.91024 441.075 2.56024 448.08 2.56024 450.573C2.56024 453.066 1.95924 456.321 1.22523 457.807C0.348235 459.581 -0.0687646 463.983 0.00923538 470.644C0.117235 479.807 0.416235 481.344 3.12224 486.636C4.76924 489.856 6.90824 492.643 7.87524 492.829C8.84324 493.015 11.8962 491.717 14.6602 489.943L19.6872 486.717L23.8732 489.656L28.0602 492.594L30.2012 508.051C36.3652 552.547 38.6152 571.942 39.0772 584.566C39.7132 601.931 40.1512 607.291 42.2272 623.145L43.8822 635.782L41.7212 638.529C39.0942 641.869 38.7652 649.069 41.1312 651.436C43.0602 653.364 48.5242 653.485 51.0282 651.654C52.7722 650.379 52.8412 648.924 52.2252 626.404C51.8652 613.261 51.0722 599.357 50.4632 595.507C49.2342 587.748 48.5982 528.007 49.7432 528.007C50.1412 528.007 51.6332 528.539 53.0592 529.189C55.5232 530.311 56.0722 529.954 64.0022 522.065C72.0402 514.068 74.5602 512.859 74.5602 516.998C74.5602 524.061 85.7032 559.35 91.7032 571.289C93.8542 575.568 96.4832 581.275 97.5452 583.97C101.046 592.851 107.042 636.983 105.602 643.268C105.194 645.049 103.893 648.3 102.71 650.492C99.8652 655.766 99.8932 660.426 102.783 662.45C106.106 664.778 111.136 664.451 113.003 661.784C114.742 659.303 115.083 651.853 113.586 649.056C112.935 647.839 113.054 644.636 113.947 639.372C114.681 635.046 115.07 628.522 114.812 624.873C114.513 620.663 114.875 616.418 115.802 613.258C117.917 606.041 116.665 598.19 112.575 593.025C110.385 590.26 109.611 588.422 110.052 587.032C110.419 585.875 110.027 584.084 109.124 582.795C108.264 581.567 107.56 579.072 107.56 577.251C107.56 575.43 106.435 571.72 105.06 569.007C102.619 564.19 102.56 563.558 102.575 542.29C102.584 530.309 103.008 519.847 103.518 519.041C105.389 516.082 106.776 523.522 108.626 546.451C109.644 559.07 110.994 572.601 111.627 576.52C112.259 580.439 112.605 584.515 112.396 585.577C112.165 586.744 112.775 587.902 113.939 588.507C115.903 589.528 116.384 590.246 118.623 595.507C119.635 597.885 119.986 598.132 120.315 596.698C120.7 595.019 120.904 595.002 123.145 596.471C127.246 599.158 126.061 595.92 121.06 590.774C118.376 588.012 116.554 585.209 116.546 583.826C116.539 582.55 116.261 580.494 115.93 579.257C114.911 575.455 116.893 576.799 120.394 582.284C124.645 588.944 123.582 585.135 117.929 573.447L113.546 564.387L111.978 544.947C111.115 534.256 110.647 524.32 110.938 522.869C111.235 521.38 109.789 513.802 107.623 505.495L103.781 490.761L93.0432 479.99L82.3042 469.218L75.1822 468.529L68.0602 467.841L59.1522 459.549L50.2442 451.257L41.7292 449.584C37.0462 448.664 32.8422 447.681 32.3872 447.4C31.9322 447.119 31.5602 445.566 31.5602 443.948C31.5602 441.874 31.0442 440.96 29.8102 440.849C26.5742 440.556 24.3432 441.016 20.7592 442.717C17.9242 444.062 17.1042 444.139 16.7562 443.094C16.5152 442.371 15.4722 441.056 14.4392 440.171C13.4052 439.286 12.5602 437.335 12.5602 435.834C12.5602 431.589 10.4972 423.007 9.47723 423.007C8.97323 423.007 8.56024 423.224 8.56024 423.49ZM892.646 426.637C892.055 428.766 891.569 432.404 891.566 434.722C891.561 437.91 891.073 439.197 889.56 440.007C888.46 440.596 887.56 441.737 887.56 442.542C887.56 444.123 885.55 444.502 884.01 443.211C883.488 442.773 881.38 441.847 879.326 441.152C874.631 439.564 872.158 440.766 872.101 444.664C872.061 447.446 871.855 447.549 862.566 449.459L853.072 451.411L844.551 459.625L836.029 467.84L828.911 468.541L821.793 469.243L810.8 480.375L799.807 491.507L796.097 505.913C794.056 513.836 792.616 521.486 792.897 522.913C793.178 524.34 792.723 534.282 791.886 545.007C790.579 561.767 790.033 565.139 788.003 569.007C784.611 575.467 780.467 585.247 780.926 585.707C781.142 585.922 782.61 584.054 784.189 581.555C787.096 576.954 789.104 575.554 788.202 578.757C787.931 579.719 787.393 582.082 787.007 584.007C786.553 586.273 784.983 588.643 782.556 590.729C780.495 592.501 778.569 594.863 778.278 595.979C777.653 598.366 778.797 598.631 780.56 596.507C782.311 594.397 783.36 594.64 783.793 597.257C784.088 599.04 784.451 598.61 785.541 595.189C786.298 592.814 787.962 590.049 789.239 589.045C790.971 587.683 791.56 586.211 791.56 583.25C791.56 581.066 792.016 576.874 792.574 573.934C793.131 570.994 794.273 559.12 795.11 547.548C796.585 527.163 797.71 519.65 799.451 518.574C800.822 517.727 801.543 527.396 801.534 546.507L801.526 564.507L798.609 569.462C796.525 573.002 795.851 575.213 796.249 577.201C796.6 578.955 796.174 580.947 795.098 582.59C794.1 584.112 793.627 586.137 793.959 587.461C794.347 589.005 793.863 590.328 792.441 591.614C791.294 592.653 789.789 594.628 789.097 596.005C787.2 599.78 786.425 608.895 787.789 611.383C789.011 613.61 789.944 633.449 789.621 650.358C789.467 658.447 789.741 660.55 791.152 662.108C793.495 664.698 798.971 664.596 801.654 661.913C804.178 659.389 803.64 654.523 800.226 649.007C797.347 644.356 797.513 635.481 800.936 610.964C803.754 590.782 805.003 586.316 811.832 572.007C817.628 559.863 822.441 545.914 826.497 529.507C828.264 522.357 829.913 515.876 830.162 515.106C830.459 514.183 833.504 516.526 839.085 521.973C847.493 530.181 848.083 530.467 852.667 528.568C855.805 527.269 855.785 572.688 852.634 603.507C852.072 609.007 851.6 621.929 851.586 632.222C851.562 649.716 851.686 651.004 853.494 651.972C856.354 653.502 861.195 653.229 862.989 651.436C865.317 649.108 864.943 643.043 862.223 638.989L859.886 635.507L861.685 623.507C862.675 616.907 863.76 603.857 864.096 594.507C864.708 577.486 865.574 569.29 871.953 520.19C875.593 492.171 875.805 491.483 881.766 488.4C884.274 487.103 884.831 487.223 889.214 490.003C891.82 491.655 894.719 493.007 895.657 493.007C897.736 493.007 900.969 487.737 902.919 481.171C904.595 475.525 904.321 460.297 902.481 456.858C901.834 455.651 901.196 452.153 901.062 449.085C900.813 443.386 896.214 425.261 894.609 423.656C894.091 423.138 893.272 424.381 892.646 426.637ZM86.4152 426.432C92.1262 429.385 93.2162 437.122 88.6422 442.241C86.1372 445.045 85.0642 445.507 81.0602 445.507C77.0562 445.507 75.9832 445.045 73.4782 442.241C69.3052 437.571 69.4682 432.899 73.9602 428.407C77.7482 424.619 81.6982 423.993 86.4152 426.432ZM897.472 448.145C897.893 452.76 898.791 457.57 899.468 458.835C900.538 460.835 900.361 461.579 898.111 464.53C895.011 468.593 891.205 469.616 880.56 469.247C869.705 468.871 866.127 467.898 865.74 465.22C865.227 461.666 862.73 462.664 861.596 466.875C860.169 472.171 849.18 486.007 846.4 486.007C845.234 486.007 843.755 486.726 843.112 487.605C841.382 489.971 833.935 487.638 833.143 484.481C832.199 480.722 829.704 480.649 827.539 484.318C826.474 486.123 824.251 488.599 822.597 489.821C820.051 491.704 819.286 491.853 817.592 490.795C815.955 489.772 815.327 489.814 814.127 491.027C812.951 492.215 812.823 493.888 813.479 499.507C813.986 503.848 814.347 505.096 814.429 502.792C814.521 500.189 815.159 498.757 816.56 498.007C817.66 497.418 818.56 496.331 818.56 495.591C818.56 494.85 820.176 493.012 822.151 491.505C825.405 489.024 825.978 488.893 828.252 490.109C830.477 491.3 830.92 491.235 832.165 489.533C833.545 487.645 833.648 487.647 838.486 489.691L843.403 491.769L844.023 489.3C844.52 487.318 844.919 487.06 846.043 487.993C846.814 488.633 847.623 490.585 847.842 492.331C848.216 495.319 848.249 495.282 848.4 491.698C848.525 488.712 849.875 486.162 854.645 479.896C861.984 470.255 863.298 470.462 863.819 481.345L864.163 488.507L864.361 480.448C864.637 469.279 865.107 468.82 874.9 470.154C880.412 470.905 884.841 470.91 889.821 470.171C899.985 468.662 902.648 470.643 900.426 478.059C899.529 481.054 898.713 481.968 896.728 482.204C894.283 482.495 894.253 482.578 895.97 484.285C897.408 485.714 897.519 486.352 896.537 487.535C894.909 489.497 894.452 489.423 890.155 486.507C885.224 483.16 882.705 483.353 877.287 487.489C872.336 491.27 872.181 491.675 870.568 505.007C870.002 509.682 868.19 523.632 866.541 536.007C862.651 565.207 861.827 573.573 860.582 596.507C860.015 606.957 858.848 620.193 857.989 625.921C856.48 635.975 856.493 636.425 858.367 638.96C862.753 644.892 861.641 651.12 856.489 649.484C854.324 648.797 854.322 648.766 854.964 626.152C855.317 613.697 856.087 600.357 856.675 596.507C857.263 592.657 857.868 578.257 858.019 564.507L858.294 539.507L860.582 539.485C863.889 539.452 865.295 536.749 863.626 533.631C861.774 530.17 863.054 502.709 865.221 499.401C866.486 497.472 866.501 496.772 865.326 494.531L863.955 491.913L862.07 493.996C860.445 495.791 860.346 496.526 861.353 499.311C862.909 503.614 861.779 531.362 859.902 534.96C858.67 537.32 858.571 537.029 858.557 531.007C858.542 524.769 854.179 498.288 852.969 497.088C852.647 496.768 852.757 500.332 853.213 505.007C853.669 509.682 854.046 515.968 854.051 518.977C854.059 524.058 853.863 524.517 851.283 525.429C848.668 526.355 847.997 525.905 839.763 517.709C834.955 512.923 830.353 509.007 829.536 509.007C828.45 509.007 827.055 513.126 824.33 524.378C819.497 544.339 815.678 555.657 808.595 571.007C805.422 577.882 802.3 585.082 801.656 587.007C800.358 590.883 796.038 620.122 794.965 632.283C794.588 636.56 794.005 639.787 793.67 639.454C793.054 638.842 791.541 617.095 791.265 604.892C791.126 598.762 791.352 598.008 794.35 594.594C796.522 592.12 797.518 590.022 797.381 588.208C797.27 586.723 797.96 584.317 798.915 582.863C800.019 581.182 800.424 579.313 800.028 577.734C799.609 576.068 800.254 573.572 801.982 570.161C804.442 565.306 804.56 564.321 804.56 548.617C804.56 532.372 804.593 532.121 807.149 529.084C808.573 527.392 810.508 526.007 811.449 526.007C814.994 526.007 816.853 521.7 814.377 519.224C813.726 518.573 813.204 515.671 813.217 512.774C813.239 507.745 813.221 507.71 812.836 512.007C812.592 514.735 811.62 517.374 810.367 518.709C809.103 520.057 808.506 521.692 808.828 522.924C809.308 524.758 806.769 529.007 805.193 529.007C804.845 529.007 804.507 526.869 804.442 524.257C804.377 521.645 804.023 518.157 803.656 516.507C803.094 513.975 802.552 513.538 800.187 513.707C798.375 513.837 797.534 513.483 797.809 512.707C798.042 512.047 799.316 507.232 800.64 502.007L803.048 492.507L813.16 482.257L823.272 472.007H828.982C832.122 472.007 835.674 471.507 836.876 470.896C838.077 470.285 842.511 466.394 846.728 462.25L854.397 454.716L864.228 452.598L874.06 450.479L874.373 447.243C874.767 443.179 877.53 442.882 880.447 446.591C881.565 448.012 882.897 448.917 883.407 448.602C883.916 448.287 884.889 448.699 885.569 449.518C887.338 451.649 888.253 451.367 888.981 448.466C889.849 445.006 891.093 446.086 893.06 452.007C894.781 457.19 897.348 460.316 896.26 455.906C895.935 454.587 895.364 449.907 894.991 445.507C894.466 439.314 894.583 437.761 895.51 438.631C896.169 439.249 897.052 443.53 897.472 448.145ZM9.22624 443.257C7.43424 456.828 7.35723 458.251 8.44923 457.576C9.06023 457.198 9.56024 456.256 9.56024 455.482C9.56024 453.624 12.7372 447.007 13.6292 447.007C14.0132 447.007 14.5622 447.907 14.8502 449.007C15.3802 451.036 17.5602 451.841 17.5602 450.007C17.5602 449.457 18.6852 449.007 20.0602 449.007C21.4352 449.007 22.5602 448.589 22.5602 448.078C22.5602 446.447 25.6352 444.007 27.6902 444.007C28.8322 444.007 29.4002 444.457 29.0252 445.064C28.6662 445.645 28.6262 447.135 28.9382 448.375C29.4332 450.349 30.7212 450.857 39.2822 452.459L49.0602 454.289L57.7582 462.778L66.4552 471.267L73.4022 471.764L80.3482 472.261L90.5252 482.472L100.702 492.683L103.551 503.304L106.4 513.925L103.622 513.369C100.294 512.704 99.5952 514.412 99.5742 523.257C99.5662 526.42 99.1802 529.007 98.7152 529.007C97.0072 529.007 94.7722 525.429 94.7912 522.724C94.8012 521.193 94.0792 519.133 93.1852 518.145C92.2912 517.158 91.4972 514.585 91.4192 512.428C91.2812 508.572 91.2652 508.59 90.4752 513.507C90.0332 516.257 89.3712 519.964 89.0042 521.745C88.4622 524.373 88.6872 525.098 90.1982 525.586C94.2072 526.883 96.3872 528.316 97.4682 530.367C98.1322 531.628 98.7222 539.334 98.9022 549.119C99.1962 565.041 99.3192 565.921 101.876 570.284C103.883 573.708 104.39 575.608 103.922 577.949C103.477 580.174 103.799 581.614 105.053 582.999C106.182 584.247 106.625 585.884 106.298 587.596C105.91 589.627 106.576 591.126 109.115 593.936C113.066 598.31 114.514 605.586 112.592 611.411C111.933 613.405 111.415 619.418 111.439 624.772C111.463 630.126 111.125 636.082 110.688 638.007C109.972 641.166 109.821 640.776 109.145 634.007C108.733 629.882 107.78 622.232 107.026 617.007C106.272 611.782 105.181 603.647 104.601 598.93C103.501 589.977 101.596 584.411 94.6002 569.702C89.1152 558.169 82.4052 537.627 78.9332 521.736C76.8292 512.107 75.7752 509.009 74.6062 509.015C73.7562 509.019 69.2352 512.832 64.5602 517.487C59.8852 522.143 55.3732 525.964 54.5332 525.979C53.6922 525.995 52.0832 525.361 50.9562 524.572C49.0932 523.267 48.9732 522.516 49.6442 516.322C51.1742 502.175 51.4202 497.749 50.6272 498.615C49.2282 500.141 45.5602 523.241 45.5602 530.527C45.5602 537.117 45.4842 537.343 43.9842 535.201C41.8072 532.093 40.6682 504.576 42.5302 500.08C43.6062 497.483 43.5522 496.644 42.1792 494.548C40.3252 491.719 39.8792 475.584 41.5832 473.007C42.7052 471.311 43.1762 471.791 51.0782 482.686C54.3432 487.187 55.6032 489.903 55.7202 492.686L55.8802 496.507L56.2592 493.007C56.8632 487.414 57.3362 486.576 59.0722 488.017C59.8902 488.696 60.5602 490.183 60.5602 491.321C60.5602 493.128 60.7182 493.196 61.8102 491.853C62.4982 491.007 64.5342 489.737 66.3362 489.029C69.2092 487.901 69.8542 487.964 71.5952 489.539C73.2912 491.073 73.9262 491.149 75.9612 490.06C78.0402 488.948 78.7362 489.078 81.4512 491.084C83.1612 492.349 84.5602 493.748 84.5602 494.195C84.5602 494.642 85.4882 495.935 86.6232 497.07C87.7572 498.204 89.0692 501.017 89.5382 503.32L90.3902 507.507L90.3362 502.507C90.3072 499.757 90.5922 496.607 90.9692 495.507C91.3792 494.313 91.0572 492.701 90.1692 491.507C88.8742 489.765 88.4052 489.676 86.5412 490.815C84.6632 491.963 83.9892 491.809 81.0282 489.55C79.1732 488.135 77.0652 485.747 76.3442 484.242C74.6732 480.756 72.4492 480.751 70.7822 484.229C69.0312 487.882 61.8522 490.281 60.4062 487.697C59.8862 486.767 58.4702 486.005 57.2602 486.003C55.6962 486 53.3722 483.785 49.2152 478.336C45.9992 474.121 43.2252 470.186 43.0482 469.59C42.8712 468.994 42.4562 467.269 42.1242 465.757C41.7932 464.245 40.8552 463.007 40.0412 463.007C38.1152 463.007 38.1282 464.627 40.0602 465.369C41.8942 466.072 42.1392 471.364 40.3102 470.762C39.6232 470.536 38.9072 469.3 38.7192 468.017C38.5312 466.729 38.0792 466.168 37.7102 466.764C36.7402 468.334 21.2722 470.229 15.7632 469.453C10.3242 468.686 7.25223 466.993 4.96323 463.499C3.46223 461.208 3.46324 460.706 4.98324 456.907C5.88824 454.646 6.54224 451.155 6.43624 449.151C6.18824 444.444 7.43024 439.007 8.75324 439.007C9.39124 439.007 9.57224 440.635 9.22624 443.257ZM788.544 440.842C784.59 442.924 781.564 448.024 781.562 452.609C781.56 456.31 785.148 461.986 788.59 463.728C796.694 467.828 807.548 461.406 807.555 452.507C807.56 445.741 801.077 439.007 794.56 439.007C793.168 439.007 790.461 439.833 788.544 440.842ZM799.71 444.087C802.362 445.507 804.514 450.798 803.85 454.268C803.164 457.858 798.184 462.007 794.56 462.007C790.911 462.007 785.893 457.802 785.07 454.053C784.353 450.79 786.512 445.717 789.31 444.087C791.627 442.737 797.188 442.738 799.71 444.087ZM18.8102 458.257C19.4402 460.149 22.5602 460.418 22.5602 458.58C22.5602 457.653 21.7052 457.007 20.4772 457.007C19.2552 457.007 18.5652 457.524 18.8102 458.257ZM25.0402 458.039C24.6522 458.667 24.8052 459.652 25.3802 460.227C26.7242 461.571 29.8572 460.399 29.3102 458.756C28.7542 457.085 25.9242 456.609 25.0402 458.039ZM874.748 458.746C875.25 461.352 878.56 461.643 878.56 459.08C878.56 457.649 877.918 457.007 876.487 457.007C875.056 457.007 874.517 457.546 874.748 458.746ZM881.56 458.507C881.56 459.537 882.215 460.027 883.31 459.817C885.418 459.411 885.285 457.636 883.113 457.184C882.207 456.995 881.56 457.546 881.56 458.507ZM113.948 461.987C112.787 462.456 110.874 464.064 109.698 465.559C103.194 473.827 113.102 485.398 122.517 480.529C133.829 474.679 125.758 457.215 113.948 461.987ZM121.337 466.564C125.966 469.805 123.099 478.007 117.337 478.007C114.759 478.007 111.56 474.408 111.56 471.507C111.56 468.606 114.759 465.007 117.337 465.007C118.315 465.007 120.115 465.708 121.337 466.564ZM864.814 466.257C865.393 467.978 864.519 471.007 863.443 471.007C862.958 471.007 862.56 469.657 862.56 468.007C862.56 465.015 864.016 463.885 864.814 466.257ZM21.0602 470.507C24.3602 470.507 29.4272 470.153 32.3212 469.721C37.3802 468.965 37.6202 469.035 38.5712 471.536C39.9112 475.061 39.8282 492.325 38.4562 495.336C37.5962 497.224 37.6812 498.284 38.8442 500.133C40.8072 503.257 41.9452 531.418 40.2202 534.181C38.6702 536.662 40.5612 539.616 43.4302 539.194C45.9652 538.822 45.7722 536.964 45.6452 560.507C45.5882 570.957 45.9972 583.557 46.5542 588.507C47.1102 593.457 47.9892 608.757 48.5062 622.507C49.3142 643.981 49.2412 647.716 47.9852 648.99C46.8782 650.113 46.1022 650.209 44.7912 649.388C42.0692 647.682 42.1632 644.187 45.0432 640.032C47.5452 636.421 47.6312 635.906 46.6472 630.362C44.8042 619.976 42.5602 595.334 42.5602 585.474C42.5602 580.199 41.1882 565.449 39.5122 552.695C37.8352 539.942 35.3492 520.957 33.9872 510.507L31.5112 491.507L27.7852 488.294C22.4562 483.698 18.6652 483.184 13.9152 486.412C11.8142 487.839 9.57324 489.007 8.93524 489.007C7.40324 489.007 6.14224 485.646 7.50324 485.193C9.35824 484.574 8.63624 482.007 6.60724 482.007C5.20224 482.007 4.36224 480.955 3.61324 478.257C2.16124 473.029 2.26523 472.327 4.75523 470.583C6.36423 469.456 8.03223 469.241 11.0052 469.776C13.2352 470.178 17.7602 470.507 21.0602 470.507ZM75.3762 486.334C75.6032 488.248 75.2392 489.007 74.0952 489.007C72.2012 489.007 71.1002 486.649 71.9542 484.424C72.8572 482.069 75.0142 483.273 75.3762 486.334ZM831.949 484.579C832.281 485.444 832.045 487.1 831.425 488.26C830.346 490.275 830.238 490.287 828.967 488.549C828.024 487.259 827.927 486.189 828.634 484.869C829.852 482.593 831.144 482.481 831.949 484.579ZM90.0042 492.917C90.8672 494.313 89.5162 497.007 87.9532 497.007C87.1342 497.007 86.5602 495.977 86.5602 494.507C86.5602 492.051 88.8232 491.006 90.0042 492.917ZM817.38 494.257C817.204 495.495 816.385 496.507 815.56 496.507C814.735 496.507 813.916 495.495 813.74 494.257C813.495 492.525 813.914 492.007 815.56 492.007C817.206 492.007 817.625 492.525 817.38 494.257ZM60.5602 495.674C60.5602 498.448 59.5172 499.215 57.7392 497.748C56.5082 496.732 56.3252 496.779 56.7302 498.007C57.6072 500.663 60.4352 500.355 61.1442 497.527C61.5052 496.09 61.5212 494.635 61.1802 494.294C60.8392 493.953 60.5602 494.574 60.5602 495.674ZM42.2242 496.574C43.0122 498.628 41.4302 500.163 39.6562 499.066C38.1452 498.132 38.8412 495.007 40.5602 495.007C41.1452 495.007 41.8932 495.712 42.2242 496.574ZM75.6242 496.43C74.0722 498.3 75.0572 500.007 77.6892 500.007C79.1842 500.007 79.6172 499.45 79.3802 497.835C78.9802 495.122 77.2482 494.473 75.6242 496.43ZM824.624 496.43C823.072 498.3 824.057 500.007 826.689 500.007C828.184 500.007 828.617 499.45 828.38 497.835C827.98 495.122 826.248 494.473 824.624 496.43ZM865.087 496.051C866.024 497.567 863.484 500.331 862.27 499.117C861.148 497.995 862.021 495.007 863.47 495.007C864.004 495.007 864.732 495.477 865.087 496.051ZM842.787 497.507C842.971 498.73 843.854 499.507 845.06 499.507C846.248 499.507 847.173 498.712 847.386 497.507C847.732 495.549 847.709 495.547 846.292 497.423C844.866 499.31 844.827 499.31 843.666 497.423C842.518 495.558 842.494 495.561 842.787 497.507ZM68.0402 498.039C67.6522 498.667 67.8052 499.652 68.3802 500.227C69.7242 501.571 72.8572 500.399 72.3102 498.756C71.7542 497.085 68.9242 496.609 68.0402 498.039ZM831.56 498.538C831.56 500.595 834.55 501.641 835.595 499.95C836.702 498.159 835.883 497.007 833.501 497.007C832.425 497.007 831.56 497.689 831.56 498.538ZM81.0402 504.039C80.6522 504.667 80.8052 505.652 81.3802 506.227C82.7242 507.571 85.8572 506.399 85.3102 504.756C84.7542 503.085 81.9242 502.609 81.0402 504.039ZM818.56 504.448C818.56 505.241 819.03 506.179 819.604 506.534C820.895 507.332 823.743 505.112 822.99 503.894C822.094 502.445 818.56 502.887 818.56 504.448ZM93.8602 521.348C94.6302 523.352 92.9852 525.384 91.1612 524.684C88.8542 523.799 89.0902 520.007 91.4532 520.007C92.4942 520.007 93.5782 520.61 93.8602 521.348ZM814.372 522.272C814.77 524.338 811.884 525.731 810.36 524.207C808.836 522.683 810.229 519.797 812.295 520.195C813.253 520.379 814.188 521.314 814.372 522.272ZM43.3312 536.195C42.7132 538.049 40.5602 538.356 40.5602 536.59C40.5602 535.719 41.2722 535.007 42.1432 535.007C43.0142 535.007 43.5492 535.541 43.3312 536.195ZM863.368 536.082C863.171 536.673 862.583 537.157 862.06 537.157C861.537 537.157 860.949 536.673 860.752 536.082C860.555 535.491 861.143 535.007 862.06 535.007C862.977 535.007 863.565 535.491 863.368 536.082ZM773.862 553.019C770.969 554.184 768.267 559.48 769.123 562.307C771.19 569.13 779.474 571.474 783.487 566.372C787.053 561.839 786.128 555.869 781.488 553.47C778.304 551.823 777.02 551.747 773.862 553.019ZM61.6332 558.642C59.0502 561.925 58.9792 566.068 61.4532 569.123C62.8962 570.905 64.3502 571.462 67.5602 571.462C72.6052 571.462 75.5602 568.547 75.5602 563.571C75.5602 556.53 65.9652 553.134 61.6332 558.642ZM781.974 559.227C783.709 564.192 777.807 568.111 774.131 564.436C772.247 562.551 772.082 558.885 773.805 557.162C774.49 556.477 776.394 556.05 778.037 556.212C780.254 556.431 781.269 557.208 781.974 559.227ZM71.0602 563.398C71.0602 568.604 64.7172 569.636 63.7252 564.591C63.0762 561.29 64.3972 559.865 67.8032 560.193C70.6562 560.468 71.0602 560.866 71.0602 563.398ZM819.122 623.137C816.803 624.961 816.083 625.089 814.106 624.032C811.197 622.475 807.96 623.467 805.953 626.53C802.39 631.967 810.597 637.998 815.51 633.552C817.087 632.125 817.407 632.117 818.539 633.482C820.189 635.47 825.982 635.442 827.987 633.437C831.745 629.679 830.687 623.766 825.934 621.959C822.511 620.657 822.207 620.71 819.122 623.137ZM826.368 628.171C826.598 630.157 826.14 631.006 824.57 631.504C820.834 632.689 818.119 628.848 820.798 626.169C822.891 624.076 826.025 625.203 826.368 628.171ZM813.38 629.257C813.17 630.734 812.373 631.507 811.06 631.507C809.747 631.507 808.95 630.734 808.74 629.257C808.478 627.411 808.895 627.007 811.06 627.007C813.225 627.007 813.642 627.411 813.38 629.257ZM72.5262 635.773C61.7942 640.908 60.5002 654.335 70.1302 660.645C74.0772 663.231 81.4322 662.946 85.4992 660.051C96.0082 652.568 91.6162 636.288 78.8432 635.38C76.2122 635.193 73.3702 635.37 72.5262 635.773ZM831.948 638.941C830.787 639.435 828.874 641.064 827.698 642.559C822.494 649.175 827.173 659.007 835.527 659.007C840.729 659.007 843.121 657.756 845.05 654.027C847.364 649.552 846.943 645.463 843.81 641.988C840.845 638.699 835.648 637.364 831.948 638.941ZM83.1932 640.779C90.8202 646.958 87.0532 658.462 77.4012 658.462C74.1012 658.462 72.8212 657.864 70.4582 655.218C67.2082 651.581 66.8222 648.335 69.1122 643.906C71.6212 639.055 79.0332 637.409 83.1932 640.779ZM841.829 645.153C844.264 648.43 843.185 652.782 839.411 654.911C832.162 658.999 825.262 649.447 831.186 643.524C833.673 641.036 839.422 641.917 841.829 645.153ZM110.969 654.651C111.074 659.554 109.657 661.49 106.661 660.539C103.845 659.645 103.868 654.864 106.709 650.266C108.638 647.146 108.962 646.974 109.868 648.593C110.423 649.585 110.919 652.311 110.969 654.651ZM797.461 650.564C800.216 655.233 800.239 659.657 797.512 660.522C794.617 661.441 792.56 659.327 792.56 655.432C792.56 652.656 794.278 647.007 795.122 647.007C795.254 647.007 796.307 648.608 797.461 650.564ZM11.3322 696.257C2.68623 715.83 1.37423 719.007 1.94223 719.007C2.11723 719.007 6.19723 712.482 11.0092 704.507C15.8202 696.532 20.0502 690.01 20.4092 690.013C20.7672 690.017 27.9582 701.704 36.3892 715.986L51.7192 741.952L46.0882 761.628C42.9912 772.45 40.8182 781.621 41.2592 782.008C41.6992 782.395 53.7602 785.737 68.0602 789.436C82.3602 793.134 96.9762 796.949 100.539 797.913L107.018 799.665L121.039 818.746C157.621 868.528 178.555 896.758 180.57 899.024L182.777 901.507L181.333 899.007C179.804 896.36 166.888 876.501 147.06 846.31C140.46 836.261 129.505 819.577 122.715 809.235L110.371 790.43L103.215 788.178C74.6052 779.174 49.5602 770.737 49.5602 770.103C49.5602 769.688 51.0752 763.759 52.9262 756.927C54.7782 750.096 56.5722 743.328 56.9132 741.888C57.4182 739.752 55.1072 735.137 44.3942 716.888C37.1672 704.578 28.9932 690.57 26.2302 685.757C23.4662 680.945 20.8972 677.007 20.5212 677.007C20.1442 677.007 16.0092 685.67 11.3322 696.257ZM866.04 705.757C856.803 721.57 848.596 735.657 847.801 737.064C846.487 739.391 846.686 740.872 850.014 753.564C852.026 761.232 853.89 768.257 854.157 769.174C854.647 770.858 851.753 771.894 803.75 787.211L793.44 790.501L770.138 826.004C731.745 884.5 726.005 893.303 723.188 898.007L720.492 902.507L723.276 899.15C724.807 897.303 742.038 874.128 761.567 847.65L797.075 799.507L829.74 791.001C847.707 786.322 862.641 782.259 862.928 781.972C863.216 781.684 861.002 772.912 858.009 762.478C855.016 752.044 852.565 743.036 852.563 742.459C852.559 741.108 882.364 690.592 883.369 690.245C883.787 690.102 888.147 696.718 893.058 704.948C897.969 713.179 902.166 719.734 902.384 719.516C902.92 718.98 884.222 677.008 883.448 677.007C883.111 677.007 875.277 689.945 866.04 705.757ZM123.56 679.022C123.56 681.159 132.482 701.88 139.02 714.927C177.501 791.72 245.211 853.517 324.31 884.035L331.56 886.832V880.13V873.427L322.31 869.554C240.119 835.137 172.531 767.294 139.998 686.554L136.756 678.507L130.158 678.211C125.826 678.017 123.56 678.296 123.56 679.022ZM767.232 678.757C766.986 679.17 765.155 683.459 763.164 688.29C746.725 728.159 722.109 764.651 690.136 796.547C658.183 828.423 621.231 853.307 581.81 869.494L572.56 873.292V880.208C572.56 884.013 572.897 886.928 573.31 886.686C573.723 886.445 578.785 884.355 584.56 882.041C601.323 875.326 627.193 861.674 643.34 851.022C702.92 811.716 747.618 758.098 774.975 693.12C778.047 685.824 780.56 679.439 780.56 678.931C780.56 677.834 767.88 677.669 767.232 678.757ZM102.06 687.465C89.3902 690.403 77.5412 694.973 70.8062 699.519C65.7352 702.942 65.6042 703.145 67.0542 705.358C70.2292 710.204 88.5602 722.911 88.5602 720.266C88.5602 719.841 86.0852 716.654 83.0602 713.186C80.0352 709.717 77.5602 706.528 77.5602 706.098C77.5602 703.777 90.8802 695.694 103.06 690.624C108.01 688.564 112.96 686.488 114.06 686.01L116.06 685.142L114.06 685.145C112.96 685.146 107.56 686.19 102.06 687.465ZM789.11 685.884C789.632 686.366 792.535 687.554 795.56 688.524C805.387 691.674 826.589 703.491 826.547 705.794C826.54 706.186 823.866 709.645 820.604 713.481C817.343 717.317 814.829 720.61 815.018 720.798C816.756 722.537 837.56 706.674 837.56 703.611C837.56 702.041 828.544 696.646 819.735 692.945C815.833 691.306 807.699 688.849 801.66 687.486C789.709 684.788 787.636 684.524 789.11 685.884ZM120.568 704.605C118.203 721.56 118.256 721.385 115.032 722.95C113.398 723.744 106.435 726.94 99.5602 730.051C82.1722 737.921 77.4332 740.214 77.7992 740.579C77.9722 740.752 89.5772 737.836 103.587 734.098C122.162 729.143 129.143 726.88 129.367 725.742C129.686 724.117 123.838 699.559 122.547 697.105C122.125 696.301 121.279 699.506 120.568 704.605ZM781.223 697.007C780.224 699.273 773.669 726.45 774.034 726.814C774.695 727.475 825.984 740.916 826.371 740.53C826.594 740.307 825.265 739.482 823.418 738.698C818.486 736.602 786.102 721.869 785.816 721.59C785.682 721.459 784.742 715.537 783.728 708.429C782.714 701.322 781.587 696.182 781.223 697.007ZM145.56 736.61C145.56 737.126 146.46 740.795 147.56 744.764C148.66 748.734 149.56 752.381 149.56 752.869C149.56 753.358 146.072 756.133 141.81 759.037C132.005 765.717 131.253 766.447 135.06 765.59C140.258 764.419 156.768 757.629 157.209 756.48C157.441 755.875 155.091 751.134 151.986 745.944C145.789 735.583 145.56 735.25 145.56 736.61ZM751.417 746.613C747.369 753.304 746.097 756.207 746.917 756.885C748.961 758.574 768.791 766.109 770.384 765.802C771.671 765.555 767.842 762.712 754.406 753.942C753.93 753.631 754.462 750.706 755.588 747.442C759.299 736.683 757.626 736.35 751.417 746.613ZM100.56 743.115C92.0742 748.453 91.4392 749.144 96.1452 747.912C104.03 745.847 109.56 743.826 109.56 743.008C109.56 741.557 108.373 739.007 107.703 739.017C107.349 739.022 104.135 740.866 100.56 743.115ZM795.258 739.643C794.874 740.026 794.56 741.148 794.56 742.136C794.56 743.512 796.471 744.518 802.749 746.446C807.254 747.83 811.06 748.84 811.208 748.692C811.517 748.383 799.022 740.122 797.175 739.413C796.504 739.155 795.642 739.259 795.258 739.643ZM65.2722 752.019C58.2812 757.518 62.7472 769.007 71.8752 769.007C74.9062 769.007 79.4082 765.536 80.6652 762.232C81.8942 758.998 80.1622 753.542 77.2612 751.51C74.2072 749.371 68.3202 749.621 65.2722 752.019ZM76.1172 756.454C77.4982 758.561 77.5342 759.289 76.3772 761.704C75.2892 763.973 74.3762 764.507 71.5852 764.507C68.9012 764.507 67.8092 763.923 66.6582 761.872C65.3312 759.509 65.3552 758.968 66.8932 756.622C69.1922 753.113 73.8722 753.027 76.1172 756.454ZM161.182 766.177C161.515 768.008 162.144 771.222 162.581 773.318L163.375 777.13L156.217 782.353C152.281 785.227 147.783 788.385 146.223 789.372C144.663 790.359 143.574 791.354 143.803 791.584C144.64 792.421 155.239 788.687 162.552 784.979C174.632 778.854 174.31 779.691 167.915 771.007C164.878 766.882 161.984 763.358 161.485 763.177C160.983 762.994 160.848 764.335 161.182 766.177ZM736.288 770.667L730.515 778.465L732.788 780.252C738.045 784.387 759.588 793.203 759.545 791.203C759.537 790.82 755.262 787.611 750.045 784.071C744.828 780.53 740.56 777.29 740.56 776.87C740.56 776.449 741.045 773.844 741.638 771.08C743.496 762.415 742.456 762.335 736.288 770.667ZM167.435 789.926C161.371 794.399 155.56 800.544 155.56 802.482C155.56 802.915 157.023 803.039 158.81 802.759C164.683 801.838 175.56 805.917 175.56 809.041C175.56 809.439 174.221 810.319 172.585 810.997C168.126 812.844 161.855 820.197 160.524 825.141C159.317 829.622 159.905 837.915 161.662 841.197C162.6 842.951 162.806 842.923 165.854 840.638C177.692 831.766 191.109 827.026 206.521 826.271L217.982 825.709L213.524 821.753L209.066 817.797L202.277 818.466C192.159 819.463 185.041 821.534 175.31 826.313C168.023 829.892 166.56 830.322 166.56 828.886C166.56 825.128 173.049 818.559 180.605 814.668C184.705 812.556 188.218 810.673 188.412 810.483C189.893 809.026 180.551 801.293 174.56 799.017C169.029 796.915 169.063 796.438 174.979 793.053C178.049 791.297 180.56 789.513 180.56 789.089C180.56 787.838 177.023 785.006 175.481 785.022C174.7 785.03 171.079 787.237 167.435 789.926ZM724.718 787.125C723.202 789.554 723.335 789.722 730.041 793.836C734.299 796.449 734.735 796.989 733.041 797.558C727.256 799.5 720.354 803.464 718.106 806.135C715.235 809.547 714.81 812.007 717.093 812.007C719.011 812.007 727.328 816.328 730.242 818.838C733.061 821.266 737.56 827.899 737.56 829.628C737.56 830.525 735.468 829.819 731.244 827.498C722.371 822.62 714.532 820.127 703.809 818.771L694.559 817.602L690.505 821.555L686.45 825.507L697.255 826.126C710.888 826.907 721.586 830.332 733.224 837.638L741.642 842.923L742.601 840.4C743.128 839.012 743.553 834.869 743.544 831.192C743.52 821.469 739.618 815.632 728.994 809.423C727.329 808.45 727.614 808.06 731.775 805.621C735.417 803.487 737.716 802.897 742.486 802.874C745.827 802.858 748.56 802.627 748.56 802.359C748.56 799.266 731.373 785.007 727.644 785.007C726.762 785.007 725.446 785.96 724.718 787.125ZM843.913 797.933C834.712 803.544 839.077 818.007 849.972 818.007C854.748 818.007 857.94 816.106 860.066 811.996C861.961 808.331 861.955 805.671 860.043 801.974C857.103 796.289 849.666 794.426 843.913 797.933ZM855.105 802.462C857.821 805.177 858.132 807.052 856.41 810.323C854.854 813.28 853.62 813.974 849.883 813.992C845.778 814.011 842.16 809.81 843.046 806.05C844.434 800.161 850.885 798.241 855.105 802.462ZM703.203 835.035C694.768 837.563 690.939 848.03 695.657 855.663C698.581 860.394 702.762 862.338 708.772 861.761C723.183 860.376 725.986 840.996 712.553 835.621C708.097 833.838 707.353 833.791 703.203 835.035ZM187.06 835.952C183.183 837.539 181.06 840.986 181.06 845.694C181.06 849.487 181.559 850.617 184.326 853.089C192.568 860.454 204.228 853.012 201.357 842.219C199.902 836.744 192.767 833.617 187.06 835.952ZM712.585 840.257C720.872 845.872 717.375 858.007 707.47 858.007C699.467 858.007 694.755 848.824 699.603 842.674C703.552 837.663 707.635 836.903 712.585 840.257ZM195.337 840.564C199.95 843.794 197.18 852.007 191.478 852.007C188.7 852.007 184.56 848.117 184.56 845.507C184.56 843.23 188.686 839.007 190.91 839.007C192.123 839.007 194.115 839.708 195.337 840.564ZM225.972 845.462C219.466 851.465 219.974 852.351 227.682 848.445C232.178 846.167 233.254 845.993 237.386 846.874C239.943 847.42 242.184 847.717 242.366 847.535C242.779 847.121 233.529 840.007 232.578 840.007C232.196 840.007 229.223 842.462 225.972 845.462ZM665.56 844.095C662.695 846.66 661.787 847.937 663.06 847.612C664.16 847.332 666.219 846.827 667.635 846.49C669.326 846.088 672.221 846.767 676.064 848.466C679.283 849.89 682.324 850.919 682.822 850.753C683.824 850.419 672.21 839.989 670.889 840.037C670.433 840.053 668.035 841.879 665.56 844.095ZM247.56 853.724C247.56 854.118 248.28 856.326 249.16 858.631L250.761 862.821L246.835 868.664C241.646 876.386 241.301 877.012 242.251 876.979C243.26 876.943 250.902 869.864 255.836 864.394L259.546 860.281L254.068 856.644C248.409 852.886 247.56 852.505 247.56 853.724ZM649.768 856.553L644.502 860.099L648.22 864.637C652.239 869.542 660.727 877.173 661.407 876.493C661.638 876.263 659.915 873.026 657.579 869.301C653.018 862.027 653.091 862.893 656.308 854.257C657.076 852.197 655.321 852.813 649.768 856.553ZM271.036 873.346C277.535 881.98 277.758 883.652 274.062 896C272.688 900.589 271.707 904.487 271.881 904.661C273.066 905.847 290.56 882.177 290.56 879.387C290.56 878.702 289.686 877.864 288.619 877.526C287.551 877.187 282.203 874.456 276.736 871.458C271.268 868.46 266.506 866.007 266.153 866.007C265.801 866.007 267.998 869.31 271.036 873.346ZM625.06 872.621C618.46 876.131 613.189 879.502 613.346 880.112C613.78 881.799 621.364 892.817 626.35 899.007C630.903 904.658 633.385 906.599 632.238 903.611C631.021 900.438 627.716 888.496 627.175 885.312C626.714 882.601 627.467 880.952 632.14 874.44C635.17 870.217 637.516 866.645 637.354 866.501C637.192 866.358 631.66 869.112 625.06 872.621ZM448.567 889.257C441.586 913.6 427.203 929.722 410.727 931.674C404.761 932.38 404.724 932.657 409.423 941.431C414.845 951.555 425.85 959.448 438.8 962.501C460.917 967.716 485.327 958.338 493.869 941.345C498.33 932.471 498.315 932.375 492.393 931.674C475.297 929.649 460.025 911.596 453.506 885.708C452.855 883.122 452.01 881.007 451.628 881.007C451.246 881.007 449.868 884.719 448.567 889.257ZM348.174 893.257C347.21 896.145 346.17 899.132 345.861 899.896C344.813 902.494 347.483 899.98 350.629 895.407C353.123 891.783 353.49 890.627 352.519 889.458C350.615 887.163 350.039 887.667 348.174 893.257ZM550.58 889.483C549.577 890.691 550.031 891.881 553.077 896.03C555.124 898.819 556.968 900.932 557.174 900.726C557.718 900.183 553.179 888.009 552.432 888.008C552.087 888.007 551.254 888.671 550.58 889.483ZM296.253 892.105C297.247 893.809 300.487 897.62 303.453 900.573L308.846 905.944L308.242 911.044C307.91 913.848 305.794 921.561 303.541 928.183C301.287 934.805 299.641 940.421 299.882 940.663C300.798 941.578 309.695 930.278 312.979 924.029C316.585 917.166 321.56 903.427 321.56 900.33C321.56 898.93 318.772 897.402 309.568 893.757C294.961 887.971 293.756 887.822 296.253 892.105ZM328.946 895.126C329.317 898.635 330.169 905.107 330.84 909.507L332.06 917.507L332.341 912.007C332.804 902.943 331.255 889.734 329.666 889.207C328.526 888.829 328.395 889.907 328.946 895.126ZM355.643 895.642C351.764 903.763 349.757 911.972 349.074 922.507L348.555 930.507L351.091 922.507C355.596 908.292 358.745 900 360.427 897.923C362.01 895.968 362.331 895.946 369.066 897.343C372.913 898.141 376.278 898.586 376.545 898.332C377.866 897.074 363.969 889.038 360.436 889.017C359.415 889.011 357.636 891.47 355.643 895.642ZM535.995 891.532C533.209 892.881 529.834 895.17 528.495 896.62C526.102 899.21 526.098 899.244 528.265 898.578C529.478 898.205 532.853 897.503 535.765 897.017C540.417 896.241 541.262 896.37 542.725 898.076C544.747 900.435 548.76 910.88 551.494 920.899C552.604 924.965 553.809 928.565 554.173 928.899C555.466 930.087 553.515 913.306 551.526 906.126C548.859 896.504 545.022 888.997 542.793 889.044C541.84 889.064 538.781 890.183 535.995 891.532ZM572.76 890.207C571.94 891.027 571.599 895.382 571.682 903.957L571.804 916.507L573.048 909.007C575.015 897.144 575.732 889.007 574.81 889.007C574.342 889.007 573.42 889.547 572.76 890.207ZM597.56 892.418C592.885 894.253 587.406 896.45 585.384 897.299L581.707 898.843L583.191 904.675C585.466 913.62 593.806 929.952 599.111 935.852C601.698 938.73 603.984 940.916 604.191 940.709C604.398 940.503 603.254 936.697 601.649 932.253C600.044 927.809 597.749 920.254 596.55 915.466L594.368 906.759L599.82 901.133C605.283 895.495 608.56 891.24 608.56 889.784C608.56 888.443 606.32 888.979 597.56 892.418ZM430.607 904.257C428.961 909.767 426.131 915.288 424.081 916.99C423.187 917.732 420.798 918.608 418.772 918.938L415.089 919.536L417.325 921.772C421.189 925.636 427.823 924.218 430.994 918.849C432.089 916.995 432.965 912.853 433.302 907.934C433.907 899.114 432.654 897.404 430.607 904.257ZM469.584 905.257C469.621 913.389 471.104 918.193 474.523 921.257C477.986 924.361 481.981 924.801 485.337 922.45C488.434 920.282 488.109 919.007 484.461 919.007C480.396 919.007 476.319 914.653 473.614 907.421C472.484 904.402 471.56 901.499 471.56 900.969C471.56 900.44 471.11 900.007 470.56 900.007C470.01 900.007 469.571 902.369 469.584 905.257ZM211.483 906.93C204.355 914.058 212.427 925.23 221.366 920.607C224.633 918.918 225.56 917.238 225.56 913.007C225.56 908.808 224.636 907.098 221.488 905.47C217.292 903.3 214.741 903.672 211.483 906.93ZM219.626 909.042C222.231 910.437 222.235 915.575 219.632 916.968C214.739 919.587 210.209 913.501 214.131 909.578C215.974 907.736 216.998 907.636 219.626 909.042ZM393.166 916.507C390.855 935.237 387.936 945.818 383.042 953.214C380.564 956.958 380.513 957.287 382.049 959.631C384.333 963.116 389.472 965.999 393.409 966.003C398.077 966.008 403.46 963.22 405.611 959.683C407.405 956.733 407.397 956.66 404.908 953.397C400.27 947.316 397.589 937.605 394.722 916.507L393.907 910.507L393.166 916.507ZM507.755 921.855C506.337 934.607 502.854 946.686 498.946 952.409C495.565 957.36 496.442 960.527 502.076 963.718C509.029 967.656 516.961 965.903 521.155 959.502C522.787 957.012 522.767 956.778 520.666 953.937C519.46 952.305 517.626 948.994 516.591 946.578C514.362 941.38 510.602 924.632 510.46 919.274C510.211 909.844 508.957 911.04 507.755 921.855ZM372.17 926.292C369.493 932.758 366.882 938.308 366.368 938.626C365.854 938.943 364.56 938.412 363.491 937.444C362.422 936.477 361.223 936.01 360.827 936.407C359.908 937.325 364.64 946.256 366.326 946.786C367.938 947.293 371.888 938.438 375.202 926.887C379.05 913.472 377.597 913.187 372.17 926.292ZM525.56 916.18C525.56 921.951 534.554 947.007 536.626 947.007C537.893 947.007 541.357 941.664 542.158 938.473L542.889 935.562L540.117 937.377C538.593 938.376 536.991 938.814 536.556 938.35C536.121 937.886 533.671 932.572 531.112 926.539C526.193 914.946 525.56 913.766 525.56 916.18ZM453.942 928.467C454.828 929.82 458.283 933.844 461.618 937.41L467.682 943.892L464.371 945.686C459.774 948.176 444.649 948.225 439.213 945.768L435.367 944.028L442.963 935.851C447.142 931.354 450.56 927.299 450.56 926.841C450.56 925.19 452.362 926.056 453.942 928.467ZM574.055 934.421C567.445 941.031 571.841 951.007 581.364 951.007C584.812 951.007 589.201 947.286 590.133 943.573C590.934 940.382 589.008 935.434 586.2 933.467C582.872 931.136 576.868 931.608 574.055 934.421ZM585.227 938.622C586.765 940.968 586.789 941.509 585.462 943.872C584.314 945.917 583.217 946.507 580.56 946.507C577.903 946.507 576.806 945.917 575.658 943.872C574.331 941.509 574.355 940.968 575.893 938.622C577.1 936.779 578.478 936.007 580.56 936.007C582.642 936.007 584.02 936.779 585.227 938.622ZM324.323 939.572C319.197 942.354 316.978 950.528 319.913 955.817C325.857 966.529 342.56 962.256 342.56 950.023C342.56 940.761 332.625 935.068 324.323 939.572ZM336.105 944.462C341.066 949.422 337.551 958.007 330.56 958.007C326.449 958.007 322.56 954.118 322.56 950.007C322.56 945.896 326.449 942.007 330.56 942.007C332.508 942.007 334.558 942.914 336.105 944.462ZM556.683 964.049C552.732 964.935 549.011 967.522 546.122 971.392C543.04 975.52 543.191 986.288 546.394 990.78C553.605 1000.89 568.926 1000.06 575.278 989.225C577.365 985.663 577.723 983.992 577.354 979.536C576.46 968.755 567.068 961.718 556.683 964.049ZM567.945 970.095C579.088 978.861 572.116 995.552 558.096 993.672C555.154 993.277 553.181 992.17 550.811 989.583C548.026 986.545 547.56 985.3 547.56 980.904C547.56 976.276 547.941 975.391 551.442 971.889C554.913 968.418 555.853 968.007 560.307 968.007C563.846 968.007 566.06 968.612 567.945 970.095ZM479.06 976.961C469.938 980.734 469.439 994.349 478.269 998.539C484.511 1001.5 490.849 999.216 494.162 992.809C496.073 989.115 495.911 986.095 493.6 982.306C490.411 977.074 484.256 974.812 479.06 976.961ZM488.637 982.93C490.245 984.538 491.56 986.542 491.56 987.383C491.56 992.399 486.022 996.923 481.6 995.52C478.798 994.631 475.56 991.063 475.56 988.865C475.56 985.958 477.649 982.278 479.924 981.177C483.49 979.45 485.577 979.87 488.637 982.93ZM408.189 1016.86C405.607 1019.72 406.391 1024.81 409.802 1027.35C412.399 1029.28 412.722 1029.3 415.924 1027.77C420.3 1025.69 421.47 1021.71 418.774 1018.08C416.267 1014.71 410.717 1014.07 408.189 1016.86ZM415.56 1021.42C415.56 1023.9 414.021 1025.07 411.81 1024.25C410.485 1023.76 410.106 1020.79 411.227 1019.67C411.593 1019.31 412.718 1019.01 413.727 1019.01C414.999 1019.01 415.56 1019.75 415.56 1021.42Z" fill="white"/>
</svg>
