<svg width="1073" height="928" viewBox="0 0 1073 928" fill="none" xmlns="http://www.w3.org/2000/svg">
<path fill-rule="evenodd" clip-rule="evenodd" d="M529.27 9.75C526.012 15.112 519.709 25.8 515.263 33.5C510.818 41.2 498.212 63.025 487.251 82C466.997 117.06 418.024 201.954 417.357 203.162C416.932 203.931 425.68 209 427.432 209C428.081 209 441.152 187.288 456.478 160.75C508.079 71.4 513.175 62.555 523.751 44C529.551 33.825 534.834 24.911 535.492 24.191C536.444 23.15 541.867 31.84 562.011 66.691C575.938 90.786 595.279 124.225 604.991 141C614.703 157.775 627.496 179.938 633.42 190.25C639.344 200.563 644.502 209.192 644.882 209.427C645.904 210.059 655.53 204.536 655.318 203.439C655.218 202.923 644.606 184.275 631.736 162C618.866 139.725 596.639 101.25 582.344 76.5C560.871 39.325 536.789 0 535.495 0C535.329 0 532.528 4.387 529.27 9.75ZM530.69 71.25C528.242 75.237 520.64 88.175 513.797 100C506.955 111.825 496.144 130.5 489.773 141.5C483.403 152.5 466.454 181.86 452.109 206.744C437.763 231.628 421.8 259.303 416.635 268.244C400.106 296.854 393.115 308.96 378.792 333.783C369.366 350.119 363.752 358.817 361.64 360.358C348.595 369.881 341.921 375.026 334.817 381.035C330.314 384.845 326.437 387.771 326.203 387.536C325.828 387.161 351.343 342.227 368.527 313C381.834 290.368 385.209 283.987 384.646 282.521C384.065 281.005 375.36 276.234 374.687 277.061C374.491 277.303 369.141 286.5 362.799 297.5C356.456 308.5 342.822 332.125 332.5 350C322.178 367.875 308.551 391.5 302.217 402.5C295.883 413.5 284.989 432.175 278.007 444C271.025 455.825 263.586 468.65 261.474 472.5C256.284 481.963 232.209 523.996 224.531 537C221.121 542.775 212.773 557.175 205.98 569C199.188 580.825 184.783 605.8 173.97 624.5C163.157 643.2 143.278 677.625 129.795 701C94.923 761.456 97.236 757.448 63.994 815C47.315 843.875 29.772 874.25 25.01 882.5C20.247 890.75 12.672 903.853 8.175 911.617C3.679 919.382 0 926.244 0 926.867C0 927.709 137.62 928 536.5 928C831.575 928 1073 927.757 1073 927.46C1073 926.292 1068.31 917.911 1048.9 884.381C1037.79 865.196 1021.97 837.818 1013.74 823.54C1005.51 809.262 995.518 791.937 991.525 785.04C987.532 778.143 972.573 752.25 958.282 727.5C943.991 702.75 919.558 660.45 903.988 633.5C888.417 606.55 871.784 577.75 867.024 569.5C862.265 561.25 853.05 545.275 846.547 534C840.043 522.725 831.471 507.875 827.497 501C823.524 494.125 808.472 468.025 794.049 443C779.626 417.975 764.786 392.325 761.071 386C757.357 379.675 748.771 364.825 741.991 353C735.212 341.175 725.091 323.625 719.5 314C713.909 304.375 706.947 292.325 704.027 287.222C701.108 282.12 698.339 277.709 697.874 277.422C697.063 276.921 688.441 281.477 687.588 282.857C687.362 283.224 689.539 287.569 692.428 292.512C708.99 320.856 747.193 387.34 747.747 388.784C748.106 389.72 744.222 386.912 739.116 382.545C734.01 378.177 724.422 370.531 717.81 365.552L705.788 356.5L684.794 320C673.247 299.925 658.716 274.725 652.503 264C640.229 242.814 632.16 228.833 594.507 163.5C580.876 139.85 566.262 114.65 562.032 107.5C557.801 100.35 550.377 87.638 545.533 79.25C540.689 70.862 536.37 64 535.934 64C535.499 64 533.139 67.263 530.69 71.25ZM550.916 113.39C558.662 126.797 565 138.493 565 139.383C565 140.272 565.45 141 566 141C568.235 141 566.796 143.842 563.968 145.013C559.999 146.657 558.862 145.402 562.015 142.856C563.66 141.528 562.81 141.775 559.5 143.589C554.599 146.275 550.48 149.281 554.588 147.174C555.737 146.585 557.64 146.355 558.818 146.663C560.509 147.105 560.89 147.85 560.632 150.208C560.452 151.85 559.674 153.593 558.903 154.081C558.131 154.57 557.9 154.976 558.389 154.985C558.879 154.993 561.473 153.65 564.154 152C566.836 150.35 569.698 149 570.515 149C572.562 149 572.384 151.667 570.25 152.964C568.809 153.84 568.962 153.924 571.114 153.439C573.246 152.96 573.838 153.272 574.324 155.132C574.652 156.386 574.826 157.486 574.71 157.577C574.595 157.667 568.553 161.222 561.285 165.477C547.105 173.779 547.094 173.781 544.065 168.122C542.551 165.292 543.37 164.363 548.156 163.484C551.116 162.941 552.219 163.219 553.943 164.943C555.114 166.114 556.49 166.815 557 166.5C558.569 165.53 554.158 162 551.378 162C549.045 162 548.907 161.815 550.128 160.324C550.978 159.285 549.706 159.694 546.782 161.4L542.064 164.153L540.032 160.826C537.865 157.279 537.722 157.637 542.663 154.236C543.674 153.54 543.009 153.679 541.186 154.544C536.856 156.6 531.849 156.099 530.523 153.478C529.949 152.343 528.747 151.604 527.785 151.794C526.841 151.981 521.767 149.566 516.507 146.427C511.248 143.289 506.74 140.927 506.489 141.178C506.237 141.429 511.987 145.168 519.266 149.487C534.595 158.581 533.494 157.839 532.752 158.581C532.045 159.288 530.652 158.571 515.767 149.832L504.033 142.943L508.138 135.222C510.396 130.975 513.006 126.375 513.939 125C514.872 123.625 520.047 114.745 525.44 105.267C530.833 95.789 535.603 88.254 536.039 88.524C536.475 88.794 543.17 99.983 550.916 113.39ZM569 145.284C569 146.855 563.337 150.354 562.635 149.218C561.961 148.127 563.066 146.575 565.5 145.195C568.132 143.702 569 143.724 569 145.284ZM515.752 151.153C521.663 154.537 527.733 158.165 529.239 159.214L531.979 161.121L529.969 165.061C528.864 167.227 527.684 169 527.348 169C526.303 169 509.07 158.923 508.479 157.965C508.17 157.467 509.062 156.772 510.459 156.421C511.857 156.07 513 155.425 513 154.987C513 154.549 510.525 152.794 507.5 151.087C502.292 148.148 500.224 145 503.502 145C504.328 145 509.84 147.769 515.752 151.153ZM506.2 151.75L510.356 154.5L507.678 155.443C506.205 155.962 505 156.708 505 157.101C505 157.494 509.725 160.578 515.5 163.953C525.038 169.528 528.484 173 524.479 173C522.885 173 499.46 159.754 497.192 157.571C496.118 156.537 496.27 155.657 498.04 152.656C499.227 150.645 500.613 149 501.12 149C501.628 149 503.913 150.238 506.2 151.75ZM559 159C558.099 159.582 557.975 159.975 558.691 159.985C559.346 159.993 560.16 159.55 560.5 159C561.267 157.758 560.921 157.758 559 159ZM503.232 162.804C506.68 164.897 512.538 168.294 516.25 170.353C519.962 172.413 523 174.751 523 175.549C523 177.562 522.327 177.404 517.088 174.159C514.564 172.596 508.337 168.898 503.25 165.94C498.163 162.982 494 160.211 494 159.781C494 158.104 497.232 159.162 503.232 162.804ZM579.571 163.25C580.601 165.588 581.727 167.725 582.073 168C583.953 169.498 584.851 172.749 583.703 173.906C582.763 174.853 582.861 174.981 584.149 174.491C586.397 173.636 587.477 175.712 585.836 177.736C584.798 179.016 584.789 179.21 585.794 178.606C587.649 177.49 589.993 179.808 589.768 182.534C589.662 183.811 589.232 184.643 588.812 184.384C588.392 184.124 586.23 184.944 584.007 186.206C580.501 188.196 579.834 188.301 578.97 187C578.422 186.175 578.18 184.648 578.431 183.606C579.038 181.091 577.407 182.896 576.573 185.662C576.026 187.476 576.418 187.933 579.008 188.502C581.68 189.089 581.921 189.393 580.798 190.765C579.786 192 580.112 191.951 582.281 190.539C587.498 187.144 586.399 190.043 579.944 196.708C572.699 204.189 568.946 207.5 567.711 207.5C567.251 207.5 566.129 206.272 565.218 204.771C563.649 202.185 563.664 201.966 565.512 200.615C567.339 199.279 567.28 199.224 564.587 199.739C561.914 200.25 561.748 200.1 562.224 197.61C562.505 196.136 562.494 195.172 562.199 195.468C561.422 196.245 558 192.925 558 191.395C558 190.682 558.788 189.648 559.75 189.096C561.182 188.275 560.955 188.129 558.5 188.296C556.409 188.438 555.5 188.045 555.5 187C555.5 185.981 556.735 185.399 559.35 185.184C561.888 184.975 562.975 185.231 562.541 185.934C562.179 186.52 562.326 187 562.868 187C563.41 187 563.999 187.611 564.177 188.357C564.373 189.18 565.303 188.492 566.542 186.607L568.583 183.5L561.679 183.836C557.282 184.051 554.998 183.812 555.389 183.18C555.737 182.617 555.243 182.378 554.251 182.627C553.074 182.923 551.926 182.046 550.75 179.953C548.488 175.926 548.545 174.765 551.084 173.18C553.682 171.557 558.194 172.451 560.551 175.057C562.232 176.914 562.225 177.094 560.405 179.11C558.613 181.096 558.737 181.081 562.487 178.872C565.382 177.166 565.998 176.431 564.737 176.188C562.12 175.684 562.652 172.48 565.575 171.148C568.666 169.74 570.354 170.539 569.685 173.096C569.275 174.665 569.501 174.802 571.098 173.947C573.409 172.711 573.444 172.301 571.418 170.275C569.473 168.331 570.3 162.134 572.754 160.25C575.694 157.993 577.627 158.843 579.571 163.25ZM498.53 165.049C498.883 165.62 498.595 166.784 497.889 167.634C496.739 169.02 496.47 168.995 495.303 167.399C494.586 166.419 494 164.788 494 163.774C494 162.257 494.345 162.114 495.944 162.97C497.014 163.543 498.177 164.478 498.53 165.049ZM569 164.987C569 167.255 561.794 172.301 559.259 171.809C556.146 171.205 557.107 169.458 562.269 166.338C568.565 162.532 569 162.445 569 164.987ZM493.417 166.643C493.763 167.547 493.822 168.511 493.548 168.786C492.909 169.424 490 167.039 490 165.878C490 164.325 492.765 164.944 493.417 166.643ZM542.735 176.25C548.011 185.336 560.023 206.129 611.322 294.978C618.778 307.891 624.71 318.623 624.506 318.827C624.301 319.032 617.466 317.603 609.317 315.651C585.886 310.04 569.428 307.922 544.342 307.289C513.05 306.499 490.9 308.838 460.689 316.122C453.643 317.821 447.731 319.051 447.552 318.856C447.373 318.66 455.553 304.1 465.729 286.5C484.585 253.888 495.65 234.725 521.017 190.75C528.869 177.137 535.628 166 536.038 166C536.447 166 539.461 170.613 542.735 176.25ZM507.102 169.75C512.304 172.672 512.777 173.555 510.681 176.422C509.415 178.152 509.203 178.143 505.431 176.191C498.491 172.599 497.592 171.632 498.909 169.171C500.404 166.377 501.197 166.433 507.102 169.75ZM493.973 177.25C494.017 178.466 492.708 178.119 489.218 175.991C486.297 174.21 486.063 173.75 487.098 171.817C488.247 169.669 488.294 169.684 491.104 173.072C492.667 174.957 493.958 176.838 493.973 177.25ZM500.749 176.22C500.886 176.924 500.537 178.175 499.973 179C499.121 180.248 498.368 179.828 495.49 176.5C490.659 170.915 490.965 169.271 496.25 172.414C498.587 173.804 500.612 175.517 500.749 176.22ZM517.418 175.607C519.823 176.53 519.314 177.707 516.256 178.291C512.792 178.954 511.565 178.229 513.074 176.411C514.372 174.847 515.09 174.714 517.418 175.607ZM498.215 182.635C514.855 192.419 514.343 192.057 513.181 193.219C512.47 193.93 510.395 193.526 506.529 191.924C501.694 189.92 500.474 189.76 497.772 190.78C493.819 192.272 490.547 190.436 486.016 184.181C482.85 179.811 482.625 176 485.533 176C486.302 176 492.009 178.986 498.215 182.635ZM510.864 181.059C517.563 184.921 517.85 185.236 516.791 187.559C516.18 188.901 515.108 190 514.411 190C512.572 190 501 182.94 501 181.817C501 180.718 502.889 177 503.447 177C503.655 177 506.992 178.826 510.864 181.059ZM513.097 215.467C500.943 236.623 491 254.173 491 254.467C491 254.76 511.298 255 536.107 255C578.132 255 581.169 254.884 580.562 253.302C579.978 251.779 567.628 230.13 549.013 198C545.349 191.675 541.128 184.363 539.633 181.75C538.139 179.137 536.528 177 536.054 177C535.581 177 525.25 194.31 513.097 215.467ZM519.953 182.089C518.927 184.006 518.082 183.92 515.094 181.594C513.964 180.715 514.258 180.388 516.594 179.928C520.417 179.177 521.231 179.7 519.953 182.089ZM571.441 181.555C569.577 183.049 569.589 183.067 571.75 182.02C572.987 181.42 574 180.72 574 180.465C574 179.7 573.481 179.921 571.441 181.555ZM484.02 183.524C484.716 184.362 485.007 185.327 484.667 185.667C483.94 186.393 481 184.156 481 182.878C481 181.5 482.63 181.849 484.02 183.524ZM489.026 190.225C496.769 194.417 508 201.368 508 201.968C508 203.642 506.599 203.783 504.385 202.333C503.051 201.458 502 201.231 502 201.818C502 202.394 502.9 203.151 504 203.5C506.311 204.233 506.695 207.796 504.552 208.618C503.756 208.924 500.821 207.897 498.03 206.337C493.971 204.067 492.759 202.772 491.969 199.858C491.011 196.327 485.602 190.463 481.06 188.032C479.896 187.409 479.217 186.458 479.551 185.917C479.913 185.331 481.448 185.732 483.355 186.91C485.113 187.997 487.665 189.489 489.026 190.225ZM553.693 214.03C574.942 250.882 574.887 250.78 574.228 251.438C573.436 252.231 498 252.142 498 251.348C498 249.741 535.598 185.111 536.399 185.341C536.894 185.483 544.676 198.393 553.693 214.03ZM594.515 189.029C595.377 190.696 595.812 192.496 595.482 193.029C595.152 193.563 595.535 194 596.334 194C597.133 194 598.044 194.671 598.359 195.492C598.976 197.102 596.207 198.858 589.775 200.936C586.745 201.914 586.279 202.389 587.275 203.48C588.289 204.591 589.382 204.321 593.622 201.911C596.439 200.31 599.026 199 599.372 199C600.916 199 599.767 203.143 597.382 206.173C594.906 209.319 594.958 209.3 598.329 205.822L601.895 202.144L603.879 205.278C604.97 207.002 605.633 208.785 605.351 209.242C605.069 209.698 601.874 211.943 598.253 214.23C594.631 216.518 592.195 218.565 592.84 218.78C593.485 218.995 593.724 219.638 593.371 220.208C593.019 220.779 595.705 218.908 599.342 216.05C602.979 213.192 606.372 211.112 606.882 211.427C608.311 212.31 613.245 221.088 612.648 221.685C612.358 221.975 612.993 223.15 614.06 224.295C615.127 225.44 616 226.967 616 227.689C616 228.41 616.45 229 617 229C617.55 229 618 229.45 618 230C618 231.587 614.275 231.16 613.638 229.5C613.322 228.675 613.35 227.251 613.701 226.336C614.131 225.217 613.957 224.909 613.17 225.395C612.526 225.793 612 226.629 612 227.254C612 227.879 610.826 229.616 609.39 231.115L606.78 233.839L610.64 232.943C616.7 231.537 619.315 231.737 618.618 233.552C618.291 234.406 618.437 234.848 618.942 234.536C620.816 233.378 621.246 236.348 619.403 237.718C617.625 239.039 617.672 239.09 620.108 238.493C622.358 237.942 623.025 238.377 624.958 241.653C626.65 244.52 626.944 245.86 626.159 247.117C625.289 248.511 625.461 248.692 627.218 248.233C628.995 247.768 629.226 248.029 628.726 249.941C628.401 251.182 628.401 251.932 628.726 251.608C629.699 250.635 632 253.105 632 255.122C632 256.155 632.441 257 632.98 257C634.686 257 638.023 264.577 636.839 265.761C636.102 266.498 636.344 266.766 637.643 266.657C640.151 266.445 640.628 270.334 638.522 273.808C636.972 276.363 637.016 276.35 639.381 273.563L641.873 270.627L643.099 273.318C643.773 274.798 644.139 276.153 643.912 276.329C642.446 277.471 619.159 291.004 617.702 291.562C616.518 292.015 615.419 291.61 614.484 290.375C611.971 287.057 612.691 286.223 617.75 286.592L622.5 286.939L618.235 286.019C612.698 284.825 611.725 284.16 612.3 281.962C612.643 280.65 612.351 280.312 611.242 280.737C609.193 281.524 606.662 278.112 608.052 276.437C608.794 275.543 608.594 275.25 607.316 275.355C605.09 275.539 602.413 268.412 603.993 266.509C604.766 265.576 604.461 265.38 602.743 265.709C600.836 266.073 600.169 265.416 598.608 261.63C597.584 259.148 596.082 256.862 595.27 256.55C594.457 256.238 594.036 255.349 594.333 254.574C594.63 253.799 594.115 252.869 593.187 252.506C591.749 251.943 591.943 251.475 594.5 249.334C596.483 247.674 596.76 247.191 595.316 247.911C594.114 248.51 592.475 249 591.673 249C589.61 249 588.726 246.042 590.233 244.181C591.261 242.911 591.256 242.763 590.206 243.394C588.58 244.372 586 242.314 586 240.038C586 239.094 587.237 237.722 588.75 236.991C590.959 235.922 591.156 235.581 589.75 235.257C587.558 234.751 587.455 230.954 589.526 226.95C591.296 223.526 590.676 222.901 588.831 226.25C588.149 227.488 587.346 230.489 587.046 232.92C586.746 235.351 585.988 237.509 585.361 237.716C584.205 238.098 579 229.762 579 227.527C579 226.855 580.013 225.773 581.25 225.122C583.427 223.977 582.119 224.154 578.951 225.434C577.863 225.873 576.752 224.903 575.22 222.178C574.02 220.042 573.354 217.979 573.74 217.593C574.126 217.207 573.839 216.518 573.102 216.063C572.109 215.449 572.761 214.555 575.613 212.617C577.731 211.178 579.022 210.01 578.482 210.022C577.942 210.034 576.375 210.924 575 212C572.735 213.772 570 214.637 570 213.582C570 213.352 569.751 212.514 569.446 211.72C569.054 210.698 570.514 209.618 574.436 208.026C577.485 206.789 579.743 205.393 579.453 204.924C579.163 204.455 580.743 202.925 582.963 201.523C589.262 197.547 587.7 197.668 580.969 201.678C577.652 203.654 574.678 205.011 574.361 204.694C573.711 204.045 590.868 186 592.135 186C592.582 186 593.654 187.363 594.515 189.029ZM482.979 190.73C486.918 193.562 491.698 199.635 490.741 200.592C490.186 201.147 485.172 198.883 479.256 195.406C475.876 193.42 475.155 191.245 477.2 189.2C478.773 187.627 478.597 187.581 482.979 190.73ZM572.441 189.555C570.577 191.049 570.589 191.067 572.75 190.02C573.987 189.42 575 188.72 575 188.465C575 187.7 574.481 187.921 572.441 189.555ZM507.595 193.604C511.724 195.329 512.273 196.244 510.574 198.567C509.247 200.382 509.123 200.381 505.691 198.533C503.754 197.49 501.119 195.822 499.835 194.826C497.848 193.285 497.724 192.868 499 192.03C500.553 191.011 502.039 191.283 507.595 193.604ZM560.872 192.75C559.629 194.336 559.664 194.371 561.25 193.128C562.916 191.821 563.445 191 562.622 191C562.415 191 561.627 191.787 560.872 192.75ZM488.747 202.165C504.957 211.788 503.591 210.811 502.433 211.959C501.86 212.527 499.38 211.616 496 209.593C492.975 207.784 486.788 204.146 482.25 201.509C477.712 198.872 474 196.104 474 195.357C474 194.611 474.224 194 474.497 194C474.77 194 481.183 197.674 488.747 202.165ZM590.5 196C588.85 197.093 587.95 197.98 588.5 197.971C589.503 197.955 594.94 194.058 594 194.029C593.725 194.02 592.15 194.907 590.5 196ZM571.441 196.555C569.577 198.049 569.589 198.067 571.75 197.02C572.987 196.42 574 195.72 574 195.465C574 194.7 573.481 194.921 571.441 196.555ZM480.541 201.952C489.095 206.95 489.652 207.509 488.035 209.458C486.064 211.832 483.43 211.33 476.452 207.25C470.136 203.557 468.836 201.564 471.2 199.2C472.886 197.514 473.009 197.55 480.541 201.952ZM473 207.089C474.661 208.448 474.828 208.787 473.5 208.101C470.238 206.415 468.43 205.03 469.5 205.038C470.05 205.041 471.625 205.965 473 207.089ZM583.75 206.572C580.012 208.6 580.239 209.445 584 207.5C585.65 206.647 587 205.735 587 205.474C587 204.831 586.893 204.867 583.75 206.572ZM476.412 211.668C487.496 218.066 496 223.229 496 223.56C496 224.811 494.591 227 493.787 227C493.237 227 491.853 225.812 490.711 224.36C487.667 220.49 477.534 214.261 471.102 212.306C468.021 211.37 465.377 210.532 465.226 210.445C464.531 210.042 466.335 207 467.269 207C467.849 207 471.964 209.101 476.412 211.668ZM484.546 212C486.001 212 488.424 211.272 489.93 210.383C492.544 208.838 492.856 208.884 496.834 211.395C499.125 212.842 500.998 214.357 500.996 214.763C500.989 216.209 496.956 222.092 496.235 221.708C492.012 219.462 476 209.704 476 209.377C476 209.141 477.328 209.635 478.95 210.474C480.573 211.313 483.091 212 484.546 212ZM477.629 216.577C481.859 218.602 486.255 221.646 488.439 224.064C491.897 227.892 492.699 230.257 490.475 230.067C489.716 230.002 473.573 220.93 464.075 215.231C463.291 214.761 462.971 213.856 463.363 213.221C464.427 211.5 469.531 212.701 477.629 216.577ZM588 213C587.099 213.582 586.975 213.975 587.691 213.985C588.346 213.993 589.16 213.55 589.5 213C590.267 211.758 589.921 211.758 588 213ZM476.352 223.68C483.583 227.904 489.668 231.485 489.874 231.637C490.079 231.789 489.986 232.595 489.666 233.427C489.061 235.005 489.468 235.198 471.25 224.681C462.135 219.419 461 218.597 461 217.259C461 215.036 462.95 215.852 476.352 223.68ZM587 221.089C585.339 222.448 585.172 222.787 586.5 222.101C589.762 220.415 591.57 219.03 590.5 219.038C589.95 219.041 588.375 219.965 587 221.089ZM474.766 228.082C481.22 231.898 486.9 235.616 487.39 236.343C487.978 237.219 487.348 239.256 485.528 242.362L482.777 247.057L476.794 243.697C473.503 241.848 470.854 239.923 470.906 239.418C470.958 238.913 472.819 237.894 475.042 237.153C479.805 235.565 479.355 234.487 472.278 230.532C466.709 227.419 465.819 227.373 466.878 230.25C468.599 234.921 469.035 238 467.975 238C466.336 238 454 230.686 454 229.715C454 229.243 455.176 226.849 456.613 224.397C458.648 220.924 459.648 220.071 461.129 220.541C462.176 220.873 468.312 224.267 474.766 228.082ZM607.25 224.989C605.462 226.079 604 227.187 604 227.452C604 227.716 605.575 227.003 607.5 225.867C609.425 224.732 611 223.622 611 223.401C611 222.762 610.684 222.895 607.25 224.989ZM395.988 240.021C386.966 255.452 386.978 255.334 394.092 258.542L398.196 260.392L399.968 258.043C402.108 255.206 415 232.597 415 231.681C415 231.098 405.691 226 404.626 226C404.383 226 400.496 232.31 395.988 240.021ZM662.754 228.779C660.144 230.275 658.006 231.836 658.004 232.247C658.002 232.658 661.639 239.283 666.087 246.969L674.175 260.945L679.017 258.492C681.68 257.142 684.113 255.627 684.424 255.124C685.006 254.181 669.188 225.977 668.106 226.029C667.773 226.044 665.364 227.282 662.754 228.779ZM595.861 232.059L593.5 234.119L596.5 232.362C600.448 230.05 600.507 230 599.277 230C598.697 230 597.159 230.927 595.861 232.059ZM472.453 232.161C475.507 233.552 475.767 235.566 472.987 236.293C471.041 236.802 469 234.637 469 232.066C469 230.725 469.321 230.733 472.453 232.161ZM457.123 233.898C458.956 235.382 459.399 236.594 459.153 239.45C458.716 244.523 460.802 247.199 468.99 252.063C472.845 254.354 476 256.605 476 257.067C476 258.885 473.618 262.997 472.589 262.954C471.99 262.929 466.775 260.074 461 256.61C454.27 252.573 450.401 249.627 450.225 248.406C450.073 247.358 449.47 244.907 448.884 242.961C447.972 239.93 448.134 238.888 450.008 235.711C452.485 231.513 453.772 231.185 457.123 233.898ZM612 237.5C610.625 238.286 609.95 238.929 610.5 238.929C611.05 238.929 612.625 238.286 614 237.5C615.375 236.714 616.05 236.071 615.5 236.071C614.95 236.071 613.375 236.714 612 237.5ZM472.222 242.5C481.425 247.776 482.323 249.144 479.152 253.06L477.304 255.342L470.876 251.748C461.83 246.689 460.317 244.717 460.842 238.677C461.049 236.294 461.888 236.576 472.222 242.5ZM602.441 243.555C600.577 245.049 600.589 245.067 602.75 244.02C603.987 243.42 605 242.72 605 242.465C605 241.7 604.481 241.921 602.441 243.555ZM610.504 243.373C608.691 244.699 608.702 244.77 610.813 245.441C612.016 245.822 613 246.54 613 247.036C613 247.532 613.675 247.678 614.5 247.362C616.63 246.544 616.357 245.327 613.899 244.684C612.743 244.381 612.095 243.655 612.458 243.067C613.345 241.632 612.76 241.724 610.504 243.373ZM448.393 244.582C449.397 247.199 449.096 248 447.107 248C444.821 248 443.724 245.676 445.278 244.122C446.813 242.587 447.676 242.714 448.393 244.582ZM450.168 251.602C456.503 255.45 457.166 257.317 452.37 257.799C449.578 258.079 440 254.75 440 253.5C440 252.645 443.153 248 443.734 248C444.011 248 446.907 249.621 450.168 251.602ZM613 250.089C610.744 251.935 610.719 252.027 612.75 251.032C615.068 249.897 615.367 250.196 615.039 253.326C614.877 254.876 615.162 254.984 616.924 254.041C618.066 253.43 619 252.694 619 252.406C619 252.118 618.485 252.2 617.855 252.59C617.065 253.078 616.867 252.477 617.216 250.649C617.827 247.454 616.446 247.27 613 250.089ZM608 250C607.099 250.582 606.975 250.975 607.691 250.985C608.346 250.993 609.16 250.55 609.5 250C610.267 248.758 609.921 248.758 608 250ZM605.441 254.555C603.577 256.049 603.589 256.067 605.75 255.02C606.987 254.42 608 253.72 608 253.465C608 252.7 607.481 252.921 605.441 254.555ZM445 257.5C450.003 259.265 456.143 259.457 457.704 257.896C458.51 257.09 460.525 257.794 465.154 260.498C468.644 262.537 471.656 264.352 471.847 264.533C472.289 264.95 466.67 275 466 274.991C465.725 274.988 459.431 271.498 452.013 267.237C444.048 262.662 438.388 258.775 438.189 257.744C437.775 255.594 439.43 255.535 445 257.5ZM600.441 257.555C598.577 259.049 598.589 259.067 600.75 258.02C601.987 257.42 603 256.72 603 256.465C603 255.7 602.481 255.921 600.441 257.555ZM612.441 260.555C610.577 262.049 610.589 262.067 612.75 261.02C613.987 260.42 615 259.72 615 259.465C615 258.7 614.481 258.921 612.441 260.555ZM625.507 259.989C625.157 260.555 625.558 260.723 626.448 260.382C628.18 259.717 628.497 259 627.059 259C626.541 259 625.843 259.445 625.507 259.989ZM443.154 263.572C446.644 265.537 449.92 267.555 450.433 268.056C452.491 270.064 449.837 270.083 444.531 268.098C441.448 266.944 438.068 266 437.022 266C434.459 266 433.678 264.47 434.989 262.021C435.584 260.909 436.236 260 436.439 260C436.642 260 439.664 261.608 443.154 263.572ZM457.5 264C457.84 264.55 458.316 265 458.559 265C458.802 265 459 264.55 459 264C459 263.45 458.523 263 457.941 263C457.359 263 457.16 263.45 457.5 264ZM615.39 265.299C617.122 267.032 617.765 268.487 617.331 269.694C616.974 270.688 617.005 271.211 617.4 270.857C618.851 269.56 618.96 264 617.534 264C616.78 264 615.407 263.71 614.482 263.355C613.431 262.952 613.772 263.681 615.39 265.299ZM608.25 265.989C606.462 267.079 605 268.187 605 268.452C605 268.716 606.575 268.003 608.5 266.867C610.425 265.732 612 264.622 612 264.401C612 263.762 611.684 263.895 608.25 265.989ZM627.5 268.068C625.85 269.125 625.013 269.992 625.639 269.995C626.266 269.998 627.841 269.115 629.139 268.033C632.112 265.556 631.397 265.572 627.5 268.068ZM446.703 270.556C456.51 275.354 463.567 283.295 459.989 285.507C459.433 285.85 455.586 285.377 451.44 284.455C444.023 282.804 443.807 282.667 437.951 275.863C434.678 272.06 432 268.452 432 267.844C432 265.963 440.532 267.536 446.703 270.556ZM434.857 274.078C436.703 276.301 438.013 278.32 437.768 278.565C437.523 278.81 435.454 277.996 433.17 276.755C429.354 274.683 428.001 272.332 429.667 270.667C430.807 269.526 431.4 269.915 434.857 274.078ZM459.515 273.095C465.028 276.207 466.073 277.865 463.74 279.801C462.807 280.575 461.248 279.683 457.74 276.368C453.546 272.406 451.95 270 453.515 270C453.798 270 456.498 271.393 459.515 273.095ZM611.441 273.555C609.577 275.049 609.589 275.067 611.75 274.02C612.987 273.42 614 272.72 614 272.465C614 271.7 613.481 271.921 611.441 273.555ZM624.507 272.989C624.157 273.555 624.558 273.723 625.448 273.382C627.18 272.717 627.497 272 626.059 272C625.541 272 624.843 272.445 624.507 272.989ZM437.979 281.125C444.805 285.061 445.027 285.302 442.816 286.4C439.878 287.859 439.309 291.579 441.631 294.145C443.34 296.033 443.24 296.027 439.462 294.008C437.283 292.844 434.434 291.086 433.131 290.101L430.761 288.311L433.631 288.684C440.601 289.59 440.682 283.82 433.758 279.645C426.809 275.456 430.219 276.651 437.979 281.125ZM634.405 279.25L632.5 281.5L634.75 279.595C636.864 277.805 637.455 277 636.655 277C636.465 277 635.453 278.012 634.405 279.25ZM432.374 280.585C437.031 283.189 438.549 286.468 435.616 287.594C434.216 288.131 424 282.432 424 281.114C424 280.209 426.181 278 427.074 278C427.445 278 429.83 279.163 432.374 280.585ZM648.458 282.338C651.663 287.808 651.639 288.493 648.184 289.924C643.345 291.928 637.39 288.184 638.762 284C639.5 281.752 643.171 278 644.632 278C645.338 278 647.06 279.952 648.458 282.338ZM637.607 283.5C637.273 284.325 636.727 285.675 636.393 286.5C636.05 287.347 636.319 288 637.01 288C637.764 288 638.056 288.926 637.771 290.416C637.352 292.61 637.532 292.748 639.72 291.916C642.821 290.737 643.003 290.756 642.986 292.25C642.97 293.626 633.11 299.443 632.25 298.584C631.956 298.289 632.296 297.348 633.006 296.493C634.081 295.198 633.994 294.716 632.486 293.613C631.49 292.885 630.926 291.634 631.234 290.833C631.664 289.713 631.124 289.475 628.896 289.802C624.579 290.436 625.405 288.881 631.268 285.338C637.232 281.734 638.467 281.376 637.607 283.5ZM426.526 285.807C426.219 286.115 425.412 285.808 424.733 285.124C423.753 284.136 423.868 284.022 425.293 284.564C426.279 284.94 426.834 285.499 426.526 285.807ZM624.5 285C622.87 285.701 622.812 285.872 624.191 285.93C625.121 285.968 626.16 285.55 626.5 285C627.211 283.85 627.176 283.85 624.5 285ZM425.557 287.418C426.624 288.198 427.181 289.152 426.795 289.538C425.625 290.708 421 289.066 421 287.481C421 285.609 423.044 285.581 425.557 287.418ZM429.5 287C429.84 287.55 429.641 288 429.059 288C428.477 288 428 287.55 428 287C428 286.45 428.198 286 428.441 286C428.684 286 429.16 286.45 429.5 287ZM456.75 286.986C457.438 286.994 458 287.675 458 288.5C458 290.624 455.63 290.359 452.861 287.924L450.5 285.848L453 286.41C454.375 286.72 456.063 286.979 456.75 286.986ZM449.365 290.58C454.96 293.708 455.691 294.737 453.719 296.71C452.361 298.067 451.662 297.925 447.113 295.368C442.075 292.536 440.468 290.669 441.556 288.91C442.475 287.422 444.482 287.851 449.365 290.58ZM455 291.551C455 291.826 453.65 291.353 452 290.5C450.35 289.647 449 288.724 449 288.449C449 288.174 450.35 288.647 452 289.5C453.65 290.353 455 291.276 455 291.551ZM423.363 292.202C423.949 293.138 424.122 294.212 423.746 294.587C422.886 295.448 418 292.318 418 290.907C418 289.287 422.166 290.293 423.363 292.202ZM653.965 291.934C655.498 294.798 655.339 294.986 651.25 295.15L647.5 295.3L651.925 295.9C656.486 296.518 656.66 296.689 661.542 305.34C662.423 306.902 662.892 308.838 662.584 309.642C662.275 310.446 662.417 310.86 662.898 310.563C664.282 309.707 666.288 312.791 665.731 314.92C665.377 316.275 665.639 316.692 666.613 316.318C669.384 315.255 667.949 318.975 665 320.5C663.35 321.353 662 322.309 662 322.624C662 322.94 663.538 322.29 665.419 321.18C668.599 319.304 668.939 319.28 670.29 320.832C672.7 323.599 674.187 327.071 673.608 328.578C673.289 329.41 673.673 330 674.531 330C675.339 330 676 330.637 676 331.417C676 332.196 676.337 332.983 676.75 333.167C677.975 333.711 680.985 340 680.021 340C679.534 340 678.839 339.067 678.477 337.927C677.87 336.014 677.683 335.977 676.054 337.451C674.32 339.02 671 338.654 671 336.893C671 336.402 670.1 336 669 336C667.889 336 667 335.333 667 334.5C667 333.675 666.52 333 665.933 333C665.3 333 665.139 332.136 665.538 330.882C666.025 329.345 665.838 328.894 664.855 329.239C664.11 329.501 663.563 330.454 663.639 331.358C663.788 333.124 662.384 333.639 661.833 332.02C661.65 331.48 659.103 330.585 656.173 330.031C649.868 328.837 648.697 328.233 649.357 326.512C649.688 325.65 649.216 325.392 647.925 325.73C646.866 326.007 646 325.793 646 325.255C646 324.717 644.986 324.471 643.747 324.708C641.117 325.211 636 323.483 636 322.092C636 321.566 636.934 320.838 638.075 320.476C639.217 320.114 639.906 319.573 639.607 319.273C639.307 318.974 637.893 319.495 636.464 320.431C634.39 321.791 633.57 321.888 632.396 320.914C631.588 320.243 631.044 318.975 631.188 318.097C631.332 317.219 631.079 315.908 630.626 315.185C629.401 313.231 630.753 307.595 633.226 304.351L635.4 301.5L633.191 303.413C631.977 304.465 630.465 307.052 629.833 309.163C629.201 311.273 628.359 313 627.963 313C626.706 313 624.655 306.942 625.606 306.037C626.927 304.779 651.38 290.072 652.215 290.033C652.608 290.015 653.395 290.87 653.965 291.934ZM440.848 296.25C445.861 299.137 449.969 301.95 449.977 302.5C449.999 303.93 446.177 310.002 445.265 309.987C444.844 309.98 440.45 307.608 435.5 304.715C427.922 300.287 426.449 299.012 426.175 296.644C425.335 289.36 428.728 289.269 440.848 296.25ZM629.468 293.592C631.625 296.883 630.232 300.841 626.046 303.314L623.177 305.009L620.088 299.989C618.39 297.229 617 294.766 617 294.517C617 293.504 622.677 291.077 625.135 291.04C626.895 291.013 628.334 291.861 629.468 293.592ZM431.773 303.91C438.639 307.88 440.142 310 436.089 310C434.025 310 414 299.244 414 298.136C414 297.731 414.534 296.866 415.186 296.214C416.101 295.299 417.302 295.563 420.436 297.367C422.671 298.653 427.773 301.598 431.773 303.91ZM447 297C447.825 297.533 448.05 297.969 447.5 297.969C446.95 297.969 445.825 297.533 445 297C444.175 296.467 443.95 296.031 444.5 296.031C445.05 296.031 446.175 296.467 447 297ZM640.815 298.035C638.788 299.105 636.789 300.548 636.373 301.241C635.774 302.237 635.929 302.247 637.116 301.287C637.94 300.62 640.614 299.168 643.058 298.059C645.501 296.951 646.825 296.054 646 296.066C645.175 296.078 642.842 296.964 640.815 298.035ZM431.5 311.141C431.5 313.756 428.037 313.056 420.824 308.984C412.034 304.023 411.556 303.599 412.369 301.48C412.913 300.063 414.334 300.543 422.252 304.818C427.339 307.564 431.5 310.409 431.5 311.141ZM653.507 302.989C653.157 303.555 653.558 303.723 654.448 303.382C656.18 302.717 656.497 302 655.059 302C654.541 302 653.843 302.445 653.507 302.989ZM415.05 312.314C417.531 316.382 417.495 317.343 414.75 320.37C411.573 323.874 406.968 324.611 403.914 322.105L401.5 320.123L404.399 314.812C408.568 307.171 408.877 306.864 411.159 308.085C412.23 308.658 413.981 310.561 415.05 312.314ZM642.441 309.555C640.577 311.049 640.589 311.067 642.75 310.02C643.987 309.42 645 308.72 645 308.465C645 307.7 644.481 307.921 642.441 309.555ZM648.507 308.989C648.157 309.555 648.558 309.723 649.448 309.382C651.18 308.717 651.497 308 650.059 308C649.541 308 648.843 308.445 648.507 308.989ZM653.441 310.555C651.577 312.049 651.589 312.067 653.75 311.02C654.987 310.42 656 309.72 656 309.465C656 308.7 655.481 308.921 653.441 310.555ZM443.608 312.422C444.113 313.737 443.488 315.375 441.146 318.877C440.388 320.01 439.496 319.845 436.112 317.943C433.851 316.672 432 315.108 432 314.469C432 311.553 442.56 309.691 443.608 312.422ZM425.675 316.561C431.664 319.91 433.035 322.024 429.191 321.981C426.61 321.952 418 316.195 418 314.498C418 312.41 418.486 312.54 425.675 316.561ZM642.634 316.784C642.367 317.215 643.353 317.552 644.825 317.534C647.01 317.506 647.558 318.004 647.816 320.25C648.234 323.876 649.66 323.767 650.203 320.069C650.544 317.75 650.201 317.021 648.567 316.582C645.621 315.791 643.196 315.873 642.634 316.784ZM659.742 318.914C655.745 321.477 655.007 322.516 658.5 320.664C662.69 318.442 664.678 317.02 663.5 317.088C662.95 317.12 661.259 317.942 659.742 318.914ZM422.867 320.865C424.618 322.211 425.056 323.248 424.55 324.843C423.714 327.476 421.945 327.586 418.984 325.188C417.344 323.86 416.931 322.791 417.44 321.188C418.281 318.539 419.73 318.453 422.867 320.865ZM581.5 322.9C624.359 329.916 665.043 345.638 699.451 368.483C773.382 417.567 821.273 495.237 831.496 582.633C833.449 599.329 833.467 634.54 831.531 651.006C823.763 717.064 795.464 776.544 749.06 824.349C700.225 874.658 635.148 906.016 565.144 912.971C551.825 914.294 520.175 914.294 506.856 912.971C438.27 906.157 374.91 876.083 325.913 827.087C279.769 780.943 251.971 725.373 241.328 658C239.875 648.801 239.511 640.598 239.506 617C239.499 583.474 240.876 571.502 247.956 543.522C258.156 503.209 277.634 464.156 304.127 430.901C350.628 372.532 420.94 332.413 494 322.564C500.325 321.711 506.85 320.829 508.5 320.603C510.15 320.377 524.325 320.322 540 320.482C563.331 320.719 570.858 321.157 581.5 322.9ZM432.134 324.632C428.667 326.145 427.304 325.935 428.459 324.067C428.821 323.48 430.554 323.037 432.309 323.082L435.5 323.163L432.134 324.632ZM658.543 324.345C656.795 325.623 656.818 325.719 659.017 326.294C661.011 326.816 661.146 327.119 659.996 328.505C658.795 329.952 658.926 329.991 661.332 328.895C664.544 327.431 664.723 326.422 661.899 325.684C660.743 325.381 660.095 324.655 660.458 324.067C661.341 322.639 660.762 322.723 658.543 324.345ZM408.502 327.179L413.816 330.357L411.5 332.179C410.227 333.18 408.711 334 408.133 334C405.803 334 398 328.423 398 326.757C398 324.299 399.539 324.549 405.654 328C412.88 332.078 413.755 331.748 407.046 327.474C400.215 323.122 401.338 322.894 408.502 327.179ZM418.882 326.846C421.171 328.342 421.187 328.437 419.312 329.274C416.806 330.392 409.059 326.208 411.174 324.879C412.707 323.916 415.485 324.625 418.882 326.846ZM404.719 334.627C405.396 336.714 401.637 337.119 398.295 335.32C395.239 333.674 394.098 331.235 395.656 329.678C396.473 328.86 404.22 333.091 404.719 334.627ZM395.066 337.035C397.531 338.354 397.562 340 395.122 340C393.036 340 390.648 337.685 391.675 336.658C392.543 335.79 392.791 335.818 395.066 337.035ZM392 340.941C392 342.121 390.05 343.383 389.333 342.667C388.617 341.95 389.879 340 391.059 340C391.577 340 392 340.423 392 340.941ZM520 341.027C451.941 344.826 388.433 373.399 340.222 421.911C297.74 464.659 273.125 513.664 262.32 577C260.051 590.299 259.725 639.492 261.816 653C271.747 717.154 297.302 768.521 340.934 812.031C355.862 826.918 365.87 835.092 383.802 847.041C418.746 870.326 457.317 884.669 501 890.62C516.388 892.717 550.78 893.013 566.5 891.186C604.51 886.766 643.302 873.953 674.358 855.56C698.707 841.14 714.547 828.592 735.272 807.307C812.912 727.57 833.802 604.999 787.222 502.5C740.061 398.724 634.044 334.662 520 341.027ZM570.491 355.497C679.016 369.928 767.034 449.865 792.417 557.049C797.417 578.165 798.46 588.55 798.438 617C798.415 645.683 797.083 657.794 791.488 680.201C769.533 768.13 704.087 838.546 617.924 866.945C571.108 882.375 519.215 884.133 470.682 871.933C416.325 858.269 366.07 825.984 330.672 781.986C265.246 700.665 253.853 588.375 301.656 496C343.378 415.379 422.804 362.15 513.5 354.029C527.081 352.813 555.883 353.555 570.491 355.497ZM853.254 571C860.094 582.825 871.907 603.3 879.505 616.5C887.104 629.7 897.892 648.375 903.48 658C909.068 667.625 919.209 685.175 926.015 697C932.822 708.825 947.894 734.925 959.508 755C1013.65 848.593 1049.93 911.653 1050.54 913.25C1051.18 914.913 1040.67 915 838.407 915C721.363 915 626.028 914.63 626.55 914.178C627.073 913.727 631.325 912.101 636 910.566C640.675 909.032 648.3 906.251 652.944 904.388L661.389 901H840.694C939.312 901 1020 900.654 1020 900.232C1020 899.81 1018.95 897.897 1017.67 895.982C1015.21 892.319 1008.43 880.654 966.242 807.5C940.76 763.317 894.752 683.63 880.503 659C876.526 652.125 867.096 635.767 859.549 622.648L845.827 598.796L844.89 588.648C844.374 583.067 843.008 572.875 841.853 566C840.698 559.125 839.531 552.15 839.26 550.5C838.925 548.462 839.096 547.821 839.792 548.5C840.356 549.05 846.413 559.175 853.254 571ZM230.531 564.216C229.175 572.22 227.767 582.533 227.402 587.134C227.037 591.736 226.188 596.85 225.515 598.5C224.531 600.912 184.271 671.282 168.016 699C163.026 707.509 149.626 730.701 132.481 760.5C124.887 773.7 114.096 792.375 108.502 802C84.132 843.93 52 899.905 52 900.429C52 900.743 132.731 901 231.401 901H410.802L422.151 905.361C428.393 907.76 435.975 910.515 439 911.484C442.025 912.453 444.927 913.641 445.45 914.123C445.995 914.626 355.896 915 234.2 915C94.293 915 22 914.661 22 914.006C22 913.46 32.865 894.222 46.144 871.256C59.423 848.29 75.994 819.6 82.969 807.5C89.943 795.4 105.928 767.725 118.491 746C131.053 724.275 146.125 698.175 151.984 688C157.842 677.825 167.969 660.275 174.487 649C181.005 637.725 191.13 620.175 196.987 610C222.035 566.487 232.319 548.986 232.647 549.314C232.839 549.506 231.887 556.212 230.531 564.216ZM225.656 632.677C225.39 632.944 224.233 633.013 223.085 632.831L220.997 632.5L223.242 629L225.486 625.5L225.814 628.846C225.994 630.687 225.923 632.41 225.656 632.677ZM848.891 629.659C849.859 631.784 849.841 632.485 848.801 633.144C846.528 634.586 846 634.088 846 630.5C846 626.334 847.215 625.981 848.891 629.659ZM852 635.23C852 635.842 852.624 637.053 853.386 637.921C854.149 638.79 856.085 641.975 857.688 645C859.292 648.025 861.332 651.625 862.223 653C864.81 656.995 864.751 659.057 862 660.727L859.5 662.246L862 660.145C865.58 657.137 863.83 657.515 857.418 661.133C853.488 663.351 851.555 663.955 850.8 663.2C849.085 661.485 850.604 659.243 855 657C858.811 655.056 860.915 652.582 859.75 651.416C859.476 651.143 857.628 651.877 855.643 653.048C850.297 656.202 849.411 655.026 853.367 650.027C855.294 647.592 856.648 645.239 856.376 644.8C856.104 644.36 854.446 644.061 852.691 644.136C850.339 644.237 850.091 644.386 851.75 644.706C852.987 644.944 854 645.724 854 646.439C854 648.044 846.176 658 844.915 658C844.412 658 844 655.975 844 653.5C844 650.333 844.593 648.407 846 647C847.556 645.444 847.667 645 846.5 645C844.098 645 844.765 642.35 847.75 640.028C849.851 638.394 849.969 638.147 848.25 638.98C846.307 639.921 846 639.8 846 638.092C846 637.004 846.973 635.432 848.163 634.598C850.4 633.031 852 633.295 852 635.23ZM226.393 635.582C227.35 638.076 227.102 641 225.934 641C225.348 641 224.008 640.54 222.957 639.977C221.466 639.179 221.161 639.257 221.574 640.332C222.222 642.02 218.247 649.006 216.651 648.985C216.018 648.976 214.85 648.558 214.055 648.055C212.819 647.273 212.892 646.603 214.555 643.434C215.625 641.395 217.282 639.513 218.239 639.25C219.195 638.987 219.719 638.354 219.403 637.843C218.491 636.368 221.026 634 223.515 634C224.764 634 226.059 634.712 226.393 635.582ZM226.367 642.785C226.634 643.216 227.177 646.44 227.574 649.948C228.251 655.933 228.178 656.286 226.398 655.661C224.566 655.018 224.564 655.045 226.34 656.423C228.139 657.82 230.587 665.747 229.541 666.792C228.515 667.819 221.048 664.911 217.893 662.256C214.156 659.112 210.313 651.287 211.784 649.816C212.412 649.188 214.828 649.963 218.628 652.012C221.857 653.755 223.626 654.464 222.559 653.59C221.491 652.715 220.222 652 219.739 652C219.256 652 219.006 650.987 219.184 649.75C219.429 648.04 220.106 647.545 222.003 647.687C223.376 647.789 223.938 647.639 223.25 647.353C221.924 646.802 221.548 643.785 222.667 642.667C223.577 641.756 225.775 641.826 226.367 642.785ZM211.951 655.883C212.608 657.468 214.463 660.027 216.073 661.57C217.683 663.112 219 664.728 219 665.161C219 666.528 212.85 669.194 210.883 668.68C207.914 667.903 208.641 668.628 213.626 671.415C218.976 674.405 219.407 674.504 218.666 672.573C218.365 671.788 218.811 670.572 219.656 669.87C220.995 668.759 221.149 669.029 220.847 671.969C220.527 675.08 220.864 675.545 225.172 677.922C227.742 679.34 230.177 680.835 230.584 681.245C231.663 682.332 226.261 692.004 222.622 695.5C220.748 697.3 219.615 699.303 219.788 700.507C219.946 701.611 219.466 703.348 218.721 704.367C217.418 706.149 217.165 706.117 212.034 703.517C207.582 701.261 206.299 700.999 204.261 701.927C202.15 702.889 200.75 702.461 193.911 698.77C189.561 696.421 186.002 694.154 186.001 693.73C186 693.307 187.132 691.167 188.516 688.975L191.031 684.991L198.113 688.557C202.007 690.518 204.96 691.745 204.674 691.282C204.389 690.82 201.412 689.131 198.059 687.528C194.705 685.925 192.119 684.143 192.311 683.566C193.077 681.268 199.418 678.624 203.998 678.693C211.451 678.806 219.475 684.707 221.016 691.209C221.714 694.158 221.806 694.229 221.898 691.885C222 689.268 219.253 684.937 215.545 681.867C213.81 680.432 213.722 679.889 214.813 677.367L216.055 674.5L214.235 676.801C212.569 678.906 212.036 679.017 207.951 678.101C205.191 677.482 201.974 677.442 199.522 677.995C197.341 678.487 195.385 678.718 195.175 678.509C194.383 677.717 201.522 666 202.797 666C203.531 666 205.114 666.49 206.316 667.089C207.997 667.927 207.871 667.639 205.765 665.839L203.03 663.5L206.098 658.25C207.785 655.362 209.523 653 209.961 653C210.399 653 211.295 654.297 211.951 655.883ZM850.2 658.2C848.029 660.371 848.762 663.902 851.527 664.596C853.696 665.141 853.873 665.462 852.777 666.865C851.641 668.319 851.692 668.349 853.237 667.138C854.276 666.324 855.984 666.03 857.487 666.407C859.563 666.928 860 667.638 860 670.485C860 673.727 859.54 674.201 852.25 678.469C843.825 683.4 840.691 683.848 840.173 680.192C839.711 676.932 842.363 673.365 847.015 670.993C851.16 668.877 852.37 667.43 849.134 668.457C847.596 668.946 847.349 668.627 847.727 666.647C848.046 664.978 847.534 663.787 846.05 662.748C843.92 661.256 843.924 661.244 847.207 659.142C850.926 656.761 851.967 656.433 850.2 658.2ZM868.978 665.724C868.997 666.777 864.151 670 862.55 670C860.843 670 862.413 666.84 864.75 665.572C868.033 663.791 867.169 663.51 863.52 665.173C859.273 667.108 858.159 664.688 862.182 662.264L865.5 660.265L867.228 662.382C868.178 663.547 868.966 665.051 868.978 665.724ZM846.5 665.905C846.5 667.511 843.394 669.728 842.457 668.79C842.105 668.438 842.122 667.191 842.494 666.018C843.234 663.687 846.5 663.594 846.5 665.905ZM229.625 669.272C231.009 670.749 232.464 680.002 231.311 679.996C230.094 679.991 223.608 675.913 222.765 674.624C222.361 674.006 222.024 671.981 222.015 670.125C222 666.851 222.097 666.769 225.237 667.397C227.017 667.753 228.991 668.597 229.625 669.272ZM218.362 669.5C218.045 670.325 217.159 671 216.393 671C214.661 671 214.56 669.344 216.25 668.662C218.458 667.771 218.95 667.967 218.362 669.5ZM873.899 673.031C876.305 677.647 876.531 679.19 874.75 678.848C872.638 678.442 868.935 680.085 869.586 681.139C869.924 681.686 869.593 682.05 868.85 681.948C866.233 681.589 864.889 682.011 865.5 683C865.84 683.55 865.165 684 864 684C862.835 684 862.132 684.405 862.438 684.9C862.744 685.395 861.345 685.733 859.329 685.65C853.774 685.423 854.296 683.654 860.969 680.097C864.286 678.329 867 676.672 867 676.415C867 676.157 863.933 677.534 860.185 679.473C853.585 682.889 849 683.962 849 682.09C849 681.59 852.263 679.363 856.25 677.141C860.237 674.92 864.85 672.212 866.5 671.124C870.77 668.309 871.542 668.508 873.899 673.031ZM868.507 674.989C868.157 675.555 868.558 675.723 869.448 675.382C871.18 674.717 871.497 674 870.059 674C869.541 674 868.843 674.445 868.507 674.989ZM880.914 685.015C882.611 687.773 884 690.592 884 691.279C884 693.392 876.433 696.115 873.579 695.03C869.755 693.576 867.588 689.67 869.023 686.817C870.384 684.111 874.982 680.012 876.664 680.005C877.305 680.002 879.217 682.257 880.914 685.015ZM853.143 685.077C854.25 685.669 854.92 686.765 854.634 687.512C854.347 688.259 854.65 689.112 855.306 689.406C855.963 689.701 855.6 689.842 854.5 689.721C853.4 689.599 852.598 690.02 852.718 690.655C852.838 691.29 852.253 692.073 851.416 692.394C850.404 692.782 850.129 692.563 850.595 691.739C851.132 690.786 851.001 690.77 850.025 691.672C848.266 693.296 846.193 692.273 844.463 688.928C842.622 685.368 842.63 685.243 844.75 684.689C847.976 683.846 851.115 683.991 853.143 685.077ZM861 686.465C861 686.72 859.987 687.42 858.75 688.02C856.589 689.067 856.577 689.049 858.441 687.555C860.481 685.921 861 685.7 861 686.465ZM867.076 687.858C865.897 690.061 861.771 692.916 859.274 693.258C855.74 693.74 856.599 691.572 861 688.895C866.488 685.556 868.491 685.215 867.076 687.858ZM236.018 695.247C236.688 698.136 238.812 705.45 240.738 711.5C251.998 746.875 270.827 781.779 294.677 811.491C303.765 822.812 323.917 843.725 334.5 852.817L340.5 857.972L238.215 857.986L135.93 858L137.107 855.75C144.093 842.398 233.426 689.145 234.012 689.507C234.445 689.775 235.347 692.358 236.018 695.247ZM856.289 719C865.316 734.675 886.944 772.172 904.351 802.326C921.758 832.481 936 857.343 936 857.576C936 857.809 889.987 857.997 833.75 857.994L731.5 857.987L736.5 853.842C744.263 847.406 768.888 822.339 775.64 814C802.62 780.679 822.824 742.411 833.571 704.276C838.294 687.518 837.924 688.522 838.97 689.583C839.468 690.087 847.261 703.325 856.289 719ZM868.011 693.021C868.606 694.132 868.809 695.5 868.462 696.061C868.064 696.705 868.744 696.851 870.307 696.459C875.006 695.28 873.983 697.819 868.515 700.905C865.498 702.607 862.798 704 862.515 704C861.198 704 862.239 701.683 864.495 699.592L866.991 697.279L864.637 697.729C861.168 698.392 860.211 695.114 863.201 692.813C866.15 690.544 866.698 690.568 868.011 693.021ZM200.441 694.445C201.509 695.3 202.821 696 203.358 696C204.628 696 204.061 695.538 201 694.08C198.643 692.958 198.611 692.978 200.441 694.445ZM209 693.49C209 694.175 215.123 697.21 215.58 696.753C215.797 696.536 214.406 695.61 212.487 694.695C210.569 693.781 209 693.239 209 693.49ZM858.545 696.455C861.543 699.452 861.698 703.302 858.933 706.067C856.394 708.606 855.346 707.889 851.641 701.082C849.118 696.446 849.059 696.064 850.723 695.095C853.588 693.428 855.925 693.834 858.545 696.455ZM888.651 698.676C890.286 702.123 890.277 702.325 888.427 703.69C884.189 706.819 868.848 715.181 868.318 714.652C867.059 713.393 869.176 710.949 874.443 707.58C881.382 703.141 881.753 702.018 874.956 706.026C868.919 709.586 868.773 709.605 869.18 706.79C869.404 705.245 871.757 703.256 877 700.179C881.125 697.758 884.651 695.375 884.835 694.882C885.386 693.414 886.839 694.859 888.651 698.676ZM194.547 700.09C200.601 703.413 202 704.63 202 706.574C202 708.44 203.099 709.523 207 711.5C209.75 712.894 212 714.476 212 715.017C212 716.597 211.208 716.288 200.238 710.43C194.501 707.366 189.619 705.048 189.389 705.278C189.159 705.508 193.697 708.127 199.473 711.098C205.249 714.069 209.981 717.115 209.988 717.867C210 719.202 209.035 719.139 204.5 717.507C203.4 717.111 203.977 717.737 205.782 718.899C208.549 720.678 208.902 721.315 208.027 722.949C207.456 724.016 206.553 725.158 206.02 725.487C204.998 726.119 187.439 717.519 186.435 715.895C186.113 715.374 187.234 714.466 188.925 713.876C190.616 713.287 191.995 712.511 191.989 712.152C191.983 711.793 189.277 709.945 185.975 708.044C180.304 704.779 178.675 702.324 182.393 702.645C183.68 702.756 183.813 702.48 182.966 701.459C181.566 699.773 183.375 696 185.582 696C186.414 696 190.448 697.841 194.547 700.09ZM198.559 697.468C199.626 698.276 200.924 698.951 201.441 698.968C201.959 698.986 201.509 698.339 200.441 697.532C199.374 696.724 198.076 696.049 197.559 696.032C197.041 696.014 197.491 696.661 198.559 697.468ZM883.75 700.572C882.237 701.393 881 702.275 881 702.532C881 703.498 882.581 702.893 885 701C887.972 698.675 887.527 698.523 883.75 700.572ZM211.473 704.199C216.218 706.505 216.922 708.197 214.479 711.426C213.048 713.317 212.932 713.31 208.011 711.005C202.903 708.613 202.2 707.363 204.035 703.934C205.343 701.491 205.942 701.512 211.473 704.199ZM894.514 709.37C895.847 712.542 895.05 715 892.686 715C892.099 715 892.491 714.339 893.559 713.532C894.626 712.724 895.024 712.049 894.441 712.032C893.859 712.014 892.509 712.661 891.441 713.468C888.954 715.349 888 715.367 888 713.532C888 712.725 889.237 711.346 890.75 710.468C892.263 709.591 892.6 709.184 891.5 709.565C884.579 711.961 882.744 710.625 888.206 707.167C891.917 704.817 892.717 705.097 894.514 709.37ZM184.422 708.266C189.385 711.092 189.902 712.643 186.155 713.466C183.366 714.078 182.051 716.113 182.014 719.872C182.004 720.869 182.348 720.956 183.27 720.191C184.203 719.416 186.991 720.465 193.77 724.141C198.847 726.894 203 729.702 203 730.382C203 731.062 202.374 732.473 201.61 733.519C200.392 735.185 199.864 735.267 197.36 734.183L194.5 732.945L196.985 734.904C201.991 738.85 197.952 737.994 188 733C182.385 730.182 177.61 728.057 177.39 728.277C177.169 728.497 181.717 731.05 187.495 733.95C193.273 736.85 198 739.441 198 739.707C198 740.794 194.512 746 193.784 746C193.353 746 192.986 746.788 192.968 747.75C192.951 748.712 192.298 750.342 191.519 751.372C190.156 753.172 189.83 753.104 183.051 749.595C179.173 747.588 176 746.176 176 746.456C176 746.737 178.218 748.09 180.929 749.464C187.045 752.563 187.621 753.452 184.794 755.432C183.563 756.294 183.005 757 183.555 757C184.105 757 185.555 756.299 186.777 755.443C189.836 753.301 189.565 754.873 185.75 761.407C182.096 767.664 182.597 767.633 173 762.203C167.359 759.012 166.829 758.478 168.991 758.162C170.822 757.894 169.493 757.17 163.977 755.431C159.848 754.129 155.642 752.459 154.63 751.719C152.875 750.436 152.943 750.118 156.07 744.936C157.875 741.946 159.51 739.3 159.704 739.055C159.897 738.811 162.631 739.835 165.778 741.331C171.441 744.024 171.011 743.085 165.075 739.797C160.93 737.5 161.205 736.383 166.109 735.599C169.788 735.01 171.309 735.52 180.664 740.471C186.41 743.512 191.423 745.998 191.805 745.996C192.762 745.991 187.894 743.083 179.163 738.444C175.128 736.299 171.422 733.788 170.927 732.863C170.383 731.846 169.274 731.377 168.126 731.677C166.041 732.222 164.505 730.609 165.53 728.951C165.97 728.24 166.652 728.296 167.652 729.126C168.907 730.168 169.026 729.953 168.454 727.675C167.666 724.534 168.724 724.289 173.16 726.583C174.843 727.453 175.955 727.737 175.632 727.213C175.308 726.689 173.683 725.697 172.021 725.009C170.36 724.321 169 723.437 169 723.045C169 721.051 170.851 721.403 177.222 724.612C181.062 726.546 184.425 727.908 184.694 727.64C184.963 727.371 184.85 726.104 184.443 724.825C183.822 722.87 183.608 722.771 183.102 724.203C182.54 725.794 182.237 725.785 178.5 724.062C170.384 720.321 170.378 720.303 174.686 712.726C176.784 709.037 178.95 706.022 179.5 706.026C180.05 706.03 182.265 707.038 184.422 708.266ZM867.115 708.25C867.515 712.596 865.064 718 862.693 718C861.24 718 857.509 712.158 858.395 711.272C859.77 709.896 864.598 707.14 865.75 707.073C866.438 707.033 867.052 707.563 867.115 708.25ZM883.453 711.161C886.29 712.453 886.758 715.099 884.542 717.315C882.918 718.939 868.549 727.004 867.297 726.994C866 726.983 862.842 720.756 863.707 719.912C864.916 718.732 879.402 710.047 880.203 710.022C880.59 710.01 882.052 710.522 883.453 711.161ZM898.964 716.433C900.349 719.02 899.553 723.513 898.12 721.195C897.537 720.25 896.24 720.565 892.798 722.489C888.394 724.951 884.517 725.022 885.27 722.627C885.606 721.556 895.858 714.095 897.081 714.031C897.401 714.014 898.248 715.095 898.964 716.433ZM197.272 723.153C201.797 725.437 204.942 727.497 204.261 727.732C203.58 727.967 200.43 726.697 197.261 724.909C184.853 717.91 184.86 716.888 197.272 723.153ZM884.647 722.182C884.526 724.8 884.943 725.477 887 725.996C889.339 726.587 889.146 726.832 884 729.804C878.06 733.235 874.395 734.276 879.75 731.011C883.706 728.599 884.035 725.429 880.497 723.817L877.994 722.676L880.747 720.911C884.547 718.475 884.815 718.563 884.647 722.182ZM903.446 723.72C904.211 725.713 903.828 726.06 899.801 727.014C896.669 727.755 896.641 727.801 899.25 727.898C908.229 728.232 892.033 742.247 880.95 743.734C874.629 744.581 874.647 741.933 881.005 735.495C885.541 730.902 887.005 730.039 891.393 729.373C894.444 728.909 895.594 728.449 894.25 728.229C891.61 727.797 891.308 726.48 893.643 725.583C894.547 725.237 895.035 724.702 894.729 724.395C894.422 724.089 893.12 724.349 891.836 724.974C889.605 726.059 889.588 726.04 891.448 724.55C892.519 723.693 894.117 723.22 895 723.5C895.883 723.78 897.462 723.382 898.511 722.616C900.689 721.023 902.573 721.445 903.446 723.72ZM881.444 725.91C882.481 727.587 880.941 729.658 877.403 731.345C875.473 732.265 874.15 733.433 874.463 733.94C874.776 734.447 874.506 735.187 873.862 735.585C873.131 736.037 872.959 735.876 873.405 735.155C873.851 734.432 873.387 734 872.166 734C869.556 734 868.416 730.907 870.579 729.696C871.951 728.928 872.001 728.601 870.87 727.818C869.86 727.118 870.025 727.006 871.5 727.391C872.6 727.678 874.625 727.273 876 726.492C878.927 724.828 880.661 724.643 881.444 725.91ZM907.456 730.915C908.577 733.082 908.631 733.971 907.699 734.91C906.765 735.852 906.864 735.98 908.149 735.491C910.68 734.528 911.417 736.867 909.348 739.296C907.754 741.168 907.74 741.28 909.25 740.11C911.278 738.539 913.448 739.783 914.289 742.998C914.693 744.541 913.501 745.641 908.363 748.465C904.825 750.409 901.497 752 900.966 752C898.79 752 900.235 748.091 903.75 744.464C906.332 741.8 906.732 741.079 905.033 742.148C901.701 744.244 898.704 748.415 898.523 751.208C898.362 753.691 890.145 760 887.072 760C886.112 760 884.539 758.366 883.461 756.25C882.411 754.188 881.408 752.217 881.233 751.87C881.057 751.524 883.071 750.004 885.707 748.493C900.581 739.965 905.987 736.654 905.624 736.291C905.401 736.067 902.982 737.26 900.248 738.942C892.231 743.876 890.765 742.82 897.207 736.75C900.271 733.862 903.085 730.481 903.461 729.235C904.266 726.567 905.469 727.073 907.456 730.915ZM167 734.107C167 734.598 166.1 735 165 735C163.051 735 162.394 733.939 163.598 732.736C164.399 731.934 167 732.983 167 734.107ZM879.09 735.832C877.43 738.933 875.06 740.46 873.824 739.224C873.036 738.436 873.672 737.56 876.116 736.07C880.244 733.554 880.312 733.548 879.09 735.832ZM890.753 743.25C890.526 743.938 888.245 745.798 885.685 747.385C881.845 749.764 880.764 750.049 879.515 749.012C877.284 747.16 877.672 745.008 880.25 744.944C881.487 744.913 884.075 744.291 886 743.563C890.635 741.809 891.243 741.769 890.753 743.25ZM172 744.393C172 744.609 172.698 745.054 173.552 745.382C174.442 745.723 174.843 745.555 174.493 744.989C173.906 744.038 172 743.583 172 744.393ZM918.195 749.569C922.396 756.482 923.529 759.313 922.263 759.74C921.583 759.97 920.008 761.058 918.763 762.159L916.5 764.16L918.973 762.58C922.722 760.184 924.597 760.651 926.901 764.557C929.705 769.31 929.555 770.528 925.979 772.009C924.317 772.697 922.695 773.685 922.374 774.204C922.053 774.723 923.62 774.214 925.856 773.074C930.661 770.622 931 770.576 931 772.378C931 773.136 929.987 774.454 928.75 775.307L926.5 776.859L928.898 776.274L931.297 775.689L929.398 778.913C926.922 783.117 922.001 786.81 915.08 789.657C908.011 792.565 904.576 792.729 905.257 790.127C905.643 788.651 905.321 788.365 903.739 788.778C899.183 789.97 903.057 786.273 911.305 781.558C916.06 778.841 919.763 776.429 919.534 776.2C919.305 775.971 916.503 777.354 913.309 779.273C910.114 781.192 906.047 783.498 904.272 784.396L901.043 786.029L898.522 782.034C897.135 779.837 896 777.356 896 776.52C896 775.684 895.562 775 895.026 775C894.49 775 893.366 773.674 892.528 772.054L891.005 769.108L897.752 765.06C906.078 760.064 905.149 759.7 896.467 764.556L890.109 768.111L888.54 765.077C886.973 762.046 886.975 762.041 890.736 759.703C903.024 752.066 905.783 750.907 910.695 751.326C913.338 751.551 914.263 751.541 912.75 751.304C909.423 750.783 909.168 748.705 912.25 747.224C915.255 745.781 916.094 746.111 918.195 749.569ZM893 750C893 750.55 893.477 751 894.059 751C894.641 751 894.84 750.55 894.5 750C894.16 749.45 893.684 749 893.441 749C893.198 749 893 749.45 893 750ZM167.434 760.318C174.548 764.268 180.562 768.105 180.799 768.846C181.046 769.617 180.64 770.043 179.848 769.846C177.34 769.219 152 754.619 152 753.801C152 752.132 154.881 753.348 167.434 760.318ZM156.04 758.02C158.218 759.132 160 760.194 160 760.381C160 760.568 157.301 760.671 154.002 760.611C147.868 760.497 147.555 760.322 148.607 757.582C149.414 755.478 151.272 755.588 156.04 758.02ZM174.25 758.689C175.213 758.941 176.787 758.941 177.75 758.689C178.713 758.438 177.925 758.232 176 758.232C174.075 758.232 173.287 758.438 174.25 758.689ZM907.988 761.306C912.722 762.926 912.92 765.268 908.551 767.968C906.598 769.175 905 770.378 905 770.641C905 770.903 905.516 770.799 906.147 770.409C906.973 769.899 907.147 771.002 906.77 774.35C906.482 776.908 906.613 779 907.061 779C908.199 779 916.93 773.632 916.968 772.908C916.986 772.583 915.2 771.777 913 771.118C910.8 770.459 909 769.571 909 769.145C909 768.719 910.634 767.591 912.631 766.639L916.263 764.907L912.937 762.454C911.108 761.104 908.461 760.025 907.056 760.056C904.793 760.106 904.9 760.25 907.988 761.306ZM164.651 765.26C169.665 768.221 174 773.845 174 777.386C174 779.633 173.33 779.475 165.717 775.433C162.023 773.471 159 772.114 159 772.416C159 772.719 161.363 774.163 164.25 775.625C174.109 780.619 174.135 780.648 172.261 784.58C171.364 786.461 170.142 788 169.545 788C168.949 788 164.194 783.679 158.98 778.398C152.044 771.373 150.171 768.977 152 769.469C153.65 769.913 153.037 769.238 150.196 767.482C145.562 764.618 145.226 762.944 149.074 761.893C153.196 760.767 159.268 762.08 164.651 765.26ZM157.368 778.461C160.595 781.561 162.99 784.343 162.691 784.643C162.116 785.217 141.365 774.4 140.568 773.11C140.313 772.697 141.011 770.867 142.12 769.043L144.136 765.727L147.818 769.276C149.843 771.227 154.14 775.361 157.368 778.461ZM173.972 767.986C178.884 770.492 179.552 771.601 177.949 774.595C176.342 777.597 175.33 777.642 174.451 774.75C174.075 773.513 172.672 771.038 171.333 769.25C168.489 765.453 168.756 765.325 173.972 767.986ZM155.733 771.124C156.412 771.808 157.219 772.115 157.526 771.807C157.834 771.499 157.279 770.94 156.293 770.564C154.868 770.022 154.753 770.136 155.733 771.124ZM899.5 773C897.85 774.093 896.95 774.987 897.5 774.987C898.05 774.987 899.85 774.093 901.5 773C903.15 771.907 904.05 771.013 903.5 771.013C902.95 771.013 901.15 771.907 899.5 773ZM913.458 772.932C914.287 774.273 909.797 777.197 908.658 776.058C907.237 774.637 908.701 772 910.91 772C911.994 772 913.141 772.419 913.458 772.932ZM182.848 789.281C178.09 797.652 168.283 814.751 161.056 827.279C153.828 839.808 147.661 850.72 147.35 851.529C146.859 852.81 152.604 853 191.893 853C224.892 853 237 852.695 237 851.864C237 850.888 229.209 837.111 198.92 784.529C195.761 779.045 192.799 774.447 192.338 774.311C191.877 774.174 187.607 780.911 182.848 789.281ZM874.224 782.75C871.46 787.563 861.504 804.903 852.099 821.284C842.695 837.665 835 851.502 835 852.034C835 852.641 851.712 853 880 853C905.426 853 925 852.615 925 852.115C925 851.629 921.249 844.766 916.665 836.865C912.081 828.964 902.069 811.59 894.415 798.255C886.762 784.921 880.218 774.008 879.874 774.005C879.53 774.002 876.987 777.938 874.224 782.75ZM151.642 780.599C159.659 784.9 161.836 786.493 161.026 787.469C160.212 788.449 160.89 788.887 163.986 789.382C168.424 790.091 168.706 790.734 166.474 795.05C164.743 798.397 163.025 798.718 159.434 796.365C158.061 795.465 156.685 794.982 156.376 795.291C156.067 795.6 157.318 796.618 159.157 797.553C160.996 798.489 162.629 799.364 162.787 799.498C163.359 799.983 160.657 805 159.824 805C159.354 805 156.502 803.607 153.485 801.905C150.468 800.202 148 799.044 148 799.331C148 799.618 150.475 801.269 153.5 803C158.992 806.142 160.333 808.275 157.5 809.362C156.675 809.678 156 810.825 156 811.91C156 812.994 155.512 814.184 154.915 814.553C153.778 815.255 147 812.068 147 810.83C147 810.437 148.912 809.943 151.25 809.732C155.188 809.378 155.096 809.333 150 809.131C146.975 809.011 142.719 808.278 140.541 807.502L136.583 806.092L139.394 808.334C140.94 809.566 143.396 811.925 144.852 813.576C146.309 815.227 147.098 815.987 146.607 815.265C145.244 813.259 146.699 812.542 149.524 813.829C152.493 815.182 153.72 817.68 152.175 819.225C151.388 820.012 150.65 819.954 149.519 819.016C148.194 817.916 148.051 817.968 148.584 819.359C148.931 820.261 148.778 821 148.245 821C146.294 821 122 805.853 122 804.637C122 803.947 122.593 802.571 123.318 801.58C124.565 799.875 124.942 799.95 130.318 802.984C133.443 804.748 136 805.949 136 805.653C136 805.357 133.75 803.852 131.001 802.308C127.925 800.58 126.002 798.815 126.001 797.719C125.999 794.735 128.652 794.686 133.954 797.571C138.233 799.9 139.383 800.147 141.49 799.187C142.857 798.564 144.769 798.309 145.738 798.621C147.007 799.03 147.139 798.929 146.208 798.259C145.497 797.748 144.566 796.018 144.139 794.415C143.46 791.867 139.214 788.448 134.5 786.654C133.95 786.445 133.791 785.959 134.146 785.575C134.501 785.19 138.888 786.933 143.896 789.448C148.903 791.962 153 793.797 153 793.524C153 793.252 150.333 791.682 147.073 790.037C139.869 786.4 138.145 784.378 143.095 785.37C144.968 785.746 148.3 786.257 150.5 786.507C152.7 786.757 150.225 786.026 145 784.884C139.775 783.741 135.368 782.681 135.207 782.527C134.426 781.782 138.552 775 139.787 775C140.566 775 145.9 777.52 151.642 780.599ZM934.891 778.659C936.292 781.736 937.191 780.9 924.75 788.092C916.422 792.906 912.676 795.77 918.95 792.526C922.797 790.536 923.284 790.601 922.035 792.934C921.466 793.998 921 796.211 921 797.853C921 800.162 920.239 801.307 917.632 802.918C913.029 805.763 911.467 805.541 909.927 801.824C908.758 799.001 908.81 798.528 910.392 797.574C914.556 795.063 915.218 794.086 911.655 795.709C907.923 797.41 907.768 797.403 906.36 795.48C904.993 793.614 905.136 793.461 908.85 792.82C916.81 791.446 929.978 782.795 931.525 777.922C932.365 775.276 933.458 775.515 934.891 778.659ZM921.984 778.972C920.068 780.056 915.904 782.373 912.732 784.121C909.56 785.868 907.151 787.484 907.379 787.712C907.813 788.146 926 778.062 926 777.387C926 776.76 925.644 776.901 921.984 778.972ZM201.775 798.271C206.876 807.197 215.484 822.15 220.904 831.5L230.758 848.5L192.725 848.762C171.806 848.906 154.464 848.798 154.188 848.521C153.647 847.981 191.165 782.008 192 782.029C192.275 782.036 196.674 789.345 201.775 798.271ZM898.976 814C907.94 829.675 916.15 843.962 917.219 845.75L919.163 849H880.582C859.362 849 842.007 848.663 842.015 848.25C842.027 847.622 869.003 800.391 877.505 786.112C879.933 782.033 880.208 781.857 881.398 783.612C882.102 784.65 890.012 798.325 898.976 814ZM938.906 785.868C941.34 789.286 941.166 789.499 931.178 795.317C923.777 799.629 922 799.888 922 796.655C922 793.88 923.689 792.287 930.758 788.395C933.832 786.702 935.817 784.981 935.539 784.25C934.653 781.925 936.85 782.981 938.906 785.868ZM138.304 789.978C143.233 793.104 144.248 795.72 141.435 798.054C140.126 799.141 138.982 798.918 134.435 796.687C128.653 793.852 128.083 792.754 130.557 789.223C132.535 786.398 132.682 786.412 138.304 789.978ZM155.75 787.662C156.438 787.94 157.563 787.94 158.25 787.662C158.938 787.385 158.375 787.158 157 787.158C155.625 787.158 155.063 787.385 155.75 787.662ZM942 791.958C942 792.485 939.975 794.102 937.5 795.553C935.025 797.003 933 798.415 933 798.69C933 798.965 935.055 797.986 937.567 796.514C942.535 793.602 945 793.768 945 797.015C945 799.542 936.262 803.975 931.25 803.99C927.442 804.002 927.114 802.89 930.25 800.603C931.851 799.435 931.346 799.522 928.5 800.903C926.3 801.97 923.6 803.583 922.5 804.487C920.58 806.065 920.578 806.091 922.458 805.159C923.535 804.625 926.685 804.41 929.458 804.681C933.662 805.093 935.46 804.686 940.278 802.228C950.702 796.911 947.253 800.653 935.279 807.651C928.834 811.418 922.695 814.847 921.635 815.271C920.576 815.696 919.965 816.298 920.276 816.61C920.588 816.921 922.83 816.012 925.259 814.588C927.688 813.165 929.974 812 930.338 812C931.686 812 930.935 814.817 928.841 817.615L926.682 820.5L929.39 817.929C930.879 816.514 932.175 814.322 932.271 813.056C932.514 809.826 935.775 808.034 943.15 807.077C948.343 806.404 948.771 806.224 945.5 806.094L941.5 805.933L943.861 803.967C945.159 802.885 946.739 802 947.371 802C948.003 802 950.26 805.263 952.386 809.25C954.512 813.237 956.758 817.175 957.376 818C960.958 822.78 961.07 823.815 958.226 825.804C953.595 829.044 934.166 840 933.053 840C929.99 840 933.32 837.457 945.556 830.45C959.048 822.724 960.499 821.053 953.75 821.015C950.413 820.997 950.238 819.8 953.25 817.603C955.409 816.028 955.268 815.984 949.75 816.529C943.335 817.163 942.218 815.973 946.937 813.533C948.552 812.698 950.213 811.449 950.629 810.757C951.204 809.8 951.04 809.763 949.942 810.605C949.149 811.212 945.35 813.415 941.5 815.5C934.019 819.55 927.08 824 928.244 824C928.633 824 930.425 823.102 932.226 822.004C936.421 819.446 938.696 819.468 939.524 822.075C939.886 823.217 940.029 824.245 939.841 824.361C932.344 828.985 928.597 831 927.501 831C925.63 831 924.575 827.217 925.975 825.531C926.892 824.425 926.713 824.262 925.057 824.695C922.5 825.364 922.311 823.277 924.75 821.305C926.318 820.037 926.256 820.008 924.164 821.026C922.88 821.651 921.712 822.013 921.568 821.831C921.425 821.649 920.599 820.039 919.732 818.252C918.241 815.181 918.265 814.928 920.168 813.595C922.065 812.266 921.991 812.195 918.876 812.343C914.621 812.545 913.802 809.867 917.59 808.141C919.058 807.472 919.968 806.634 919.613 806.279C919.257 805.924 918.434 806.166 917.783 806.817C916.318 808.282 913.707 808.379 914.183 806.95C914.587 805.74 938.869 791.255 940.75 791.102C941.438 791.046 942 791.431 942 791.958ZM126.516 809.75C130.228 811.971 131.031 812.94 130.688 814.786C130.292 816.921 130.381 816.965 132.047 815.457C133.69 813.97 134.035 813.977 136.415 815.537C137.837 816.468 139 817.426 139 817.665C139 819.185 135.73 824 134.697 824C132.216 824 129.067 820.992 129.695 819.223C130.205 817.786 129.974 817.832 128.304 819.5L126.302 821.5L130.401 823.5C134.164 825.336 134.526 825.859 134.814 829.882C135.181 835.002 135.02 834.994 126.301 829.416C120.846 825.926 120.682 825.701 122.549 824.249C124.305 822.883 124.317 822.794 122.668 823.365C121.661 823.714 119.636 824.026 118.168 824.059C115.046 824.128 114.348 823.603 129 832.196C134.775 835.583 139.65 838.462 139.834 838.594C140.751 839.253 135.907 848 134.624 848C132.398 848 129 842.62 129 839.096C129 837.393 129.477 836 130.059 836C130.641 836 130.84 835.55 130.5 835C129.503 833.387 126.993 833.818 127.635 835.492C128.483 837.701 125.229 838.517 123.134 836.621C122.149 835.73 120.952 835 120.474 835C119.997 835 121.448 836.355 123.7 838.011C130.173 842.771 130.341 845.779 123.95 842.474C118.728 839.774 120.807 841.74 127.25 845.595C130.688 847.651 133.705 849.502 133.956 849.706C134.63 850.257 130.827 857 129.843 857C129.379 857 129 858.63 129 860.622C129 863.729 129.214 864.068 130.5 863C131.799 861.922 132.021 862.474 132.157 867.128L132.314 872.5L132.907 867.5L133.5 862.5L137.75 862.193L142 861.885V870.443C142 878.21 141.174 880.708 139.5 878C138.015 875.598 137 877.402 137 882.441C137 885.434 136.641 888.104 136.202 888.375C134.191 889.618 133.071 886.894 132.747 879.971L132.397 872.5L132.199 880.25C132.087 884.618 131.564 888 131 888C130.45 888 129.971 887.212 129.937 886.25C129.888 884.909 129.662 885.026 128.969 886.75L128.064 889H101.591C86.321 889 74.874 888.606 74.542 888.069C74.032 887.243 96.845 846.99 101.217 841.001C102.735 838.922 103.235 838.786 105.529 839.831C107.355 840.663 108.031 841.65 107.812 843.164C107.64 844.346 108.064 845.506 108.753 845.741C109.558 846.016 109.916 845.35 109.753 843.88C109.405 840.735 114.173 838.302 117.613 839.87C122.245 841.98 119.92 840.053 113.509 836.468C106.165 832.361 105.776 831.969 107.049 829.952C107.828 828.718 108.607 828.842 112.233 830.779C114.58 832.032 115.6 832.389 114.5 831.572C108.166 826.868 108.347 827.119 110.234 825.651C111.188 824.909 111.638 823.943 111.234 823.503C110.831 823.064 111.486 822.947 112.69 823.243C114.562 823.703 114.724 823.53 113.801 822.053C112.944 820.68 113.49 818.949 116.447 813.662C118.496 809.998 120.565 807 121.045 807C121.526 807 123.987 808.237 126.516 809.75ZM946.508 820.427C942.442 822.888 940 822.494 940 819.378C940 818.382 941.455 818.001 945.25 818.005L950.5 818.01L946.508 820.427ZM145.632 821.082C147.484 822.226 149 823.607 149 824.149C149 825.599 141.628 837.958 140.75 837.981C140.338 837.991 139.1 837.1 138 836C135.345 833.345 135.339 826.596 137.989 822.25C140.316 818.433 141.143 818.307 145.632 821.082ZM947.965 823.934C949.532 826.863 949.304 827.318 945.044 829.75C940.395 832.405 938.437 832.581 937.607 830.418C936.579 827.739 936.865 827.284 941.25 824.641C946.412 821.528 946.663 821.502 947.965 823.934ZM954.281 823.5C954.66 825.232 950.298 825.219 949.633 823.487C949.146 822.218 949.558 821.937 951.537 822.184C952.926 822.358 954.161 822.95 954.281 823.5ZM963.974 829.197C965.308 831.391 965.606 832.77 964.924 833.592C964.211 834.45 964.435 834.748 965.715 834.645C970.323 834.271 966.558 838.007 956.308 843.979C950.152 847.566 944.752 850.898 944.308 851.385C943.273 852.52 945.188 851.497 957.941 844.103C963.684 840.773 968.567 838.233 968.791 838.458C969.539 839.206 967.993 840.857 965.23 842.26C963.729 843.023 958.097 846.202 952.715 849.324C942.651 855.161 939.684 856.29 942.12 853.356C943.325 851.903 943.242 851.788 941.408 852.371C939.746 852.898 938.955 852.332 937.448 849.534C935.223 845.401 935.112 845.527 946.25 839.507L953 835.859V838.43C953 839.843 953.257 841 953.572 841C954.49 841 963 835.86 963 835.306C963 835.029 961.39 835.752 959.423 836.913C955.427 839.27 953.931 838.98 954.711 835.999C954.998 834.9 954.897 834 954.485 834C954.074 834 949.806 836.25 945 839C935.71 844.316 933.659 844.961 934.177 842.403C934.497 840.821 958.334 826.165 960.765 826.057C961.46 826.025 962.904 827.439 963.974 829.197ZM932.986 830.75C932.943 833.151 931.588 836 930.49 836C928.336 836 927.818 832.858 929.733 831.405C931.724 829.893 933.007 829.635 932.986 830.75ZM937 832.952C937 834.725 934.252 836.585 933.194 835.528C932.909 835.242 933.2 833.856 933.842 832.448C935.103 829.679 937 829.982 937 832.952ZM108.165 836.585C110.373 837.727 110.926 838.474 110.142 839.258C108.693 840.707 104 838.616 104 836.521C104 834.619 104.374 834.625 108.165 836.585ZM984.519 864.5C991.823 877.15 997.592 887.837 997.34 888.25C996.748 889.219 945.852 889.205 944.4 888.235C943.795 887.831 943.043 886.825 942.729 886C942.274 884.805 942.142 884.856 942.079 886.25C941.99 888.218 939.009 888.7 938.985 886.75C938.974 885.916 938.656 885.996 938.026 886.992C936.792 888.944 934.462 886.844 935.336 884.567C936.025 882.771 938 882.441 938 884.122C938 884.913 938.431 884.887 939.456 884.036C940.257 883.372 941.382 883.118 941.956 883.473C942.615 883.88 942.977 882.713 942.937 880.309C942.884 877.145 942.727 876.864 942.007 878.648C940.761 881.735 939.142 882.414 936.457 880.977C934.809 880.095 933.989 878.636 933.72 876.109C933.509 874.124 933.261 875.912 933.168 880.083C933.076 884.254 932.716 887.951 932.369 888.298C932.021 888.645 930.896 888.48 929.869 887.93C928.841 887.38 928 887.333 928 887.826C928 888.319 926.875 888.508 925.5 888.245L923 887.767V875.5C923 861.926 922.933 862.049 930.357 862.014C932.554 862.003 933.074 862.365 932.607 863.582C932.273 864.452 932 865.559 932 866.043C932 866.526 931.012 867.842 929.806 868.967C928.104 870.551 927.88 871.28 928.806 872.206C929.731 873.131 930 873.045 930 871.822C930 870.955 930.675 869.685 931.5 869C932.758 867.956 933.025 868.137 933.157 870.128C933.244 871.432 933.581 870.25 933.907 867.5L934.5 862.5L938.749 862.418C943.815 862.32 944.504 861.81 943.102 859.191C941.86 856.87 943.997 854.401 946.436 855.337C947.286 855.663 948.127 855.187 948.446 854.199C948.988 852.52 950.233 851.685 961 845.775C964.025 844.115 966.941 842.348 967.479 841.849C968.018 841.35 969.084 841.067 969.848 841.221C970.613 841.374 977.215 851.85 984.519 864.5ZM146.779 875.25L146.5 888.5H142.5H138.5L138.195 883.75C137.912 879.343 139 877.573 140.5 880C142.186 882.728 143 880.177 143 872.167C143 863.15 143.305 862 145.696 862C146.791 862 147.003 864.597 146.779 875.25ZM150 866.441C150 868.884 150.45 871.16 151 871.5C151.55 871.84 152 871.641 152 871.059C152 870.477 153.125 870 154.5 870C155.875 870 157 870.54 157 871.2C157 872.069 157.302 872.098 158.094 871.306C159.385 870.015 158.913 866.42 157.486 866.679C156.39 866.877 153 864.088 153 862.987C153 862.601 157.725 862.301 163.5 862.321L174 862.358V867.762C174 873.984 172.26 874.532 170.306 868.925C169.361 866.211 169.101 865.976 169.056 867.795C169.025 869.058 170.125 871.216 171.5 872.591C174.573 875.664 174.692 879.346 171.87 884C169.229 888.357 168.076 889.111 165.865 887.928C164.756 887.334 163.896 887.359 163.502 887.997C162.559 889.523 160 889.194 160 887.547C160 885.043 162.261 881 163.661 881C164.397 881 165.067 880.1 165.15 879C165.233 877.9 165.345 876.438 165.4 875.75C165.464 874.954 164.483 874.619 162.697 874.829C161.155 875.009 159.243 874.617 158.447 873.956C157.264 872.974 157 873.131 157 874.819C157 875.953 157.45 877.16 158 877.5C158.55 877.84 159 877.641 159 877.059C159 876.477 159.9 876 161 876C163.45 876 163.51 877.151 161.279 881.3C159.636 884.353 159.541 884.393 159.198 882.162C158.903 880.246 158.404 879.933 156.434 880.427C154.749 880.85 153.399 880.399 151.916 878.916L149.801 876.801L150.151 882.064C150.388 885.647 150.101 887.461 149.25 887.747C148.292 888.068 148 885.107 148 875.083C148 867.028 148.384 862 149 862C149.55 862 150 863.998 150 866.441ZM178.15 864.75L178.3 867.5L178.722 864.69C179.055 862.472 179.603 861.945 181.322 862.19C183.114 862.445 183.555 863.262 183.81 866.8C184.07 870.412 183.63 871.657 181.06 874.585C179.377 876.501 178.018 878.841 178.039 879.785C178.061 880.733 178.71 880.046 179.491 878.25C180.268 876.462 181.572 875 182.388 875C183.314 875 184.025 876.224 184.277 878.25C184.498 880.038 184.752 877.19 184.84 871.922L185 862.345L193.584 862.27L202.168 862.196L201.61 864.848C201.076 867.393 201.098 867.41 202.179 865.25C202.799 864.013 203.912 863 204.653 863C205.711 863 206 865.686 206 875.5C206 888.34 205.314 890.284 202.559 885.25L201.054 882.5L201.652 885.75C202.11 888.24 201.899 889 200.747 889C197.961 889 197.031 886.457 197.34 879.691C197.507 876.034 197.336 872.544 196.96 871.936C196.584 871.327 196.195 874.336 196.095 878.624C195.873 888.2 195.064 889.659 194.823 880.917L194.647 874.5L194.073 881.5C193.521 888.244 193.409 888.49 191 888.224C189.625 888.073 187.713 887.932 186.75 887.912C185.561 887.887 184.956 887.013 184.864 885.188L184.728 882.5L184.279 885C183.668 888.405 182.585 889.32 180.101 888.532C178.703 888.088 177.96 886.967 177.882 885.183C177.765 882.53 177.756 882.534 177.11 885.5C176.751 887.15 176.196 888.05 175.876 887.5C175.095 886.157 174.785 864.157 175.53 862.952C176.667 861.112 178.002 862.029 178.15 864.75ZM209.779 875.25C209.412 892.664 207.596 892.489 207.221 875.003C206.98 863.777 207.155 862 208.5 862C209.846 862 210.02 863.8 209.779 875.25ZM222 867.5C222 873.462 221.924 873.562 218.684 871.836C216.71 870.784 216.632 870.832 217.872 872.336C218.973 873.671 218.998 874.297 218 875.5C215.863 878.075 214.704 877.214 215.306 873.5C215.619 871.575 215.453 870 214.937 870C214.422 870 214 872.025 214 874.5C214 879.515 214.639 879.915 218 877C219.268 875.9 220.708 875 221.199 875C221.69 875 221.958 878.038 221.796 881.75L221.5 888.5H216.5H211.5L211.221 875.25L210.942 862H216.471H222V867.5ZM231 868.545C231 874.214 230.661 875.43 228.472 877.619C227.081 879.01 225.393 879.966 224.722 879.744C223.469 879.33 222.411 865.979 223.422 863.344C223.719 862.57 225.435 862 227.469 862H231V868.545ZM239 871.499V880.998L235.117 884.999C229.677 890.605 223 890.537 223 884.877C223 882.552 223.684 881.641 226.403 880.345C230.708 878.292 232 875.431 232 867.953V862H235.5H239V871.499ZM251.142 872.75C251.23 879.427 251.514 882.014 251.892 879.578C252.594 875.051 255 873.402 255 877.449C255 878.887 255.675 881.68 256.5 883.654C258.556 888.574 258.413 889.181 255.29 888.816C253.389 888.595 252.373 887.753 251.889 886C251.256 883.707 251.191 883.681 251.1 885.691C250.987 888.174 249.456 889.546 248.508 888.014C248.083 887.325 247.237 887.338 245.902 888.053C244.814 888.635 243.041 888.831 241.962 888.488C240.303 887.961 240 886.949 240 881.933C240 875.406 241.559 874.105 244.443 878.223C245.299 879.445 246 879.908 246 879.252C246 878.597 244.65 877.062 243 875.842C240.343 873.877 240 873.036 240 868.479C240 865.649 240.3 863.033 240.667 862.667C241.033 862.3 243.508 862 246.167 862H251L251.142 872.75ZM258 862.386C258 862.598 257.328 864.06 256.506 865.636C255.685 867.211 255.01 869.55 255.006 870.833C254.996 874.695 252.531 872.716 252.183 868.568C251.754 863.449 252.479 862 255.469 862C256.861 862 258 862.174 258 862.386ZM264.219 866.75C265.377 869.362 266.32 872.625 266.315 874C266.3 877.65 261.993 887 260.326 887C255.959 887 254.431 868.496 258.434 864.073C261.129 861.095 261.861 861.433 264.219 866.75ZM266.968 865.25C266.938 868.324 266.857 868.395 265.468 866.559C263.577 864.059 263.592 862 265.5 862C266.532 862 266.99 863.014 266.968 865.25ZM275 867.57C275 872.766 274.85 873.118 272.76 872.82C270.206 872.455 269.534 870.295 270.453 865.4C270.92 862.91 271.614 862 273.045 862C274.751 862 275 862.71 275 867.57ZM287.479 866.25C287.883 868.587 288.435 869.919 288.704 869.208C289.081 868.216 289.52 868.187 290.597 869.081C291.501 869.831 292.067 872.603 292.189 876.872L292.378 883.5L292.739 877.75C293.047 872.839 293.384 872 295.05 872C296.82 872 297 872.734 297 879.941C297 887.95 295.701 891.07 294.133 886.831L293.283 884.533L292.574 886.766C292.184 887.995 291.501 889 291.055 889C289.492 889 287.783 886.009 288.411 884.372C288.76 883.462 288.779 881.878 288.453 880.851C287.912 879.149 287.671 879.117 285.708 880.492C282.701 882.598 280.073 882.371 279.168 879.926C278.746 878.785 277.973 877.824 277.45 877.79C276.928 877.757 275.501 877.274 274.28 876.718C271.035 875.239 269.172 877.291 268.732 882.83C268.528 885.398 268.353 881.875 268.343 875C268.332 867.15 268.544 864.511 268.913 867.905C269.549 873.759 271.682 875.695 275.377 873.771C276.727 873.068 277.499 873.173 278.126 874.147C278.663 874.98 278.761 874.266 278.381 872.285C278.042 870.517 278.063 867.48 278.427 865.535C279.049 862.22 279.328 862 282.918 862C286.638 862 286.765 862.118 287.479 866.25ZM297 866.5C297 871.775 295.948 872.101 291.923 868.077C287.725 863.878 288.057 862 293 862H297V866.5ZM314.867 871.136C315.013 879.197 314.854 880.124 313.516 879.013C311.679 877.489 311.502 870.906 313.25 869.129C314.258 868.104 313.919 867.985 311.5 868.513C309.85 868.873 307.943 869.338 307.263 869.547C305.246 870.167 300.574 865.552 301.301 863.658C301.801 862.354 303.299 862 308.319 862H314.701L314.867 871.136ZM327 863.418C327 866.157 325.732 868.087 323.006 869.497C319.607 871.254 319 870.699 319 865.833C319 862.028 319.029 862 323 862C325.786 862 327 862.43 327 863.418ZM337.5 871.391C337.5 878.724 337.198 880.473 335.774 881.371C334.456 882.202 333.333 882.037 331.024 880.673L328 878.887V883.384C328 888.363 326.751 889.864 324.294 887.836C323.08 886.835 322.574 886.799 322.273 887.694C322.052 888.35 321.225 888.64 320.435 888.337C319.354 887.922 319 885.82 319 879.823C319 872.138 319.078 871.872 321.25 872.18C322.682 872.384 323.863 871.802 324.5 870.579C326.499 866.738 327.879 867.694 328.26 873.185C328.538 877.171 328.676 876.423 328.815 870.193L329 861.885L333.25 862.193L337.5 862.5V871.391ZM345.811 866.824C346.146 871.478 344.723 874.215 342.427 873.334C341.432 872.952 341 871.132 341 867.323C341 862.231 341.152 861.883 343.25 862.18C345.128 862.447 345.551 863.215 345.811 866.824ZM729.132 865.75L729.263 869.5L730 866C730.547 863.4 730.771 864.751 730.868 871.25C730.988 879.206 731.834 881.696 733.5 879C735.051 876.491 736.082 878.395 735.802 883.25L735.5 888.5L730.672 888.808C726.388 889.081 725.777 888.864 725.259 886.882L724.675 884.647L723.846 886.888C722.128 891.531 721 887.636 721 877.063C721 869.233 721.371 865.937 722.342 865.131C723.08 864.519 723.97 864.303 724.318 864.652C724.667 865.001 725.237 864.547 725.583 863.643C726.787 860.506 728.994 861.816 729.132 865.75ZM740.116 864.349C740.202 865.937 740.348 866.059 740.677 864.816C741.227 862.732 744.208 862.162 754.653 862.142C763.776 862.125 765.582 863.158 767.016 869.209C767.695 872.078 767.808 872.172 767.898 869.941C767.954 868.534 767.339 866.509 766.532 865.441C764.459 862.701 764.655 861.812 767.25 862.18C769.434 862.491 769.507 862.872 769.732 875.202C769.878 883.16 769.576 888.144 768.925 888.546C768.354 888.899 766.747 888.902 765.355 888.553C763.141 887.997 762.989 887.703 764.145 886.209C765.337 884.666 765.266 884.67 763.404 886.25C762.27 887.212 760.59 888 759.671 888C758.752 888 757.971 887.212 757.937 886.25C757.888 884.909 757.662 885.026 756.969 886.75C756.244 888.554 755.277 889 752.091 889C749.906 889 747.826 888.528 747.47 887.951C747.031 887.241 746.34 887.303 745.33 888.141C744.181 889.095 743.407 889.111 741.965 888.21C740.754 887.454 739.875 887.393 739.477 888.037C738.104 890.259 737 887.543 737 881.941C737 876.454 736.023 874.536 734.49 877.016C733.046 879.352 732 876.45 732 870.108C732 866.382 732.21 863.123 732.468 862.866C732.725 862.609 734.525 862.353 736.468 862.298C739.414 862.215 740.019 862.555 740.116 864.349ZM784 863.566C784 867.187 781.998 869 778 869C775.138 869 773.789 868.474 773.035 867.066C770.781 862.853 771.617 862 778 862C782.779 862 784 862.319 784 863.566ZM790 863.035C790 863.707 790.614 863.745 791.75 863.144C792.712 862.634 799.03 862.283 805.788 862.362C815.498 862.476 818.275 862.82 819.023 864.003C819.854 865.317 819.971 865.31 819.985 863.942C819.996 862.742 821.146 862.385 825 862.385C829.658 862.385 830.01 862.56 830.15 864.942C830.298 867.477 830.303 867.475 830.716 864.75C830.948 863.223 831.77 862 832.566 862C833.7 862 834.04 864.04 834.191 871.75L834.383 881.5L834.941 872L835.5 862.5L841.297 862.29C845.953 862.121 847.232 862.417 847.797 863.79C848.219 864.817 849.699 865.551 851.5 865.628L854.5 865.756L851.75 864.685C847.358 862.974 848.537 862 855 862C860.036 862 861.005 862.281 861.03 863.75C861.059 865.417 861.109 865.417 862.08 863.75C862.783 862.543 864.346 862 867.117 862C870.812 862 871.082 862.181 870.475 864.25L869.815 866.5L871.464 864.25C872.371 863.013 873.538 862 874.057 862C874.599 862 875 867.521 875 875C875 885.763 874.747 888 873.532 888C872.725 888 871.387 886.763 870.559 885.25L869.054 882.5L869.652 885.75C870.215 888.812 870.081 889 867.325 889C862.848 889 862.015 887.41 861.85 878.55C861.768 874.122 861.512 871.745 861.282 873.267C861.052 874.789 860.516 875.819 860.09 875.556C859.665 875.293 859.741 877.542 860.26 880.553C861.565 888.124 861.04 889 855.198 889C852.522 889 850.002 888.668 849.596 888.263C849.191 887.857 848.119 887.52 847.215 887.513C846.31 887.506 844.586 885.749 843.384 883.608L841.198 879.717L839.675 882.661C838.173 885.566 838.188 885.605 840.81 885.553C842.682 885.516 843.581 886.082 843.849 887.468C844.143 888.982 843.915 889.205 842.865 888.436C842.114 887.886 839.25 887.592 836.5 887.782C833.75 887.972 826.55 888.202 820.5 888.293L809.5 888.458L809.202 881.001C808.953 874.783 809.202 873.31 810.702 872.137C812.427 870.788 812.425 870.757 810.668 871.365C809.661 871.714 808.536 871.999 808.168 871.998C807.801 871.998 807.5 875.71 807.5 880.248V888.5L803 888.29C800.525 888.174 797.604 888.042 796.509 887.996C795.414 887.95 793.19 886.694 791.567 885.206L788.616 882.5L790.297 885.198C792.203 888.257 791.291 889.362 787.623 888.441L785.153 887.822L785.462 875.661C785.633 868.972 785.823 863.163 785.886 862.75C786.062 861.591 790 861.864 790 863.035ZM879.529 867.612C879.022 871.673 879.14 873.032 879.956 872.527C880.767 872.026 881.002 874.172 880.792 880.165C880.56 886.778 880.19 888.5 879 888.5C877.843 888.5 877.555 887.413 877.742 883.75C877.877 881.111 877.544 879 876.992 879C875.891 879 875.587 863.747 876.667 862.667C877.033 862.3 877.985 862 878.782 862C879.958 862 880.098 863.056 879.529 867.612ZM895.789 869.898C895.531 876.681 895.257 877.606 893.25 878.487C892.013 879.03 891 880.268 891 881.237C891 882.207 890.533 883 889.962 883C889.391 883 889.054 884.237 889.212 885.75C889.477 888.281 889.221 888.5 886 888.5H882.5L882.215 878.25C882.048 872.231 882.323 868 882.882 868C883.405 868 884.022 868.337 884.253 868.75C884.483 869.163 884.519 868.896 884.332 868.157C882.64 861.484 882.148 862.059 889.44 862.183L896.079 862.296L895.789 869.898ZM903 863.122C903 863.905 903.448 863.873 904.479 863.017C905.576 862.107 906.739 862.062 908.979 862.843C910.809 863.481 912 863.522 912 862.948C912 862.427 914.25 862 917 862C921.627 862 922 862.181 922 864.427C922 867.355 917.493 871.215 914.565 870.794C913.201 870.599 912.299 869.495 911.875 867.5C911.524 865.85 911.212 869 911.182 874.5C911.144 881.406 911.407 883.804 912.031 882.25C913.16 879.441 915.935 879.374 919.365 882.073C922.31 884.389 922.824 887.47 920.418 888.393C917.433 889.539 912.947 889.026 912.35 887.471C911.844 886.15 911.586 886.184 910.463 887.72C909.348 889.244 908.72 889.333 906.085 888.338C904.246 887.644 902.778 887.55 902.435 888.105C901.242 890.036 900 887.72 900 883.563C900 880.945 899.41 878.755 898.5 878C897.433 877.114 897 874.771 897 869.878C897 862.684 897.42 861.852 899.59 864.75C900.782 866.342 900.849 866.297 900.334 864.25C899.921 862.611 900.206 862 901.383 862C902.273 862 903 862.505 903 863.122ZM187.158 866C187.158 867.375 187.385 867.938 187.662 867.25C187.94 866.563 187.94 865.438 187.662 864.75C187.385 864.063 187.158 864.625 187.158 866ZM196 865.5C196 866.325 196.375 867 196.833 867C197.292 867 197.667 866.325 197.667 865.5C197.667 864.675 197.292 864 196.833 864C196.375 864 196 864.675 196 865.5ZM757.3 869C757.3 872.025 757.487 873.263 757.716 871.75C757.945 870.237 757.945 867.763 757.716 866.25C757.487 864.737 757.3 865.975 757.3 869ZM797.336 871C797.336 875.125 797.513 876.813 797.728 874.75C797.944 872.688 797.944 869.313 797.728 867.25C797.513 865.188 797.336 866.875 797.336 871ZM942.3 869C942.3 872.025 942.487 873.263 942.716 871.75C942.945 870.237 942.945 867.763 942.716 866.25C942.487 864.737 942.3 865.975 942.3 869ZM128.5 866C128.101 866.646 128.224 867.624 128.774 868.174C129.441 868.841 130.016 868.783 130.5 868C130.899 867.354 130.776 866.376 130.226 865.826C129.559 865.159 128.984 865.217 128.5 866ZM155 868.122C155 869.328 152.262 869.232 151.5 868C150.419 866.251 152.022 864.773 153.589 866.074C154.365 866.718 155 867.64 155 868.122ZM351 867C351 867.55 351.788 868.016 352.75 868.036C354.87 868.08 359.455 871.84 360.307 874.233C360.692 875.314 361.522 875.737 362.511 875.358C363.881 874.832 364.056 875.685 363.799 881.614C363.548 887.373 363.201 888.536 361.644 888.833C358.571 889.42 357.827 887.659 359.477 883.709C360.315 881.704 360.976 879.487 360.946 878.782C360.916 878.077 360.128 879.488 359.196 881.917C358.263 884.347 356.931 886.524 356.235 886.756C355.478 887.008 353.927 884.898 352.371 881.5C350.367 877.121 349.916 874.929 350.398 871.912C350.779 869.528 350.628 868 350.012 868C349.455 868 349 867.55 349 867C349 866.45 349.45 866 350 866C350.55 866 351 866.45 351 867ZM856.5 870C857.353 871.65 858.276 873 858.551 873C858.826 873 858.353 871.65 857.5 870C856.647 868.35 855.724 867 855.449 867C855.174 867 855.647 868.35 856.5 870ZM902.221 868.983C903.768 871.459 904.214 871.488 905.641 869.204C906.616 867.641 906.385 867.379 903.862 867.186C901.187 866.982 901.059 867.122 902.221 868.983ZM200.158 870C200.158 871.375 200.385 871.938 200.662 871.25C200.94 870.563 200.94 869.438 200.662 868.75C200.385 868.063 200.158 868.625 200.158 870ZM720 878.059C720 888.909 719.199 889.896 716.068 882.904L714.345 879.054L712.71 882.481C711.34 885.354 711.312 885.817 712.538 885.347C713.431 885.005 714 885.386 714 886.326C714 887.39 713.072 887.84 711 887.781L708 887.696V881.405C708 876.037 708.326 874.885 710.223 873.557C713.272 871.421 713.803 871.576 714.284 874.75C714.624 876.993 714.728 876.818 714.85 873.8C714.986 870.444 716.749 868.132 719.25 868.03C719.663 868.014 720 872.527 720 878.059ZM750.158 870C750.158 871.375 750.385 871.938 750.662 871.25C750.94 870.563 750.94 869.438 750.662 868.75C750.385 868.063 750.158 868.625 750.158 870ZM187.16 874.784C187.271 878.756 187.446 879.432 187.731 877C188.257 872.523 189.268 871.538 191.893 872.943C195.384 874.811 194.261 873.351 190.5 871.133L187 869.067L187.16 874.784ZM303.5 874.5C303.5 877.478 303.02 879.493 302.25 879.75C301.348 880.051 301 878.589 301 874.5C301 870.411 301.348 868.949 302.25 869.25C303.02 869.507 303.5 871.522 303.5 874.5ZM774 870.475C774 871.581 774.751 871.8 777 871.35C779.645 870.821 780.011 871.031 780.09 873.125C780.165 875.096 780.34 874.948 781.119 872.25C782.56 867.26 784 868.385 784 874.5C784 879.828 782.713 881.822 781.579 878.25C780.819 875.853 775.408 876.081 773.509 878.589C772.194 880.328 772.061 879.983 772.032 874.75C772.014 871.562 772.446 869 773 869C773.55 869 774 869.664 774 870.475ZM743 870.846C743 872.133 747.234 874.166 748.104 873.296C748.595 872.805 747.674 871.938 745.986 871.301C744.344 870.681 743 870.476 743 870.846ZM804 871C804 871.55 804.477 872 805.059 872C805.641 872 805.84 871.55 805.5 871C805.16 870.45 804.684 870 804.441 870C804.198 870 804 870.45 804 871ZM922 875.5C922 879.534 921.629 881 920.607 881C918.882 881 918 878.83 918 874.585C918 871.05 918.611 870 920.667 870C921.616 870 922 871.583 922 875.5ZM925 871.559C925 872.416 925.457 872.835 926.016 872.49C926.575 872.144 926.774 871.443 926.457 870.931C925.6 869.544 925 869.802 925 871.559ZM310.5 874C310.5 875.833 309.898 876.585 308.246 876.82C306.893 877.012 305.75 876.512 305.389 875.57C304.393 872.975 305.788 870.831 308.246 871.18C309.898 871.415 310.5 872.167 310.5 874ZM341.111 877.333L339 879.444V875.222V871L341.111 873.111L343.222 875.222L341.111 877.333ZM348 875.622C348 878.409 347.711 879.005 346.75 878.204C345.775 877.392 345.5 878.409 345.5 882.832C345.5 887.833 345.265 888.5 343.5 888.5C341.792 888.5 341.456 887.732 341.197 883.239C340.966 879.21 341.258 877.838 342.447 877.382C343.301 877.054 344 876.321 344 875.753C344 874.915 346.781 872.155 347.75 872.032C347.887 872.014 348 873.63 348 875.622ZM740.158 874C740.158 875.375 740.385 875.938 740.662 875.25C740.94 874.563 740.94 873.438 740.662 872.75C740.385 872.063 740.158 872.625 740.158 874ZM915.816 875.327C916.069 877.464 915.719 878 914.066 878C912.568 878 912 877.358 912 875.667C912 871.126 915.285 870.834 915.816 875.327ZM150.079 874.583C150.127 875.748 150.364 875.985 150.683 875.188C150.972 874.466 150.936 873.603 150.604 873.271C150.272 872.939 150.036 873.529 150.079 874.583ZM729.16 874.691C728.978 877.188 727.446 878.531 726.51 877.016C725.105 874.742 724.009 876.249 724.16 880.25C724.299 883.934 724.374 884.067 724.723 881.25C725.154 877.783 725.887 877.287 727.783 879.183C729.493 880.893 730.201 879.68 729.731 875.846C729.505 874.006 729.248 873.486 729.16 874.691ZM787.195 875.5C787.215 877.15 787.439 877.704 787.693 876.731C787.947 875.758 787.93 874.408 787.656 873.731C787.382 873.054 787.175 873.85 787.195 875.5ZM323.195 876.5C323.215 878.15 323.439 878.704 323.693 877.731C323.947 876.758 323.93 875.408 323.656 874.731C323.382 874.054 323.175 874.85 323.195 876.5ZM868.079 875.583C868.127 876.748 868.364 876.985 868.683 876.188C868.972 875.466 868.936 874.603 868.604 874.271C868.272 873.939 868.036 874.529 868.079 875.583ZM757.252 878.5C757.263 880.7 757.468 881.482 757.707 880.238C757.946 878.994 757.937 877.194 757.687 876.238C757.437 875.282 757.241 876.3 757.252 878.5ZM878.079 876.583C878.127 877.748 878.364 877.985 878.683 877.188C878.972 876.466 878.936 875.603 878.604 875.271C878.272 874.939 878.036 875.529 878.079 876.583ZM886.031 875.5C886.031 876.05 886.467 877.175 887 878C887.533 878.825 887.969 879.05 887.969 878.5C887.969 877.95 887.533 876.825 887 876C886.467 875.175 886.031 874.95 886.031 875.5ZM754.232 879C754.232 880.925 754.438 881.712 754.689 880.75C754.941 879.788 754.941 878.212 754.689 877.25C754.438 876.288 754.232 877.075 754.232 879ZM767.158 878C767.158 879.375 767.385 879.938 767.662 879.25C767.94 878.563 767.94 877.438 767.662 876.75C767.385 876.063 767.158 876.625 767.158 878ZM819 877C819 877.55 819.45 878 820 878C820.55 878 821 877.55 821 877C821 876.45 820.55 876 820 876C819.45 876 819 876.45 819 877ZM827.186 877.055C825.913 877.565 825.165 878.459 825.525 879.04C825.978 879.773 826.597 879.749 827.545 878.962C828.297 878.338 829.382 878.118 829.956 878.473C830.53 878.828 831 878.416 831 877.559C831 875.802 830.481 875.733 827.186 877.055ZM274.811 882.412C275.014 885.599 274.676 887.582 273.845 888.096C271.855 889.325 270 887.088 270 883.459C270 878.92 270.955 876.845 272.876 877.21C274.057 877.434 274.585 878.852 274.811 882.412ZM368.692 878.092C369.991 879.391 369.185 887.185 367.648 888.184C365.705 889.447 365 887.917 365 882.441C365 876.964 366.177 875.577 368.692 878.092ZM707 882.393C707 888.389 706.356 889.011 700.168 888.985C692.262 888.952 692.191 885.206 700 880.099C706.423 875.898 707 876.087 707 882.393ZM822 878.5C822 879.325 822.45 880 823 880C823.55 880 824 879.325 824 878.5C824 877.675 823.55 877 823 877C822.45 877 822 877.675 822 878.5ZM200.158 880C200.158 881.375 200.385 881.938 200.662 881.25C200.94 880.563 200.94 879.438 200.662 878.75C200.385 878.063 200.158 878.625 200.158 880ZM313.42 880.912C314.443 882.042 315.017 883.983 314.825 885.662C314.505 888.455 314.397 888.5 308 888.5C301.972 888.5 301.476 888.332 301.173 886.192C300.993 884.923 301.566 882.785 302.446 881.442C304.499 878.31 310.79 878.005 313.42 880.912ZM782.42 880.912C783.443 882.042 784.017 883.983 783.825 885.662C783.512 888.396 783.299 888.5 778 888.5C772.701 888.5 772.488 888.396 772.175 885.662C771.764 882.067 774.445 879 778 879C779.48 879 781.468 879.86 782.42 880.912ZM814.079 880.583C814.127 881.748 814.364 881.985 814.683 881.188C814.972 880.466 814.936 879.603 814.604 879.271C814.272 878.939 814.036 879.529 814.079 880.583ZM899 883.531C899 888.583 896.967 890.395 894.295 887.723C893.169 886.598 892.929 885.191 893.418 882.587C893.973 879.628 894.52 879 896.545 879C898.79 879 899 879.387 899 883.531ZM266.602 887.595C265.871 889.5 263 889.384 263 887.45C263 886.598 263.786 884.461 264.748 882.7L266.495 879.5L266.818 882.845C266.996 884.685 266.898 886.823 266.602 887.595ZM352.368 883.646C354.222 887.533 353.422 889.76 350.567 888.664C349.503 888.256 349 886.769 349 884.031C349 879.028 350.106 878.902 352.368 883.646ZM375.5 885.622C375.5 888.021 375.086 888.5 373.014 888.5C370.262 888.5 369.417 886.461 370.454 882.327C371.043 879.981 371.233 879.911 373.293 881.278C374.718 882.225 375.5 883.763 375.5 885.622ZM187.195 883.5C187.215 885.15 187.439 885.704 187.693 884.731C187.947 883.758 187.93 882.408 187.656 881.731C187.382 881.054 187.175 881.85 187.195 883.5ZM246.079 882.583C246.127 883.748 246.364 883.985 246.683 883.188C246.972 882.466 246.936 881.603 246.604 881.271C246.272 880.939 246.036 881.529 246.079 882.583ZM765.564 882.707C765.022 884.132 765.136 884.247 766.124 883.267C766.808 882.588 767.115 881.781 766.807 881.474C766.499 881.166 765.94 881.721 765.564 882.707ZM155 882.878C155 883.36 154.365 884.282 153.589 884.926C152.022 886.227 150.419 884.749 151.5 883C152.262 881.768 155 881.672 155 882.878ZM797.158 884C797.158 885.375 797.385 885.938 797.662 885.25C797.94 884.563 797.94 883.438 797.662 882.75C797.385 882.063 797.158 882.625 797.158 884ZM834.079 883.583C834.127 884.748 834.364 884.985 834.683 884.188C834.972 883.466 834.936 882.603 834.604 882.271C834.272 881.939 834.036 882.529 834.079 883.583ZM281.5 885.833C281.5 888.924 279.564 888.582 279.173 885.422C278.945 883.578 279.246 882.915 280.173 883.224C280.903 883.468 281.5 884.642 281.5 885.833ZM285.82 885.172C285.348 888.373 283 888.716 283 885.583C283 883.903 283.549 883 284.57 883C285.612 883 286.032 883.729 285.82 885.172ZM333.396 884.59C334.076 886.363 333.378 888 331.941 888C331.423 888 331 886.875 331 885.5C331 882.703 332.459 882.149 333.396 884.59ZM338 885.5C338 887.056 337.433 888 336.5 888C335.567 888 335 887.056 335 885.5C335 883.944 335.567 883 336.5 883C337.433 883 338 883.944 338 885.5ZM156.968 887.061C155.892 889.07 154.817 889.483 153.664 888.331C152.765 887.431 156.034 883.903 157.136 884.584C157.614 884.88 157.538 885.994 156.968 887.061ZM173.562 887.7C173.097 888.911 172.643 889.043 171.81 888.21C170.976 887.376 171.04 886.656 172.056 885.433C173.607 883.564 174.584 885.035 173.562 887.7ZM239 885.941C239 888.291 237.726 889.216 235.609 888.403C234.403 887.941 234.274 887.357 235.053 885.9C236.379 883.424 239 883.451 239 885.941ZM381.379 886.545C382.048 888.289 380.679 889.198 378.59 888.396C376.998 887.785 376.475 885.858 377.598 884.736C378.48 883.853 380.766 884.947 381.379 886.545ZM692.267 888.133C691.644 888.756 690.36 888.968 689.414 888.605C687.821 887.994 687.835 887.84 689.597 886.54C691.804 884.91 694.113 886.287 692.267 888.133ZM717 887.618C717 888.443 716.55 888.84 716 888.5C715.45 888.16 715 887.207 715 886.382C715 885.557 715.45 885.16 716 885.5C716.55 885.84 717 886.793 717 887.618Z" fill="white"/>
</svg>
