<svg width="700" height="866" viewBox="0 0 700 866" fill="none" xmlns="http://www.w3.org/2000/svg">
<path fill-rule="evenodd" clip-rule="evenodd" d="M340.465 0.278004C339.09 0.518004 334.59 1.192 330.465 1.777C302.26 5.771 277.443 17.08 258.112 34.748C254.921 37.664 248.218 44.957 243.216 50.952C233.606 62.474 227.389 67.827 215.965 74.417C202.295 82.303 180.785 90.308 157.21 96.286C144.701 99.457 144.107 98.306 163.509 108.504L177.054 115.624L191.509 108.406C246.69 80.855 311.944 66.984 369.087 70.66C421.792 74.05 464.086 85.181 510.207 107.799C525.185 115.144 526.626 115.655 528.707 114.369C529.949 113.601 536.735 109.946 543.787 106.247C550.84 102.547 556.445 99.355 556.244 99.153C556.042 98.952 549.822 97.22 542.421 95.304C523.08 90.299 509.786 85.511 494.965 78.214C478.457 70.085 470.697 64.153 461.06 52.294C438.17 24.124 412.843 8.942 378.389 2.738C367.631 0.801004 345.637 -0.625996 340.465 0.278004ZM374.116 8.729C409.747 14.806 431.63 27.391 454.954 55.221C468.831 71.778 478.241 78.609 500.449 88.249C510.219 92.49 528.519 98.771 535.215 100.182C537.003 100.559 538.465 101.231 538.465 101.675C538.465 102.119 535.492 103.746 531.858 105.291L525.252 108.099L517.608 104.006C483.794 85.901 439.168 72.265 393.465 66.072C376.69 63.798 328.485 63.478 313.465 65.54C264.385 72.279 228.246 82.856 190.804 101.44L177.643 107.973L172.008 105.637C164.544 102.544 163.387 101.094 167.667 100.196C176.175 98.412 197.14 90.903 208.048 85.735C228.013 76.275 235.364 70.623 248.884 54.337C258.308 42.986 266.66 35.241 276.986 28.277C303.37 10.484 340.541 3.003 374.116 8.729ZM326.465 83.282C324.54 83.498 318.24 84.165 312.465 84.764C218.111 94.546 131.771 142.65 72.96 218.204C34.63 267.447 11.289 323.266 2.28904 387.208C0.38404 400.748 0.0320403 407.666 0.00104033 432.208C-0.0369597 462.455 0.95004 474.158 5.60504 498.708C25.398 603.091 92.952 693.961 187.184 742.957C238.686 769.736 291.676 782.712 349.465 782.696C371.393 782.69 385.513 781.57 406.3 778.187C491.877 764.259 568.64 719.15 623.521 650.538C684.109 574.791 709.974 477.38 695.43 379.724C685.734 314.618 655.396 249.584 612.386 201.708C552.828 135.411 479.701 96.896 390.965 85.09C380.626 83.715 334.211 82.414 326.465 83.282ZM387.21 97.679C455.471 105.481 517.079 132.301 569.046 176.838C623.794 223.758 660.999 284.967 677.909 355.933C687.926 397.971 689.347 446.854 681.841 491.202C668.338 570.987 623.968 645.373 558.965 697.204C479.167 760.832 372.966 784.571 272.437 761.25C159.285 735.002 66.652 650.663 29.656 540.208C17.501 503.919 12.461 472.385 12.475 432.708C12.488 396.637 16.903 366.34 26.884 333.831C59.014 229.181 141.444 145.485 245.465 111.893C280.321 100.637 309.723 96.004 347.466 95.818C363.974 95.737 374.56 96.233 387.21 97.679ZM326.985 120.782C252.066 126.136 181.527 158.551 127.939 212.251C78.702 261.591 47.229 326.303 38.937 395.249C31.684 455.546 41.531 514.748 67.883 569.283C80.524 595.443 93.226 614.849 112.098 636.835C164.717 698.134 236.147 735.63 317.465 744.637C380.213 751.588 449.485 737.132 504.065 705.698C566.653 669.652 612.908 616.849 640.166 550.331C656.975 509.31 665.223 460.014 662.483 416.947C658.146 348.794 635.705 289.537 594.784 238.182C530.302 157.261 430.257 113.402 326.985 120.782ZM372.465 139.733C480.829 147.924 576.508 216.009 619.758 315.708C645.776 375.685 651.028 441.104 635.011 505.708C625.423 544.379 603.037 588.925 577.975 619.208C545.945 657.909 504.089 688.55 458.465 706.695C430.866 717.671 404.486 723.73 371.465 726.675C335.537 729.88 293.27 724.578 256.103 712.204C196.686 692.423 144.127 652.879 107.652 600.513C81.905 563.55 64.189 517.769 57.808 471.708C55.383 454.204 55.386 412.175 57.813 394.709C61.054 371.394 67.328 347.029 75.359 326.576C123.043 205.134 242.643 129.921 372.465 139.733ZM328.965 157.368C289.141 160.594 252.915 171.209 218.465 189.746C149.643 226.779 98.827 292.799 80.855 368.528C74.082 397.068 71.811 432.549 74.891 461.708C83.679 544.923 128.847 618.442 199.619 664.728C232.34 686.128 271.179 700.644 310.965 706.345C330.335 709.121 372.805 708.893 391.139 705.916C431.427 699.373 467.876 685.393 500.465 663.985C560.057 624.838 602.722 563.893 618.337 495.61C623.843 471.534 624.869 461.768 624.898 433.208C624.926 405.362 623.843 394.357 618.895 372.208C590.728 246.104 476.799 155.462 348.243 156.876C339.84 156.969 331.165 157.19 328.965 157.368ZM388.465 172.135C417.883 177.229 439.154 183.784 462.909 195.076C543.785 233.519 599.953 311.537 610.929 400.678C612.712 415.156 612.968 447.133 611.416 461.497C605.27 518.375 579.683 573.222 539.986 614.614C497.621 658.786 441.007 687.282 381.866 694.2C365.069 696.165 332.197 696.169 316.766 694.208C221.219 682.066 140.156 619.294 104.523 529.853C95.934 508.294 89.852 483.459 87.394 459.911C85.613 442.847 86.676 405.357 89.37 390.208C94.338 362.272 101.228 341.073 113.423 316.208C142.299 257.328 192.331 211.482 254.465 186.967C270.947 180.464 296.869 173.851 313.965 171.788C318.915 171.191 324.09 170.514 325.465 170.284C332.061 169.178 379.43 170.57 388.465 172.135ZM161.76 758.04C153.4 762.493 146.755 766.332 146.993 766.569C147.23 766.807 153.307 768.481 160.496 770.289C176.783 774.387 187.186 777.832 199.782 783.298C220.807 792.424 231.209 799.976 243.731 815.208C267.453 844.064 293.643 858.492 332.593 864.161C351.059 866.849 368.41 865.775 388.685 860.689C418.237 853.276 437.509 840.78 460.365 814.21C470.545 802.376 471.963 801.046 480.484 795.338C495.915 784.999 518.019 776.296 547.802 768.832C552.112 767.752 555.815 766.692 556.03 766.476C556.246 766.261 549.576 762.429 541.207 757.962L525.993 749.84L516.979 754.581C493.684 766.832 466.19 777.279 438.965 784.222C355.614 805.48 268.991 796.024 191.462 757.205L176.959 749.943L161.76 758.04ZM183.808 760.794C191.998 765.23 212.323 774.265 223.965 778.645C253.68 789.825 289.419 797.934 320.965 800.653C336.381 801.982 367.709 801.992 382.465 800.673C427.052 796.688 474.376 783.298 513.923 763.477L525.881 757.484L532.371 760.684L538.861 763.884L522.413 769.297C503.4 775.553 481.186 786.152 471.252 793.707C467.56 796.515 460.755 803.401 456.13 809.01C433.969 835.888 413.526 848.611 380.756 855.92C372.526 857.756 367.856 858.104 351.465 858.104C329.85 858.104 321.333 856.775 303.965 850.689C279.993 842.29 265.203 831.087 243.266 804.708C231.039 790.005 208.008 777.539 173.465 766.925L163.965 764.006L169.965 760.905C173.265 759.2 176.448 757.783 177.037 757.756C177.627 757.73 180.674 759.097 183.808 760.794Z" fill="#FCFBFB"/>
</svg>
